<svg width="1921" height="630" viewBox="0 0 1921 630" fill="none" xmlns="http://www.w3.org/2000/svg">
<rect width="1921" height="629" fill="#722875"/>
<g filter="url(#filter0_d_2258_12847)">
<path d="M85 96.4455C85 91.2289 89.2289 87 94.4455 87H1825.55C1830.77 87 1835 91.2289 1835 96.4455V569H85V96.4455Z" fill="#FBFBFB"/>
</g>
<path d="M1021.09 203.282V243.82H1012.96V203.282H1021.09ZM1063.8 243.82H1055.67L1037.26 216.001V243.82H1029.12V203.224H1037.26L1055.67 231.101V203.224H1063.8V243.82ZM1086 203.282C1090.26 203.282 1094 204.115 1097.21 205.78C1100.46 207.444 1102.96 209.826 1104.7 212.923C1106.48 215.982 1107.38 219.544 1107.38 223.609C1107.38 227.675 1106.48 231.237 1104.7 234.296C1102.96 237.316 1100.46 239.658 1097.21 241.323C1094 242.988 1090.26 243.82 1086 243.82H1071.83V203.282H1086ZM1085.71 236.909C1089.97 236.909 1093.26 235.748 1095.59 233.424C1097.91 231.101 1099.07 227.83 1099.07 223.609C1099.07 219.389 1097.91 216.098 1095.59 213.736C1093.26 211.336 1089.97 210.135 1085.71 210.135H1079.96V236.909H1085.71ZM1121.59 203.282V243.82H1113.46V203.282H1121.59ZM1154.48 236.096H1138.34L1135.67 243.82H1127.13L1141.71 203.224H1151.17L1165.75 243.82H1157.15L1154.48 236.096ZM1152.28 229.591L1146.41 212.633L1140.54 229.591H1152.28ZM1172.83 203.282H1181.36L1175.09 217.918H1169.51L1172.83 203.282ZM1201.19 244.227C1198.36 244.227 1195.81 243.743 1193.52 242.775C1191.28 241.807 1189.5 240.413 1188.18 238.593C1186.86 236.774 1186.19 234.625 1186.15 232.147H1194.86C1194.98 233.812 1195.56 235.128 1196.6 236.096C1197.69 237.064 1199.16 237.548 1201.02 237.548C1202.91 237.548 1204.4 237.103 1205.49 236.212C1206.57 235.283 1207.11 234.083 1207.11 232.611C1207.11 231.411 1206.75 230.424 1206.01 229.649C1205.27 228.875 1204.35 228.275 1203.22 227.849C1202.14 227.384 1200.63 226.881 1198.69 226.339C1196.06 225.565 1193.91 224.81 1192.25 224.074C1190.62 223.3 1189.21 222.157 1188.01 220.647C1186.84 219.099 1186.26 217.047 1186.26 214.491C1186.26 212.091 1186.86 210 1188.06 208.219C1189.26 206.438 1190.95 205.083 1193.12 204.153C1195.29 203.185 1197.76 202.701 1200.55 202.701C1204.73 202.701 1208.12 203.727 1210.71 205.78C1213.35 207.793 1214.8 210.619 1215.07 214.259H1206.13C1206.05 212.865 1205.45 211.723 1204.33 210.832C1203.24 209.903 1201.79 209.438 1199.97 209.438C1198.38 209.438 1197.1 209.845 1196.14 210.658C1195.21 211.471 1194.74 212.652 1194.74 214.201C1194.74 215.285 1195.09 216.195 1195.79 216.93C1196.52 217.627 1197.41 218.208 1198.46 218.673C1199.54 219.099 1201.05 219.602 1202.99 220.183C1205.62 220.957 1207.77 221.731 1209.44 222.506C1211.1 223.28 1212.53 224.442 1213.73 225.991C1214.93 227.539 1215.53 229.572 1215.53 232.089C1215.53 234.257 1214.97 236.27 1213.85 238.129C1212.73 239.987 1211.08 241.478 1208.91 242.601C1206.75 243.685 1204.17 244.227 1201.19 244.227Z" fill="black"/>
<path d="M1126.76 417.359H1104.39L1037.09 315.52V417.359H1014.72V280.788H1037.09L1104.39 382.432V280.788H1126.76V417.359ZM1203.03 419.125C1192.83 419.125 1183.61 416.836 1175.37 412.258C1167.12 407.548 1160.65 401.007 1155.94 392.635C1151.23 384.132 1148.88 374.321 1148.88 363.202C1148.88 352.213 1151.3 342.468 1156.14 333.965C1160.98 325.462 1167.58 318.921 1175.95 314.342C1184.33 309.764 1193.68 307.474 1204.01 307.474C1214.35 307.474 1223.7 309.764 1232.07 314.342C1240.45 318.921 1247.05 325.462 1251.89 333.965C1256.73 342.468 1259.15 352.213 1259.15 363.202C1259.15 374.19 1256.67 383.936 1251.7 392.439C1246.72 400.942 1239.92 407.548 1231.29 412.258C1222.79 416.836 1213.37 419.125 1203.03 419.125ZM1203.03 399.699C1208.79 399.699 1214.15 398.326 1219.12 395.579C1224.22 392.831 1228.35 388.711 1231.48 383.217C1234.62 377.722 1236.19 371.051 1236.19 363.202C1236.19 355.353 1234.69 348.747 1231.68 343.383C1228.67 337.889 1224.68 333.768 1219.71 331.021C1214.74 328.274 1209.38 326.901 1203.62 326.901C1197.87 326.901 1192.5 328.274 1187.53 331.021C1182.69 333.768 1178.83 337.889 1175.95 343.383C1173.08 348.747 1171.64 355.353 1171.64 363.202C1171.64 374.844 1174.58 383.871 1180.47 390.281C1186.48 396.56 1194.01 399.699 1203.03 399.699Z" fill="#E35F26"/>
<path d="M1290.29 418.733C1286.24 418.733 1282.84 417.359 1280.09 414.612C1277.34 411.865 1275.97 408.464 1275.97 404.409C1275.97 400.353 1277.34 396.952 1280.09 394.205C1282.84 391.458 1286.24 390.084 1290.29 390.084C1294.22 390.084 1297.55 391.458 1300.3 394.205C1303.05 396.952 1304.42 400.353 1304.42 404.409C1304.42 408.464 1303.05 411.865 1300.3 414.612C1297.55 417.359 1294.22 418.733 1290.29 418.733Z" fill="black"/>
<rect x="1008.95" y="480.465" width="387.486" height="49.0703" fill="#722875"/>
<path d="M1035.23 513.235C1034.19 513.235 1033.25 513.056 1032.41 512.697C1031.57 512.323 1030.91 511.799 1030.43 511.126C1029.95 510.453 1029.72 509.668 1029.72 508.77H1032.45C1032.51 509.443 1032.77 509.997 1033.24 510.431C1033.72 510.864 1034.38 511.081 1035.23 511.081C1036.12 511.081 1036.81 510.872 1037.3 510.453C1037.79 510.019 1038.04 509.466 1038.04 508.793C1038.04 508.269 1037.88 507.843 1037.57 507.514C1037.27 507.185 1036.89 506.93 1036.42 506.751C1035.98 506.571 1035.35 506.377 1034.54 506.168C1033.52 505.898 1032.69 505.629 1032.05 505.36C1031.42 505.076 1030.88 504.642 1030.43 504.058C1029.98 503.475 1029.76 502.697 1029.76 501.725C1029.76 500.828 1029.98 500.042 1030.43 499.369C1030.88 498.696 1031.51 498.18 1032.32 497.821C1033.13 497.462 1034.06 497.282 1035.12 497.282C1036.63 497.282 1037.87 497.664 1038.82 498.427C1039.8 499.175 1040.34 500.207 1040.44 501.523H1037.61C1037.57 500.955 1037.3 500.469 1036.81 500.065C1036.31 499.661 1035.66 499.459 1034.85 499.459C1034.12 499.459 1033.52 499.646 1033.06 500.02C1032.59 500.394 1032.36 500.932 1032.36 501.635C1032.36 502.114 1032.51 502.51 1032.79 502.824C1033.09 503.124 1033.46 503.363 1033.91 503.542C1034.36 503.722 1034.97 503.916 1035.75 504.126C1036.78 504.41 1037.62 504.694 1038.26 504.978C1038.92 505.263 1039.48 505.704 1039.92 506.302C1040.39 506.886 1040.62 507.671 1040.62 508.658C1040.62 509.451 1040.4 510.199 1039.97 510.902C1039.55 511.605 1038.93 512.173 1038.11 512.607C1037.3 513.026 1036.34 513.235 1035.23 513.235ZM1046.2 499.549V504.126H1051.58V506.212H1046.2V510.991H1052.25V513.078H1043.64V497.462H1052.25V499.549H1046.2ZM1054.55 505.248C1054.55 503.722 1054.9 502.353 1055.61 501.142C1056.32 499.93 1057.29 498.988 1058.5 498.315C1059.73 497.627 1061.07 497.282 1062.52 497.282C1064.18 497.282 1065.65 497.694 1066.94 498.517C1068.24 499.324 1069.18 500.476 1069.76 501.972H1066.69C1066.29 501.149 1065.73 500.536 1065.01 500.132C1064.29 499.728 1063.46 499.526 1062.52 499.526C1061.48 499.526 1060.56 499.758 1059.76 500.222C1058.95 500.685 1058.31 501.351 1057.85 502.219C1057.4 503.086 1057.18 504.096 1057.18 505.248C1057.18 506.399 1057.4 507.409 1057.85 508.277C1058.31 509.144 1058.95 509.817 1059.76 510.296C1060.56 510.76 1061.48 510.991 1062.52 510.991C1063.46 510.991 1064.29 510.79 1065.01 510.386C1065.73 509.982 1066.29 509.369 1066.69 508.546H1069.76C1069.18 510.042 1068.24 511.193 1066.94 512.001C1065.65 512.809 1064.18 513.213 1062.52 513.213C1061.05 513.213 1059.71 512.876 1058.5 512.203C1057.29 511.515 1056.32 510.565 1055.61 509.354C1054.9 508.142 1054.55 506.773 1054.55 505.248ZM1079.87 513.235C1078.42 513.235 1077.08 512.899 1075.85 512.226C1074.64 511.537 1073.68 510.588 1072.96 509.376C1072.26 508.149 1071.91 506.773 1071.91 505.248C1071.91 503.722 1072.26 502.353 1072.96 501.142C1073.68 499.93 1074.64 498.988 1075.85 498.315C1077.08 497.627 1078.42 497.282 1079.87 497.282C1081.34 497.282 1082.67 497.627 1083.89 498.315C1085.11 498.988 1086.08 499.93 1086.78 501.142C1087.48 502.353 1087.84 503.722 1087.84 505.248C1087.84 506.773 1087.48 508.149 1086.78 509.376C1086.08 510.588 1085.11 511.537 1083.89 512.226C1082.67 512.899 1081.34 513.235 1079.87 513.235ZM1079.87 511.014C1080.9 511.014 1081.82 510.782 1082.63 510.318C1083.44 509.84 1084.07 509.167 1084.51 508.299C1084.98 507.417 1085.21 506.399 1085.21 505.248C1085.21 504.096 1084.98 503.086 1084.51 502.219C1084.07 501.351 1083.44 500.685 1082.63 500.222C1081.82 499.758 1080.9 499.526 1079.87 499.526C1078.84 499.526 1077.92 499.758 1077.11 500.222C1076.3 500.685 1075.67 501.351 1075.2 502.219C1074.75 503.086 1074.53 504.096 1074.53 505.248C1074.53 506.399 1074.75 507.417 1075.2 508.299C1075.67 509.167 1076.3 509.84 1077.11 510.318C1077.92 510.782 1078.84 511.014 1079.87 511.014ZM1103.16 513.078H1100.61L1092.91 501.433V513.078H1090.35V497.462H1092.91L1100.61 509.084V497.462H1103.16V513.078ZM1111.62 497.484C1113.28 497.484 1114.73 497.806 1115.97 498.449C1117.23 499.077 1118.19 499.99 1118.86 501.187C1119.55 502.368 1119.9 503.752 1119.9 505.337C1119.9 506.923 1119.55 508.299 1118.86 509.466C1118.19 510.632 1117.23 511.53 1115.97 512.158C1114.73 512.771 1113.28 513.078 1111.62 513.078H1106.52V497.484H1111.62ZM1111.62 510.991C1113.44 510.991 1114.84 510.498 1115.81 509.511C1116.78 508.523 1117.27 507.132 1117.27 505.337C1117.27 503.527 1116.78 502.114 1115.81 501.097C1114.84 500.08 1113.44 499.571 1111.62 499.571H1109.08V510.991H1111.62ZM1140.71 497.484V513.078H1138.15V506.257H1130.82V513.078H1128.26V497.484H1130.82V504.171H1138.15V497.484H1140.71ZM1153.48 509.892H1146.95L1145.83 513.078H1143.16L1148.75 497.462H1151.71L1157.29 513.078H1154.6L1153.48 509.892ZM1152.76 507.805L1150.23 500.558L1147.67 507.805H1152.76ZM1172.53 513.078H1169.98L1162.28 501.433V513.078H1159.72V497.462H1162.28L1169.98 509.084V497.462H1172.53V513.078ZM1180.99 497.484C1182.65 497.484 1184.1 497.806 1185.34 498.449C1186.6 499.077 1187.56 499.99 1188.23 501.187C1188.92 502.368 1189.27 503.752 1189.27 505.337C1189.27 506.923 1188.92 508.299 1188.23 509.466C1187.56 510.632 1186.6 511.53 1185.34 512.158C1184.1 512.771 1182.65 513.078 1180.99 513.078H1175.89V497.484H1180.99ZM1180.99 510.991C1182.81 510.991 1184.21 510.498 1185.18 509.511C1186.15 508.523 1186.64 507.132 1186.64 505.337C1186.64 503.527 1186.15 502.114 1185.18 501.097C1184.21 500.08 1182.81 499.571 1180.99 499.571H1178.45V510.991H1180.99ZM1208.67 497.327V500.401H1204.49V513.078H1200.66V500.401H1196.48V497.327H1208.67ZM1218.63 513.078L1215.35 507.132H1214.43V513.078H1210.59V497.327H1217.03C1218.27 497.327 1219.33 497.544 1220.2 497.978C1221.08 498.412 1221.74 499.01 1222.17 499.773C1222.61 500.521 1222.82 501.359 1222.82 502.286C1222.82 503.333 1222.52 504.268 1221.92 505.091C1221.34 505.913 1220.47 506.497 1219.32 506.841L1222.96 513.078H1218.63ZM1214.43 504.417H1216.81C1217.51 504.417 1218.04 504.245 1218.38 503.901C1218.74 503.557 1218.92 503.071 1218.92 502.443C1218.92 501.845 1218.74 501.373 1218.38 501.029C1218.04 500.685 1217.51 500.513 1216.81 500.513H1214.43V504.417ZM1235.04 510.296H1229.16L1228.21 513.078H1224.2L1229.9 497.327H1234.34L1240.04 513.078H1235.98L1235.04 510.296ZM1234.05 507.334L1232.1 501.568L1230.17 507.334H1234.05ZM1241.12 505.18C1241.12 503.625 1241.46 502.241 1242.13 501.029C1242.81 499.803 1243.74 498.853 1244.94 498.18C1246.15 497.492 1247.52 497.148 1249.04 497.148C1250.91 497.148 1252.51 497.641 1253.84 498.629C1255.18 499.616 1256.07 500.962 1256.51 502.667H1252.3C1251.98 502.009 1251.53 501.508 1250.95 501.164C1250.38 500.82 1249.73 500.648 1249 500.648C1247.82 500.648 1246.86 501.059 1246.13 501.882C1245.39 502.705 1245.03 503.804 1245.03 505.18C1245.03 506.556 1245.39 507.656 1246.13 508.479C1246.86 509.301 1247.82 509.713 1249 509.713C1249.73 509.713 1250.38 509.541 1250.95 509.197C1251.53 508.852 1251.98 508.351 1252.3 507.693H1256.51C1256.07 509.398 1255.18 510.745 1253.84 511.732C1252.51 512.704 1250.91 513.19 1249.04 513.19C1247.52 513.19 1246.15 512.854 1244.94 512.181C1243.74 511.493 1242.81 510.543 1242.13 509.331C1241.46 508.12 1241.12 506.736 1241.12 505.18ZM1270.19 497.327V500.401H1266.02V513.078H1262.18V500.401H1258.01V497.327H1270.19ZM1279.57 513.235C1278.09 513.235 1276.73 512.891 1275.49 512.203C1274.26 511.515 1273.28 510.558 1272.55 509.331C1271.83 508.09 1271.47 506.699 1271.47 505.158C1271.47 503.617 1271.83 502.234 1272.55 501.007C1273.28 499.78 1274.26 498.823 1275.49 498.135C1276.73 497.447 1278.09 497.103 1279.57 497.103C1281.05 497.103 1282.4 497.447 1283.63 498.135C1284.87 498.823 1285.84 499.78 1286.55 501.007C1287.27 502.234 1287.62 503.617 1287.62 505.158C1287.62 506.699 1287.27 508.09 1286.55 509.331C1285.83 510.558 1284.86 511.515 1283.63 512.203C1282.4 512.891 1281.05 513.235 1279.57 513.235ZM1279.57 509.735C1280.83 509.735 1281.83 509.316 1282.58 508.479C1283.34 507.641 1283.72 506.534 1283.72 505.158C1283.72 503.767 1283.34 502.66 1282.58 501.837C1281.83 501 1280.83 500.581 1279.57 500.581C1278.3 500.581 1277.28 500.992 1276.52 501.815C1275.77 502.637 1275.4 503.752 1275.4 505.158C1275.4 506.549 1275.77 507.663 1276.52 508.501C1277.28 509.324 1278.3 509.735 1279.57 509.735ZM1297.79 513.078L1294.52 507.132H1293.6V513.078H1289.76V497.327H1296.2C1297.44 497.327 1298.49 497.544 1299.36 497.978C1300.24 498.412 1300.9 499.01 1301.34 499.773C1301.77 500.521 1301.99 501.359 1301.99 502.286C1301.99 503.333 1301.69 504.268 1301.09 505.091C1300.51 505.913 1299.64 506.497 1298.49 506.841L1302.12 513.078H1297.79ZM1293.6 504.417H1295.97C1296.68 504.417 1297.2 504.245 1297.54 503.901C1297.9 503.557 1298.08 503.071 1298.08 502.443C1298.08 501.845 1297.9 501.373 1297.54 501.029C1297.2 500.685 1296.68 500.513 1295.97 500.513H1293.6V504.417ZM1314.85 513.235C1313.7 513.235 1312.67 513.048 1311.75 512.674C1310.84 512.3 1310.11 511.747 1309.55 511.014C1309.02 510.281 1308.73 509.398 1308.7 508.366H1312.78C1312.84 508.95 1313.05 509.398 1313.39 509.713C1313.73 510.012 1314.18 510.161 1314.74 510.161C1315.31 510.161 1315.75 510.034 1316.08 509.78C1316.41 509.511 1316.58 509.144 1316.58 508.68C1316.58 508.292 1316.44 507.97 1316.17 507.716C1315.92 507.461 1315.6 507.252 1315.21 507.087C1314.83 506.923 1314.3 506.736 1313.59 506.527C1312.58 506.212 1311.75 505.898 1311.1 505.584C1310.46 505.27 1309.91 504.806 1309.44 504.193C1308.98 503.58 1308.75 502.78 1308.75 501.792C1308.75 500.326 1309.28 499.182 1310.34 498.359C1311.4 497.522 1312.78 497.103 1314.49 497.103C1316.23 497.103 1317.62 497.522 1318.69 498.359C1319.75 499.182 1320.32 500.334 1320.39 501.815H1316.24C1316.21 501.306 1316.02 500.91 1315.68 500.626C1315.34 500.326 1314.89 500.177 1314.36 500.177C1313.89 500.177 1313.52 500.304 1313.23 500.558C1312.95 500.798 1312.81 501.149 1312.81 501.613C1312.81 502.121 1313.05 502.518 1313.53 502.802C1314 503.086 1314.75 503.393 1315.77 503.722C1316.79 504.066 1317.61 504.395 1318.24 504.709C1318.88 505.023 1319.43 505.479 1319.9 506.078C1320.36 506.676 1320.59 507.446 1320.59 508.389C1320.59 509.286 1320.36 510.101 1319.9 510.834C1319.45 511.567 1318.79 512.151 1317.92 512.585C1317.06 513.018 1316.03 513.235 1314.85 513.235ZM1334.28 497.327V500.401H1330.11V513.078H1326.27V500.401H1322.1V497.327H1334.28ZM1343.66 513.235C1342.18 513.235 1340.82 512.891 1339.58 512.203C1338.35 511.515 1337.37 510.558 1336.64 509.331C1335.92 508.09 1335.56 506.699 1335.56 505.158C1335.56 503.617 1335.92 502.234 1336.64 501.007C1337.37 499.78 1338.35 498.823 1339.58 498.135C1340.82 497.447 1342.18 497.103 1343.66 497.103C1345.14 497.103 1346.49 497.447 1347.72 498.135C1348.96 498.823 1349.93 499.78 1350.64 501.007C1351.36 502.234 1351.71 503.617 1351.71 505.158C1351.71 506.699 1351.36 508.09 1350.64 509.331C1349.92 510.558 1348.95 511.515 1347.72 512.203C1346.49 512.891 1345.14 513.235 1343.66 513.235ZM1343.66 509.735C1344.92 509.735 1345.92 509.316 1346.67 508.479C1347.43 507.641 1347.81 506.534 1347.81 505.158C1347.81 503.767 1347.43 502.66 1346.67 501.837C1345.92 501 1344.92 500.581 1343.66 500.581C1342.39 500.581 1341.37 500.992 1340.61 501.815C1339.86 502.637 1339.49 503.752 1339.49 505.158C1339.49 506.549 1339.86 507.663 1340.61 508.501C1341.37 509.324 1342.39 509.735 1343.66 509.735ZM1361.88 513.078L1358.61 507.132H1357.69V513.078H1353.85V497.327H1360.29C1361.53 497.327 1362.58 497.544 1363.45 497.978C1364.33 498.412 1364.99 499.01 1365.43 499.773C1365.86 500.521 1366.08 501.359 1366.08 502.286C1366.08 503.333 1365.78 504.268 1365.18 505.091C1364.6 505.913 1363.73 506.497 1362.58 506.841L1366.21 513.078H1361.88ZM1357.69 504.417H1360.06C1360.77 504.417 1361.29 504.245 1361.63 503.901C1361.99 503.557 1362.17 503.071 1362.17 502.443C1362.17 501.845 1361.99 501.373 1361.63 501.029C1361.29 500.685 1360.77 500.513 1360.06 500.513H1357.69V504.417ZM1372.32 500.401V503.587H1377.46V506.549H1372.32V510.004H1378.13V513.078H1368.49V497.327H1378.13V500.401H1372.32Z" fill="white"/>
<path d="M1436.56 137.443V436H1354.06V240.366C1340.71 250.511 1327.76 258.721 1315.21 264.995C1302.8 271.27 1287.18 277.277 1268.35 283.017V216.137C1296.12 207.193 1317.68 196.447 1333.03 183.898C1348.38 171.35 1360.4 155.865 1369.07 137.443H1436.56Z" fill="#722875"/>
<path d="M542.61 357.259C542.035 357.381 541.436 357.795 540.866 358.535C537.642 362.758 536.064 364.881 532.98 369.148C534.787 370.195 535.684 370.726 537.471 371.788C537.534 371.773 537.569 371.768 537.632 371.754C540.277 368.096 541.626 366.274 544.382 362.651C544.845 362.018 545.21 361.735 545.697 361.638C546.228 361.531 546.9 361.72 547.787 362.115C550.173 363.235 554.62 365.432 559.812 368.262C559.89 368.247 559.934 368.242 560.012 368.227C560.426 367.4 560.635 366.986 561.054 366.158C556.096 363.406 551.138 360.654 546.043 358.155C544.621 357.459 543.428 357.089 542.605 357.264L542.61 357.259Z" fill="#722875"/>
<path d="M629.335 305.754C629.335 305.754 629.33 305.744 629.325 305.739C628.999 305.754 628.678 305.768 628.351 305.783C628.079 305.793 627.806 305.797 627.533 305.807C627.533 305.812 627.528 305.817 627.523 305.822C601.914 306.986 576.568 309.743 551.309 314.121C551.309 314.121 551.304 314.111 551.3 314.107C550.993 314.165 550.691 314.223 550.384 314.277C550.097 314.326 549.809 314.374 549.522 314.423C549.522 314.428 549.517 314.433 549.512 314.438C547.389 314.832 545.27 315.241 543.151 315.66C540.945 310.137 538.261 303.986 533.663 300.133C530.122 297.167 526.893 295.487 522.383 296.495C520.357 296.948 518.18 297.571 515.638 298.501C516.806 300.493 517.386 301.492 518.545 303.489C518.755 303.557 518.857 303.591 519.061 303.659C521.205 302.787 523.357 302.145 525.252 301.638C531.973 299.836 535.29 305.666 537.545 311.106C537.482 311.15 537.448 311.175 537.384 311.223C532.821 308.856 527.108 306.328 521.935 307.429C519.174 308.014 516.256 309.786 513.597 311.934C515.272 313.483 516.1 314.258 517.756 315.816C517.951 315.85 518.053 315.87 518.248 315.904C521.049 313.658 523.752 311.929 526.065 311.491C531.082 310.536 536.586 313.318 540.935 316.103C530.829 318.134 520.786 320.399 510.777 322.903C510.679 323.112 510.631 323.214 510.533 323.424C511.765 324.724 512.379 325.372 513.597 326.677C522.198 324.554 530.819 322.591 539.493 320.789C540.019 323.395 540.287 324.7 540.813 327.306C540.959 328.017 540.604 328.499 539.737 328.679C537.394 329.161 536.225 329.405 533.887 329.911C527.166 330.963 520.172 336.107 521.77 343.583C523.62 352.238 534.131 355.94 541.924 354.279C547.505 353.09 552.191 349.423 555.118 344.543C555.084 344.367 555.069 344.279 555.04 344.104C553.408 342.877 552.59 342.268 550.939 341.05C547.583 345.03 543.979 349.126 538.685 350.265C534.121 351.249 528.579 349.447 527.478 344.484C525.929 337.485 534.803 334.339 540.243 333.34C542.703 332.834 543.935 332.59 546.395 332.113C546.536 331.923 546.609 331.826 546.75 331.636C545.82 326.906 545.353 324.544 544.422 319.815C547.539 319.211 549.366 318.87 552.054 318.397C560.782 316.883 569.525 315.538 578.307 314.35L579.222 321.383C575.735 320.94 572.262 321.106 569.053 321.495C563.296 322.192 556.91 326.887 557.987 332.985C559.107 339.336 566.525 343.827 573.105 342.692C575.969 342.2 578.872 340.933 581.297 338.342C581.351 338.367 581.38 338.381 581.434 338.406C581.979 343.13 582.252 345.492 582.797 350.217C584.668 350.46 585.603 350.587 587.468 350.85C587.614 350.655 587.687 350.558 587.829 350.358C587.161 345.039 586.489 339.721 585.822 334.402C588.35 330.525 591.623 327.593 596.435 327.116C596.108 328.241 596.035 329.483 596.147 330.788C596.907 339.492 606.575 344.757 614.519 344.202C620.193 343.802 625.322 340.821 628.877 336.404C628.872 336.229 628.868 336.136 628.858 335.961C627.421 334.519 626.695 333.798 625.239 332.366C621.382 335.829 617.266 339.389 611.879 339.779C607.228 340.115 602.026 337.534 601.641 332.488C601.115 325.552 610.277 323.253 615.766 323.239C618.26 323.083 619.506 323.01 622 322.883C622.166 322.713 622.249 322.63 622.414 322.46C622.151 317.647 622.02 315.241 621.757 310.429C624.918 310.269 626.768 310.186 629.486 310.088C634.805 309.918 640.109 309.801 645.427 309.728C645.841 311.379 645.944 313.191 645.953 314.642C645.973 317.102 645.413 319.279 644.512 320.779C642.802 320.633 640.873 320.584 638.95 320.623C636.758 320.667 635.462 321.213 634.829 322.055C634.303 322.752 634.084 323.448 634.103 324.213C634.147 325.664 635.306 328.046 637.479 330.856C642.451 337.047 648.593 342.326 654.944 347.056C655.144 347.056 655.246 347.056 655.446 347.061C656.62 345.01 657.209 343.987 658.402 341.942C652.519 338.605 646.582 335.298 641.813 330.413C647.366 327.832 651.267 322.747 651.218 316.488C651.199 314.214 651.053 311.895 650.561 309.718C654.954 309.718 657.156 309.747 661.549 309.835C661.695 309.66 661.768 309.572 661.914 309.402C661.091 307.819 660.672 307.03 659.839 305.452C649.66 305.33 639.5 305.437 629.33 305.763L629.335 305.754ZM570.056 338.742C566.535 339.277 563.973 337.836 563.554 334.621C562.882 329.468 568.264 325.762 572.973 325.114C575.272 324.797 577.537 324.724 579.719 324.846C580.055 327.437 580.221 328.733 580.557 331.319C577.152 335.741 573.66 338.191 570.051 338.737L570.056 338.742ZM615.912 318.544C613.535 318.69 612.352 318.773 609.975 318.943C604.875 319.318 600.716 320.906 598.329 323.604C596.985 322.883 595.407 322.552 593.527 322.747C590.166 323.098 587.38 324.754 584.994 327.194C584.94 327.169 584.911 327.155 584.853 327.13C584.205 321.768 583.883 319.089 583.236 313.727C594.394 312.441 605.552 311.438 616.759 310.702C616.92 313.356 616.998 314.686 617.159 317.341C617.203 318.066 616.789 318.495 615.907 318.549L615.912 318.544Z" fill="#722875"/>
<path d="M783.668 304.619C785.757 305.115 787.472 306.158 788.957 307.522C789.137 307.414 789.225 307.366 789.405 307.259C788.928 305.31 788.495 303.752 788.246 302.987C786.916 301.331 784.812 300.036 781.885 299.315C777.151 298.151 771.691 300.289 770.688 305.359C769.616 310.775 772.967 315.977 776.649 319.878C757.688 315.563 738.591 312.163 719.279 309.655C719.279 309.65 719.279 309.645 719.275 309.64C718.982 309.606 718.685 309.572 718.393 309.538C718.091 309.499 717.789 309.46 717.487 309.421C717.482 309.421 717.477 309.431 717.472 309.436C703.918 307.862 690.358 306.713 676.726 305.992C676.575 306.163 676.497 306.245 676.346 306.416C677.135 308.018 677.529 308.822 678.304 310.424C688.02 310.902 697.727 311.666 707.4 312.67C707.113 315.446 706.972 316.829 706.684 319.605C702.656 318.217 698.565 317.462 694.8 317.048C688.804 316.391 681.055 319.654 680.773 326.054C680.471 332.936 687.728 339.409 694.815 339.896C698.356 340.139 701.746 339.55 704.799 337.841C704.283 342.146 704.03 344.299 703.518 348.604C705.33 349.277 706.236 349.618 708.043 350.309C708.228 350.153 708.321 350.07 708.506 349.915C709.831 337.68 711.155 325.45 712.475 313.215C715.047 313.507 716.591 313.688 718.744 313.955C737.656 316.41 756.364 319.717 774.969 323.891C774.545 325.728 774.336 326.648 773.912 328.484C773.742 329.229 773.201 329.395 772.592 329.259C770.581 328.801 769.573 328.577 767.556 328.134C763.777 327.311 760.616 326.94 758.278 327.179C755.886 327.423 754.313 328.285 753.417 329.673C752.082 327.978 750.383 326.716 748.162 326.312C745.902 325.903 743.252 326.668 741.528 327.89C738.82 324.939 736.044 323.039 732.172 322.43C726.395 321.524 721.091 325.323 720.278 331.129C719.08 339.677 725.942 348.074 731.758 353.48C731.889 353.499 731.957 353.509 732.089 353.533C733.711 351.868 734.524 351.035 736.17 349.379C730.589 346.189 724.067 341.002 724.919 333.993C725.343 330.501 729.098 326.955 734.125 327.739C736.248 328.07 737.919 328.752 739.083 329.76C737.369 331.275 735.766 333.545 734.417 336.228C736.01 337.558 736.799 338.225 738.372 339.57C738.489 339.589 738.552 339.599 738.669 339.618C740.71 335.488 744.523 330.394 749.676 331.256C750.821 331.446 752.38 331.962 752.589 332.381C752.915 333.053 753.008 335.785 754.07 337.802C755.969 341.42 758.151 343.388 760.718 343.929C763.879 344.596 768.667 344.138 771.871 344.883C773.722 345.317 774.531 346.218 774.234 347.47C773.484 350.606 767.912 353.149 763.046 352.014C756.062 350.387 751.688 344.523 749.077 338.031C747.996 338.449 747.455 338.664 746.374 339.087C746.355 339.199 746.345 339.253 746.325 339.365C749.974 347.319 754.566 355.311 763.816 357.342C768.896 358.458 775.773 356.563 777.322 351.327C777.843 349.554 777.784 347.664 777.409 345.911C776.659 342.409 774.925 340.242 771.053 339.35C766.923 338.406 762.656 338.971 759.802 338.376C757.63 337.923 756.529 336.735 756.914 335.318C758.098 330.968 765.851 332.298 769.173 333.141C771.998 333.856 774.638 334.383 777.02 335.035C777.234 334.889 777.346 334.816 777.56 334.67C778.466 330.808 778.919 328.879 779.825 325.016C783.186 325.82 784.861 326.239 788.212 327.096C788.397 326.96 788.49 326.892 788.67 326.755C788.222 325.026 787.993 324.159 787.53 322.43C785.299 321.88 783.064 321.344 780.828 320.823C777.521 317.681 774.029 313.279 775.052 308.525C775.656 305.715 778.724 303.425 783.673 304.599L783.668 304.619ZM705.924 327.749C704.799 333.676 698.107 335.488 692.979 335.176C687.996 334.874 685.653 331.889 685.897 328.874C686.374 322.966 693.997 321.271 698.813 321.88C701.205 322.182 703.864 322.591 706.377 323.463C706.197 325.177 706.11 326.034 705.934 327.754L705.924 327.749Z" fill="#722875"/>
<path d="M831.689 249.309C831.012 251.861 829.376 253.994 827.082 255.314L820.122 259.318C822.918 266.477 825.251 273.817 827.062 281.235C826.624 281.138 826.181 281.035 825.738 280.943C816.386 277.46 806.825 274.28 797.094 271.411C796.68 270.262 796.242 269.117 795.779 267.973C793.344 261.753 790.533 255.733 787.343 249.947C786.267 247.994 785.151 246.06 783.992 244.146C775.201 229.651 764.135 216.71 751.272 205.8C750.054 204.763 748.842 203.75 747.605 202.771C742.437 198.646 736.997 194.837 731.313 191.364C729.418 190.21 727.484 189.094 725.531 188.013C710.954 179.962 694.944 174.176 677.975 171.127C668.882 169.471 659.531 168.614 649.98 168.614C648.923 168.614 647.885 168.633 646.828 168.653C629.441 168.994 612.73 172.164 597.178 177.746C594.446 178.706 591.757 179.762 589.083 180.878C582.362 183.727 575.904 187.02 569.699 190.746H569.679C569.421 190.887 569.182 191.028 568.944 191.184C554.43 199.98 541.445 211.065 530.54 223.928C529.502 225.122 528.504 226.339 527.51 227.576C523.38 232.759 519.552 238.204 516.103 243.888C514.944 245.782 513.829 247.716 512.752 249.669C508.72 256.955 505.262 264.592 502.442 272.541C492.593 275.537 482.93 278.853 473.486 282.482C473.155 282.555 472.824 282.633 472.493 282.711C474.149 275.731 476.243 268.849 478.756 262.113L509.82 253.556L510.234 252.84L511.934 249.908L511.764 249.957L483.106 257.822C482.243 258.066 481.367 258.183 480.49 258.183C478.756 258.183 477.042 257.725 475.546 256.868L472.853 255.314C470.559 253.994 468.927 251.861 468.246 249.309C467.569 246.757 467.91 244.088 469.225 241.813L487.348 210.408C489.126 207.359 492.394 205.464 495.925 205.464C497.659 205.464 499.373 205.922 500.868 206.799L507.828 210.807C511.915 205.722 516.284 200.857 520.95 196.21C524.895 192.26 529.005 188.515 533.272 184.945L564.385 193.083L564.439 193.098L568.087 190.984L568.106 190.965H568.126L568.846 190.526L568.569 190.458L537.758 182.972C536.521 182.67 535.444 181.935 534.728 180.897C534.709 180.897 534.709 180.878 534.709 180.878C534.071 180.259 533.53 179.563 533.092 178.803L531.538 176.11C528.825 171.405 530.442 165.326 535.167 162.613L566.552 144.485C568.048 143.609 569.762 143.151 571.496 143.151C575.027 143.151 578.295 145.065 580.049 148.119L584.057 155.035C595.386 150.646 607.07 147.417 618.993 145.386L641.943 168.015H646.19L646.064 167.893L624.896 147.018C623.021 145.167 621.964 142.615 621.964 139.98V136.892C621.964 131.427 626.392 127 631.832 127H668.103C673.548 127 677.975 131.427 677.975 136.892V144.904C689.957 146.74 701.661 149.77 713.068 153.978L721.62 185.066L724.465 186.713L725.273 187.18H725.293V187.166L717.354 158.366C716.657 155.834 717.018 153.062 718.333 150.788L719.886 148.094C721.64 145.065 724.932 143.151 728.439 143.151C730.178 143.151 731.892 143.609 733.388 144.485L764.793 162.613C769.498 165.346 771.134 171.405 768.402 176.11L764.374 183.089C769.439 187.18 774.324 191.544 778.966 196.21C782.916 200.141 786.686 204.266 790.217 208.513L782.117 239.68L784.211 243.328L791.751 214.416C792.428 211.864 794.104 209.648 796.378 208.333L799.067 206.799C800.562 205.922 802.276 205.464 804.015 205.464C807.522 205.464 810.814 207.359 812.568 210.408L830.691 241.813C832.03 244.088 832.366 246.757 831.689 249.309Z" fill="#722875"/>
<path d="M468.373 341.322L468.212 339.847C468.227 339.983 468.236 340.115 468.246 340.251C468.246 340.241 468.246 340.231 468.246 340.222L468.207 339.852C468.27 340.47 468.309 341.069 468.387 341.663C468.387 341.639 468.387 341.61 468.382 341.585V341.576C468.382 341.576 468.382 341.566 468.382 341.556C468.382 341.59 468.387 341.629 468.392 341.663C468.392 341.542 468.373 341.425 468.373 341.322Z" fill="#722875"/>
<path d="M817.658 395.8V395.78C817.692 395.702 817.726 395.629 817.756 395.551C817.756 395.546 817.76 395.537 817.765 395.532C817.765 395.522 817.775 395.512 817.78 395.502C817.829 395.39 817.877 395.278 817.921 395.166C817.97 395.04 818.023 394.913 818.077 394.786C818.087 394.762 818.096 394.743 818.101 394.723C818.174 394.528 818.262 394.348 818.335 394.153L818.243 394.373L818.252 394.353L817.639 395.77C817.639 395.77 817.619 395.79 817.619 395.809H817.658V395.8Z" fill="#722875"/>
<path d="M830.798 407.002C830.764 407.065 830.725 407.124 830.691 407.187L812.567 438.573C810.814 441.622 807.522 443.516 804.015 443.516C802.276 443.516 800.561 443.059 799.066 442.201L792.087 438.173C787.981 443.239 783.632 448.104 778.966 452.77C775.02 456.716 770.934 460.485 766.687 464.017L735.52 455.902L731.853 458.016L760.784 465.551C763.336 466.208 765.528 467.903 766.843 470.178L768.401 472.871C771.134 477.596 769.497 483.635 764.792 486.367L733.387 504.495C731.892 505.372 730.177 505.83 728.439 505.83C724.932 505.83 721.639 503.935 719.886 500.882L715.858 493.926C704.534 498.329 692.85 501.563 680.927 503.594L657.977 480.966H653.749L675.043 501.963C676.918 503.814 677.975 506.366 677.975 509.001V512.108C677.975 517.553 673.548 522 668.103 522H631.832C626.391 522 621.964 517.553 621.964 512.108V504.077H621.945C609.978 502.24 598.254 499.191 586.847 494.983L578.295 463.914L574.647 461.82L582.581 490.634C583.282 493.167 582.922 495.918 581.607 498.193L580.048 500.882C578.295 503.935 575.002 505.83 571.496 505.83C569.762 505.83 568.047 505.372 566.552 504.495L535.166 486.367C530.442 483.635 528.805 477.596 531.538 472.871L535.566 465.892C530.481 461.82 525.615 457.436 520.949 452.77C516.999 448.82 513.254 444.715 509.723 440.467L517.837 409.32L515.704 405.672L508.169 434.584C507.511 437.117 505.816 439.328 503.542 440.648L500.868 442.201C499.353 443.059 497.658 443.516 495.924 443.516C492.393 443.516 489.125 441.622 487.347 438.573L469.443 407.567C483.85 404.299 498.335 401.644 512.854 399.501C513.853 401.294 514.881 403.072 515.923 404.815C524.719 419.31 535.804 432.27 548.663 443.18C549.88 444.237 551.117 445.231 552.354 446.21C557.517 450.355 562.962 454.163 568.627 457.617C570.517 458.771 572.455 459.886 574.408 460.963C588.981 469.019 604.995 474.805 621.964 477.854C623.518 478.151 625.076 478.414 626.649 478.652V478.672C633.122 479.631 639.722 480.192 646.429 480.328L646.409 480.308C647.539 480.347 648.65 480.367 649.78 480.367H649.979C650.588 480.367 651.192 480.367 651.801 480.352C652.234 480.347 652.673 480.343 653.106 480.328C653.15 480.333 653.194 480.333 653.238 480.323C653.559 480.318 653.881 480.313 654.202 480.304C654.67 480.294 655.137 480.279 655.605 480.26C655.736 480.255 655.863 480.25 655.994 480.245C656.618 480.221 657.236 480.196 657.86 480.162C657.899 480.162 657.938 480.157 657.977 480.157C658.605 480.128 659.233 480.089 659.862 480.05C674.824 479.12 689.231 476.091 702.761 471.235C704.257 470.714 705.727 470.158 707.203 469.559L707.189 469.535C713.384 467.104 719.389 464.284 725.171 461.109L725.229 461.123C727.187 460.067 729.101 458.951 730.991 457.792C741.75 451.275 751.661 443.502 760.506 434.672C761.256 433.936 761.992 433.181 762.717 432.421C762.976 432.163 763.229 431.895 763.472 431.632C763.95 431.136 764.417 430.634 764.885 430.132C765.255 429.738 765.62 429.333 765.986 428.934C766.4 428.486 766.804 428.033 767.203 427.58C767.944 426.747 768.674 425.905 769.395 425.052C769.512 424.921 769.624 424.789 769.731 424.658C770.652 423.591 771.538 422.505 772.429 421.404L772.415 421.395C776.56 416.217 780.383 410.772 783.856 405.088H783.831C784.99 403.198 786.106 401.265 787.182 399.312C787.255 399.18 787.323 399.048 787.396 398.917C801.745 401.055 816.191 403.714 830.798 407.002Z" fill="#722875"/>
<path d="M831.773 308.384H831.793L831.715 307.648C831.734 307.887 831.754 308.145 831.773 308.384Z" fill="#722875"/>
<path d="M855.314 309.387C717.517 267.563 583.792 267.563 446 309.387C469.028 298.55 493.736 289.778 519.487 283.066C603.474 261.178 698.547 261.232 782.481 283.237C807.997 289.924 832.481 298.642 855.314 309.387Z" fill="#E55E25"/>
<path fill-rule="evenodd" clip-rule="evenodd" d="M844.566 401.839C729.953 357.025 571.363 357.03 456.75 401.839C521.065 385.62 587.309 382.391 650.675 382.152C715.94 381.904 778.322 385.133 844.566 401.839Z" fill="#E55E25"/>
<path fill-rule="evenodd" clip-rule="evenodd" d="M798.508 273.987C798.328 273.929 798.708 274.007 798.508 273.987V273.987Z" fill="white"/>
<path fill-rule="evenodd" clip-rule="evenodd" d="M814.227 401.59L815.123 401.352C815.064 401.473 815.001 401.59 814.943 401.712C814.704 401.654 814.465 401.634 814.227 401.59Z" fill="white"/>
<path fill-rule="evenodd" clip-rule="evenodd" d="M817.635 395.77L818.331 394.153C818.253 394.372 818.151 394.572 818.073 394.791C817.932 395.132 817.815 395.449 817.654 395.79V395.809H817.615C817.615 395.809 817.635 395.79 817.635 395.77Z" fill="white"/>
<path fill-rule="evenodd" clip-rule="evenodd" d="M831.795 308.393H831.775C831.756 308.154 831.736 307.896 831.717 307.657L831.795 308.393Z" fill="white"/>
<path d="M690.295 268.143C686.282 268.143 682.507 266.58 679.667 263.74C676.828 260.901 675.264 257.126 675.264 253.113C675.264 249.1 676.828 245.325 679.667 242.485C682.507 239.646 686.282 238.083 690.295 238.083C694.308 238.083 698.083 239.646 700.922 242.485C703.762 245.325 705.325 249.1 705.325 253.113C705.325 257.126 703.762 260.901 700.922 263.74C698.083 266.58 694.308 268.143 690.295 268.143ZM690.295 240.006C686.793 240.006 683.5 241.37 681.026 243.844C678.552 246.319 677.188 249.611 677.188 253.113C677.188 256.615 678.552 259.907 681.026 262.382C683.5 264.856 686.793 266.22 690.295 266.22C693.797 266.22 697.089 264.856 699.563 262.382C702.038 259.907 703.401 256.615 703.401 253.113C703.401 249.611 702.038 246.323 699.563 243.844C697.089 241.37 693.797 240.006 690.295 240.006ZM619.073 268.143C613.009 268.143 607.311 265.781 603.02 261.495C598.734 257.209 596.372 251.506 596.372 245.442C596.372 239.378 598.734 233.68 603.02 229.389C607.306 225.103 613.009 222.74 619.073 222.74C625.137 222.74 630.835 225.103 635.126 229.389C639.417 233.675 641.775 239.378 641.775 245.442C641.775 251.506 639.412 257.204 635.126 261.495C630.84 265.781 625.137 268.143 619.073 268.143ZM604.384 230.752C600.458 234.678 598.3 239.894 598.3 245.442C598.3 250.989 600.463 256.211 604.384 260.131C608.309 264.057 613.526 266.215 619.073 266.215C624.621 266.215 629.842 264.052 633.763 260.131C637.688 256.206 639.846 250.989 639.846 245.442C639.846 239.894 637.683 234.673 633.763 230.752C629.837 226.827 624.621 224.669 619.073 224.669C613.526 224.669 608.304 226.832 604.384 230.752ZM690.168 263.005C687.392 263.005 684.781 261.924 682.814 259.961C680.851 257.998 679.77 255.388 679.77 252.606C679.77 249.825 680.851 247.22 682.814 245.252C684.777 243.289 687.392 242.208 690.168 242.208C692.944 242.208 695.555 243.289 697.523 245.252C699.486 247.215 700.567 249.83 700.567 252.606C700.567 255.383 699.486 257.993 697.523 259.961C695.56 261.924 692.949 263.005 690.168 263.005ZM690.168 244.127C687.903 244.127 685.775 245.008 684.173 246.611C682.57 248.213 681.689 250.342 681.689 252.606C681.689 254.871 682.57 257 684.173 258.602C685.775 260.204 687.903 261.086 690.168 261.086C692.433 261.086 694.561 260.204 696.164 258.602C697.766 257 698.648 254.871 698.648 252.606C698.648 250.342 697.766 248.213 696.164 246.611C694.561 245.008 692.433 244.127 690.168 244.127ZM619.107 259.596C615.177 259.596 611.485 258.066 608.709 255.29C605.932 252.514 604.403 248.817 604.403 244.891C604.403 240.966 605.932 237.269 608.709 234.493C611.485 231.717 615.182 230.187 619.107 230.187C623.033 230.187 626.73 231.717 629.506 234.493C632.282 237.269 633.811 240.966 633.811 244.891C633.811 248.817 632.282 252.514 629.506 255.29C626.73 258.066 623.033 259.596 619.107 259.596ZM610.067 235.852C607.652 238.268 606.322 241.477 606.322 244.891C606.322 248.306 607.652 251.515 610.067 253.931C612.483 256.347 615.693 257.677 619.107 257.677C622.521 257.677 625.731 256.347 628.147 253.931C630.563 251.515 631.892 248.306 631.892 244.891C631.892 241.477 630.563 238.268 628.147 235.852C625.731 233.436 622.521 232.106 619.107 232.106C615.693 232.106 612.483 233.436 610.067 235.852ZM642.875 257.35H640.357C640.016 257.35 639.705 257.17 639.529 256.883C639.354 256.591 639.349 256.23 639.51 255.933C639.593 255.777 639.675 255.621 639.758 255.465C639.856 255.275 639.934 255.12 640.007 254.964C640.099 254.769 640.172 254.613 640.245 254.457C640.338 254.258 640.406 254.097 640.474 253.936C640.557 253.741 640.625 253.576 640.688 253.405C640.757 253.225 640.82 253.069 640.878 252.908C641.322 251.701 641.672 250.444 641.906 249.168C641.906 249.158 641.906 249.153 641.906 249.143C642.013 248.554 642.101 247.96 642.164 247.371L642.179 247.244C642.179 247.224 642.179 247.2 642.179 247.195C642.179 247.186 642.184 247.142 642.184 247.132V247.112V247.059V246.996C642.184 246.996 642.193 246.947 642.193 246.937L642.242 246.284V246.216V246.163H643.207L642.247 246.104C642.247 246.104 642.247 246.036 642.247 246.026H643.211L642.252 245.978V245.919C642.252 245.919 642.252 245.905 642.252 245.895C642.252 245.875 642.252 245.861 642.252 245.846L642.262 245.505C642.262 245.505 642.262 245.491 642.262 245.476C642.262 245.461 642.262 245.447 642.262 245.437V245.325L643.226 245.286L642.267 245.237V245.179L643.226 245.159L642.267 245.125V245.072C642.267 245.072 642.267 245.028 642.267 245.013V244.906L643.226 244.853H642.267V244.624C642.267 244.624 642.267 244.575 642.267 244.555V244.443C642.267 244.443 642.267 244.424 642.267 244.409C642.267 244.39 642.267 244.37 642.267 244.356C642.267 244.346 642.267 244.297 642.267 244.288V244.098C642.267 244.098 642.257 244.044 642.257 244.034C642.257 244.029 642.257 244.02 642.257 244.005C642.257 243.986 642.257 243.956 642.257 243.951C642.257 243.951 642.257 243.942 642.257 243.937C642.257 243.922 642.257 243.913 642.257 243.898C642.257 243.898 642.257 243.869 642.257 243.859C642.257 243.854 642.257 243.844 642.257 243.839C642.257 243.82 642.257 243.801 642.257 243.786C642.208 242.714 642.077 241.623 641.877 240.562C641.877 240.547 641.872 240.528 641.867 240.513L641.814 240.235L641.804 240.187C641.77 240.021 641.731 239.846 641.692 239.67L641.677 239.617C641.638 239.451 641.599 239.286 641.555 239.12L641.541 239.057C641.497 238.896 641.453 238.73 641.409 238.57L641.39 238.506C641.346 238.346 641.297 238.18 641.244 238.019L641.219 237.946C641.171 237.795 641.122 237.639 641.068 237.488L641.039 237.405C640.99 237.259 640.937 237.108 640.883 236.962L640.849 236.865C640.796 236.724 640.742 236.578 640.684 236.431L640.64 236.324C640.586 236.188 640.528 236.051 640.474 235.915L640.43 235.813C640.372 235.681 640.313 235.545 640.255 235.413L640.197 235.277C640.138 235.15 640.08 235.024 640.016 234.892L639.953 234.766C639.895 234.649 639.836 234.522 639.773 234.4C638.356 231.61 636.417 229.169 634.016 227.143C634.011 227.143 634.006 227.134 634.001 227.129C633.879 227.026 633.758 226.924 633.631 226.822C633.485 226.705 633.358 226.608 633.232 226.505C632.915 226.262 632.594 226.028 632.262 225.799L632.219 225.77C632.102 225.687 631.98 225.609 631.863 225.531L631.771 225.473C631.659 225.4 631.542 225.327 631.425 225.249L631.327 225.19C631.196 225.112 631.064 225.029 630.933 224.947L630.757 224.844C630.66 224.786 630.558 224.728 630.456 224.669L630.285 224.577C630.183 224.523 630.076 224.464 629.968 224.406L629.028 223.934C628.931 223.885 628.834 223.841 628.736 223.797L628.532 223.705C628.429 223.661 628.327 223.617 628.225 223.573L627.986 223.471C627.889 223.432 627.791 223.388 627.689 223.349L627.475 223.261C627.358 223.218 627.246 223.174 627.129 223.13L627.002 223.086C626.842 223.028 626.72 222.984 626.598 222.945L626.452 222.896C626.32 222.852 626.189 222.809 626.053 222.765L625.897 222.716C625.755 222.672 625.609 222.628 625.463 222.589L625.361 222.56C625.215 222.521 625.069 222.482 624.927 222.443L624.815 222.414C624.674 222.375 624.528 222.341 624.382 222.307L624.27 222.283C624.114 222.248 623.953 222.214 623.793 222.18L623.72 222.166C623.554 222.132 623.383 222.097 623.208 222.068L623.13 222.054C622.974 222.024 622.809 222 622.648 221.976L622.565 221.961C622.4 221.937 622.234 221.912 622.064 221.893L621.995 221.883C621.82 221.859 621.64 221.839 621.455 221.82C621.25 221.8 621.06 221.781 620.875 221.766H620.822C620.641 221.752 620.466 221.737 620.291 221.727H620.223C620.052 221.718 619.872 221.708 619.692 221.703H619.633C619.278 221.693 618.898 221.693 618.528 221.703H618.377C618.226 221.713 618.084 221.718 617.938 221.722H617.841C617.661 221.737 617.49 221.747 617.32 221.761L617.174 221.771C617.042 221.781 616.906 221.795 616.769 221.805L616.633 221.82C616.462 221.839 616.287 221.859 616.117 221.878L616.044 221.888C615.893 221.907 615.742 221.927 615.596 221.951L615.449 221.976C615.294 222 615.143 222.024 614.987 222.054L614.928 222.063C614.772 222.093 614.602 222.127 614.431 222.161L614.305 222.19C614.164 222.219 614.032 222.248 613.896 222.278L613.813 222.297C613.618 222.341 613.452 222.38 613.292 222.424L613.18 222.453C613.053 222.487 612.917 222.521 612.785 222.56L612.649 222.599C612.493 222.643 612.332 222.692 612.172 222.74L612.123 222.755C611.977 222.804 611.831 222.847 611.684 222.896L611.548 222.945C611.417 222.989 611.28 223.037 611.144 223.086C611.144 223.086 611.095 223.101 611.09 223.106C610.91 223.174 610.754 223.232 610.598 223.291L610.516 223.325L610.467 223.344C610.345 223.393 610.223 223.442 610.102 223.49L609.985 223.539C609.834 223.602 609.683 223.666 609.532 223.734L609.473 223.758C609.313 223.831 609.191 223.89 609.069 223.948L608.928 224.016C608.787 224.085 608.64 224.158 608.494 224.231C608.334 224.314 608.192 224.387 608.051 224.464L607.915 224.538C607.798 224.601 607.681 224.669 607.564 224.732L607.476 224.781C607.34 224.859 607.199 224.942 607.062 225.029L606.95 225.098C606.833 225.171 606.726 225.239 606.619 225.307L606.502 225.38C606.366 225.468 606.234 225.555 606.098 225.643L606.01 225.702C605.903 225.775 605.796 225.848 605.684 225.926L605.552 226.018C605.44 226.096 605.328 226.179 605.216 226.262L605.177 226.291C605.031 226.403 604.905 226.5 604.778 226.598L604.656 226.69C604.559 226.768 604.461 226.846 604.364 226.924L604.257 227.012C604.135 227.114 604.013 227.216 603.892 227.319L603.794 227.401C603.697 227.484 603.604 227.567 603.512 227.65L603.4 227.752C603.278 227.864 603.161 227.971 603.044 228.083L602.991 228.137C602.893 228.234 602.791 228.332 602.693 228.429L602.577 228.546C602.489 228.634 602.396 228.731 602.304 228.824L602.27 228.863C602.27 228.863 602.236 228.897 602.236 228.902C602.124 229.018 602.016 229.135 601.909 229.252L601.817 229.359C601.729 229.457 601.646 229.549 601.568 229.637L601.471 229.744C601.364 229.866 601.266 229.988 601.164 230.109L601.096 230.197C601.003 230.309 600.93 230.402 600.852 230.499L600.75 230.631C600.662 230.743 600.575 230.86 600.487 230.972L600.419 231.064C600.336 231.176 600.253 231.288 600.171 231.405L600.068 231.546C600.005 231.639 599.932 231.741 599.864 231.843L599.786 231.96C599.703 232.087 599.615 232.218 599.528 232.35L599.445 232.477C599.382 232.579 599.318 232.676 599.255 232.778L599.172 232.915C599.089 233.051 599.006 233.188 598.929 233.324L598.87 233.431C598.812 233.533 598.748 233.645 598.69 233.757L598.607 233.908C598.544 234.025 598.485 234.137 598.422 234.254L598.393 234.313C598.3 234.517 598.13 234.688 597.92 234.785C597.657 234.907 597.351 234.902 597.092 234.775L595.081 233.782C594.852 233.67 594.677 233.465 594.594 233.222C594.511 232.978 594.535 232.71 594.652 232.481C595.958 229.919 597.652 227.587 599.693 225.546C604.861 220.378 611.728 217.534 619.039 217.534C621.089 217.534 623.125 217.763 625.113 218.211L623.457 209.332C623.403 209.049 623.481 208.762 623.661 208.543C623.846 208.324 624.114 208.197 624.401 208.197H627.114C629.082 208.197 630.904 209.692 631.264 211.606L633.095 221.42C634.245 222.112 635.35 222.891 636.388 223.739H643.733C645.885 223.739 647.639 225.492 647.639 227.645V230.592C647.639 231.123 647.21 231.551 646.679 231.551H642.934C644.317 234.016 645.296 236.66 645.856 239.427H659.187L654.18 225.989C654.068 225.687 654.112 225.351 654.302 225.088L655.967 222.794L651.749 219.75L649.616 222.701C649.027 223.515 647.887 223.7 647.074 223.11C646.26 222.521 646.075 221.381 646.665 220.568L648.798 217.617C648.598 217.466 648.462 217.246 648.423 216.998C648.384 216.745 648.442 216.487 648.593 216.282L649.451 215.094C649.602 214.889 649.826 214.748 650.079 214.709C650.327 214.67 650.576 214.728 650.78 214.87L652.509 212.473C653.099 211.66 654.238 211.475 655.052 212.064C655.865 212.653 656.05 213.793 655.461 214.607L653.732 217.003L657.95 220.052L658.013 219.964C658.709 219 659.815 219 660.18 219H675.596V218.893C674.758 218.469 674.198 217.597 674.198 216.613V210.233C674.198 209.249 674.763 208.377 675.596 207.953V204.033C675.596 204.033 675.596 204.003 675.596 203.989C675.479 203.925 675.216 203.818 674.68 203.731C674.159 203.648 673.798 203.156 673.881 202.63L674.368 199.566C674.407 199.313 674.548 199.089 674.753 198.938C674.958 198.787 675.216 198.729 675.469 198.768C677.037 199.021 678.279 199.571 679.156 200.414C680.125 201.339 680.617 202.523 680.622 203.925C680.622 203.96 680.627 203.994 680.627 204.028V207.875C681.542 208.265 682.185 209.181 682.185 210.228V216.608C682.185 217.656 681.538 218.566 680.627 218.961V218.995H686.988C689.545 218.995 692.024 220.062 693.792 221.922C695.453 223.671 696.3 225.916 696.183 228.239L695.92 233.314C699.164 234.249 702.125 235.998 704.531 238.404C704.643 238.516 704.755 238.628 704.863 238.745C705.038 238.93 705.135 239.178 705.13 239.432C705.126 239.685 705.018 239.928 704.833 240.104L703.494 241.38C703.109 241.745 702.5 241.731 702.135 241.346C699.033 238.092 694.849 236.305 690.358 236.305C681.382 236.305 674.081 243.606 674.081 252.582C674.081 253.688 674.193 254.793 674.412 255.865C674.47 256.147 674.397 256.44 674.217 256.664C674.032 256.888 673.759 257.019 673.472 257.019H671.587C671.124 257.019 670.725 256.688 670.642 256.23C670.52 255.558 670.428 254.881 670.374 254.199H644.775C644.453 255.086 644.083 255.957 643.674 256.805C643.513 257.136 643.177 257.345 642.807 257.345L642.875 257.35ZM641.911 255.431H642.262C642.632 254.618 642.958 253.785 643.241 252.942C643.372 252.548 643.737 252.285 644.151 252.285H671.344C671.738 252.285 672.074 252.519 672.225 252.86C672.225 252.772 672.225 252.679 672.225 252.592C672.225 242.559 680.388 234.391 690.426 234.391C691.79 234.391 693.129 234.537 694.425 234.824C694.172 234.639 694.016 234.332 694.035 234.001L694.337 228.151C694.43 226.359 693.768 224.62 692.472 223.257C691.064 221.776 689.097 220.928 687.066 220.928H679.745C679.214 220.928 678.786 220.5 678.786 219.969V218.216C678.786 217.694 679.205 217.266 679.726 217.256C680.067 217.246 680.344 216.964 680.344 216.623V210.243C680.344 209.902 680.067 209.614 679.726 209.609C679.205 209.6 678.786 209.171 678.786 208.65V204.15C678.786 204.111 678.781 204.072 678.781 204.033C678.796 203.117 678.508 202.396 677.909 201.821C677.49 201.417 676.911 201.11 676.19 200.896L676.005 202.065C676.467 202.216 676.823 202.411 677.086 202.669C677.329 202.903 677.617 203.331 677.602 204.042C677.602 204.072 677.602 204.101 677.597 204.13V208.665C677.597 209.152 677.237 209.561 676.755 209.619C676.443 209.658 676.2 209.936 676.2 210.247V216.628C676.2 216.94 676.443 217.217 676.755 217.256C677.237 217.315 677.597 217.724 677.597 218.211V219.974C677.597 220.505 677.169 220.933 676.638 220.933H660.263C659.776 220.933 659.698 221.041 659.654 221.104L659.026 221.971C658.856 222.209 658.593 222.346 658.325 222.365C658.33 222.39 658.334 222.414 658.339 222.438C658.378 222.692 658.32 222.95 658.169 223.154L656.24 225.809L661.549 240.06C661.661 240.357 661.617 240.683 661.437 240.942C661.257 241.2 660.964 241.356 660.648 241.356H645.135C644.668 241.356 644.268 241.019 644.19 240.557C643.64 237.367 642.5 234.347 640.801 231.58C640.645 231.327 640.615 231.02 640.718 230.743L640.898 230.26C641.039 229.881 641.395 229.632 641.799 229.632H645.803V227.645C645.803 226.549 644.911 225.658 643.815 225.658H636.125C635.896 225.658 635.677 225.58 635.506 225.434C634.362 224.469 633.129 223.602 631.834 222.857C631.59 222.716 631.42 222.477 631.371 222.2L629.462 211.957C629.277 210.963 628.239 210.121 627.202 210.121H625.643L627.363 219.341C627.426 219.667 627.309 220.003 627.066 220.227C626.817 220.451 626.471 220.529 626.155 220.441C623.88 219.789 621.513 219.458 619.127 219.458C612.332 219.458 605.947 222.102 601.14 226.91C599.474 228.575 598.052 230.455 596.907 232.501L597.195 232.642C597.224 232.589 597.253 232.535 597.287 232.481L597.351 232.369C597.438 232.218 597.526 232.072 597.614 231.926L597.706 231.775C597.769 231.673 597.838 231.566 597.906 231.459L597.993 231.322C598.091 231.171 598.183 231.03 598.276 230.889L598.354 230.777C598.432 230.665 598.505 230.558 598.578 230.45L598.685 230.299C598.778 230.173 598.865 230.046 598.958 229.924L599.031 229.827C599.123 229.7 599.221 229.579 599.313 229.457L599.396 229.35C599.503 229.213 599.586 229.111 599.669 229.009L599.761 228.897C599.869 228.765 599.981 228.634 600.093 228.507L600.195 228.39C600.283 228.288 600.37 228.19 600.458 228.093L600.57 227.971C600.682 227.845 600.804 227.718 600.921 227.596L600.969 227.548C601.096 227.416 601.193 227.314 601.296 227.216L601.417 227.095C601.525 226.987 601.632 226.885 601.739 226.783L601.797 226.724C601.929 226.598 602.055 226.481 602.187 226.364L602.309 226.257C602.411 226.164 602.508 226.077 602.611 225.989L602.718 225.892C602.849 225.78 602.981 225.668 603.112 225.556L603.224 225.463C603.327 225.375 603.434 225.292 603.541 225.21L603.668 225.107C603.809 225 603.945 224.893 604.082 224.791L604.145 224.742C604.267 224.65 604.388 224.562 604.515 224.474L604.651 224.377C604.768 224.294 604.89 224.211 605.007 224.128L605.095 224.065C605.241 223.963 605.387 223.87 605.538 223.773L605.66 223.695C605.781 223.617 605.898 223.549 606.015 223.476L606.147 223.398C606.293 223.31 606.449 223.218 606.6 223.13L606.692 223.076C606.819 223.003 606.945 222.935 607.072 222.862L607.218 222.784C607.374 222.701 607.525 222.619 607.681 222.541C607.861 222.448 608.017 222.37 608.173 222.297L608.314 222.229C608.446 222.166 608.577 222.102 608.709 222.044L608.816 221.995C608.972 221.922 609.137 221.854 609.303 221.781L609.425 221.727C609.556 221.674 609.688 221.62 609.819 221.567L609.96 221.508C610.126 221.445 610.292 221.381 610.462 221.318C610.467 221.318 610.511 221.299 610.516 221.299C610.691 221.235 610.837 221.182 610.988 221.133L611.129 221.084C611.29 221.031 611.446 220.982 611.602 220.928L611.655 220.914C611.835 220.86 612.011 220.807 612.186 220.758L612.327 220.719C612.473 220.68 612.615 220.641 612.761 220.602L613.058 221.518L612.81 220.588L612.878 220.568C613.053 220.524 613.233 220.48 613.414 220.437L613.545 220.407C613.686 220.373 613.832 220.344 613.983 220.315L614.115 220.286C614.305 220.247 614.485 220.213 614.67 220.178L614.733 220.169C614.889 220.139 615.06 220.115 615.23 220.086L615.381 220.062C615.547 220.037 615.708 220.013 615.868 219.993L615.946 219.984C616.141 219.959 616.326 219.94 616.516 219.92L616.657 219.906C616.808 219.891 616.954 219.876 617.101 219.867L617.251 219.857C617.437 219.842 617.627 219.833 617.812 219.823H617.88C618.079 219.808 618.235 219.803 618.391 219.799H618.552C618.951 219.784 619.356 219.784 619.755 219.799H619.813C620.003 219.803 620.193 219.813 620.383 219.823H620.456C620.641 219.837 620.831 219.847 621.021 219.862H621.08C621.289 219.881 621.494 219.901 621.693 219.92C621.908 219.94 622.107 219.964 622.302 219.988L622.37 219.998C622.551 220.023 622.731 220.047 622.916 220.076L622.999 220.091C623.174 220.12 623.349 220.149 623.525 220.178L623.608 220.193C623.793 220.227 623.978 220.261 624.163 220.3L624.236 220.315C624.406 220.349 624.582 220.388 624.752 220.427L624.869 220.456C625.025 220.49 625.186 220.529 625.346 220.573L625.463 220.602C625.624 220.646 625.78 220.685 625.936 220.729L626.043 220.758C626.208 220.807 626.364 220.851 626.52 220.899L626.686 220.948C626.832 220.997 626.978 221.041 627.119 221.089L627.241 221.128C627.416 221.187 627.548 221.235 627.679 221.284L627.855 221.347C627.976 221.391 628.103 221.44 628.23 221.489L628.459 221.581C628.566 221.625 628.673 221.669 628.78 221.713L629.033 221.82C629.145 221.869 629.257 221.917 629.369 221.966L629.593 222.068C629.701 222.117 629.808 222.166 629.91 222.214L630.426 222.468C630.533 222.521 630.641 222.58 630.748 222.633L630.918 222.721C631.04 222.789 631.157 222.847 631.269 222.911L631.444 223.008C631.556 223.072 631.663 223.135 631.775 223.198L631.965 223.31C632.107 223.393 632.253 223.481 632.394 223.568L632.496 223.632C632.628 223.714 632.75 223.792 632.876 223.875L632.969 223.938C633.1 224.026 633.227 224.114 633.358 224.201L633.402 224.236C633.763 224.484 634.113 224.742 634.449 225C634.586 225.107 634.722 225.215 634.858 225.322C635.009 225.443 635.136 225.551 635.268 225.658C635.272 225.658 635.277 225.668 635.282 225.672C637.888 227.864 639.992 230.514 641.531 233.543C641.599 233.675 641.663 233.806 641.731 233.943L641.794 234.079C641.862 234.22 641.926 234.361 641.989 234.503L642.052 234.644C642.116 234.79 642.179 234.936 642.242 235.082L642.286 235.189C642.349 235.34 642.413 235.491 642.471 235.637L642.515 235.745C642.578 235.905 642.637 236.066 642.695 236.222L642.734 236.324C642.793 236.485 642.851 236.646 642.905 236.806L642.934 236.894C642.992 237.06 643.046 237.225 643.095 237.396L643.119 237.469C643.172 237.644 643.226 237.824 643.28 238.009L643.299 238.073C643.348 238.243 643.397 238.423 643.44 238.599L643.455 238.662C643.499 238.837 643.543 239.018 643.586 239.198L643.601 239.256C643.645 239.451 643.684 239.636 643.728 239.826C643.728 239.826 643.737 239.875 643.737 239.88C643.762 239.992 643.786 240.109 643.806 240.23C643.806 240.25 643.81 240.269 643.815 240.284C644.025 241.419 644.161 242.573 644.215 243.727C644.215 243.732 644.215 243.742 644.215 243.752C644.215 243.766 644.215 243.776 644.215 243.786C644.215 243.796 644.215 243.805 644.215 243.82C644.215 243.83 644.215 243.839 644.215 243.844C644.215 243.844 644.215 243.859 644.215 243.864C644.215 243.869 644.215 243.878 644.215 243.888C644.215 243.903 644.215 243.913 644.215 243.917C644.215 243.927 644.215 243.971 644.215 243.981C644.215 243.99 644.215 244.029 644.215 244.039C644.215 244.049 644.215 244.083 644.215 244.093V244.239C644.215 244.239 644.22 244.292 644.22 244.302C644.22 244.312 644.22 244.361 644.22 244.37C644.22 244.385 644.22 244.419 644.22 244.439V244.56C644.22 244.56 644.22 244.599 644.22 244.619V244.896V245.023L643.26 245.077H644.22C644.22 245.077 644.22 245.12 644.22 245.135C644.22 245.145 644.22 245.189 644.22 245.198C644.22 245.208 644.22 245.242 644.22 245.252C644.22 245.267 644.22 245.33 644.22 245.344V245.413V245.53C644.22 245.53 644.22 245.588 644.22 245.593L644.21 245.963C644.21 245.963 644.21 245.963 644.21 245.973C644.21 245.982 644.21 245.997 644.21 246.007C644.21 246.017 644.21 246.026 644.21 246.036V246.09L644.205 246.143C644.205 246.153 644.205 246.241 644.2 246.25C644.2 246.26 644.2 246.294 644.2 246.304V246.358C644.2 246.358 644.195 246.416 644.195 246.421L644.151 247.015C644.151 247.015 644.151 247.069 644.147 247.074V247.127C644.147 247.127 644.137 247.2 644.137 247.205C644.137 247.215 644.132 247.278 644.127 247.288C644.127 247.293 644.127 247.298 644.127 247.302C644.127 247.302 644.127 247.356 644.122 247.361C644.122 247.371 644.117 247.414 644.117 247.424C644.117 247.439 644.117 247.453 644.117 247.468L644.103 247.59C644.035 248.233 643.942 248.866 643.825 249.499C643.825 249.509 643.825 249.519 643.825 249.523C643.567 250.911 643.192 252.285 642.705 253.6C642.642 253.77 642.578 253.941 642.51 254.111C642.427 254.316 642.354 254.496 642.281 254.672C642.193 254.881 642.116 255.056 642.038 255.227C642.004 255.305 641.969 255.378 641.935 255.451L641.911 255.431ZM651.136 217.173C651.141 217.198 651.146 217.222 651.15 217.246C651.165 217.349 651.165 217.456 651.15 217.558C651.267 217.5 651.394 217.461 651.521 217.451C651.516 217.427 651.511 217.402 651.506 217.378C651.491 217.276 651.491 217.168 651.506 217.066C651.413 217.115 651.316 217.149 651.214 217.164C651.189 217.164 651.165 217.168 651.136 217.173Z" fill="#722875"/>
<path d="M649.783 480.367C648.662 480.367 647.547 480.357 646.432 480.328L646.412 480.309C647.542 480.348 648.653 480.367 649.783 480.367Z" fill="#722875"/>
<path fill-rule="evenodd" clip-rule="evenodd" d="M728.883 415.087H739.462C741.863 415.087 743.826 416.981 743.826 419.29V428.924H728.011C726.55 428.924 725.352 427.77 725.352 426.362V423.016C725.352 421.706 726.462 420.634 727.826 420.634H736.598L735.668 422.583H729.214C728.927 422.583 728.62 422.792 728.62 423.094V425.724C728.62 426.026 728.927 426.235 729.214 426.235H740.412V419.918C740.412 418.696 739.321 417.761 738.108 417.761H727.607L728.888 415.077L728.883 415.087ZM665.557 412.072V410.021H662.137V414.015L665.557 412.072ZM662.142 415.964L665.561 414.02V428.929H662.142V415.964ZM682.779 415.087C685.18 415.087 687.143 416.981 687.143 419.29V428.924H683.724V419.928C683.724 418.706 682.633 417.77 681.42 417.77H673.213V428.924H669.794V415.092C674.109 415.092 678.444 415.087 682.774 415.087H682.779ZM726.501 415.087H717.929C715.528 415.087 713.565 416.981 713.565 419.29V428.924H716.984V419.928C716.984 418.706 718.075 417.77 719.288 417.77H725.211L726.506 415.087H726.501ZM611.786 428.929H615.205V419.295C615.205 416.981 613.242 415.092 610.841 415.092H588.451V428.929H591.87V418.287C591.87 417.985 592.182 417.77 592.469 417.77H599.527C599.814 417.77 600.121 417.985 600.121 418.287V428.929H603.54V418.287C603.54 417.985 603.847 417.77 604.134 417.77H609.487C610.7 417.77 611.791 418.706 611.791 419.928V428.924L611.786 428.929ZM640.269 410.056V428.929H643.688V410.056H640.269ZM654.481 428.924H657.9V419.295C657.9 416.981 655.937 415.092 653.536 415.092H646.279L644.988 417.775H652.182C653.395 417.775 654.486 418.71 654.486 419.933V428.929L654.481 428.924ZM708.675 410.056V428.929H693.25C691.789 428.929 690.591 427.775 690.591 426.367V419.295C690.591 416.981 692.554 415.092 694.955 415.092H703.742L702.446 417.775H696.309C695.096 417.775 694.005 418.71 694.005 419.933V425.734C694.005 426.036 694.312 426.245 694.6 426.245H705.251V410.056H708.67H708.675ZM621.751 415.087H632.33C634.731 415.087 636.694 416.981 636.694 419.29V428.924H620.879C619.418 428.924 618.22 427.77 618.22 426.362V423.016C618.22 421.706 619.33 420.634 620.689 420.634H629.461L628.531 422.583H622.077C621.79 422.583 621.483 422.792 621.483 423.094V425.724C621.483 426.026 621.79 426.235 622.077 426.235H633.275V419.918C633.275 418.696 632.184 417.761 630.971 417.761H620.47L621.751 415.077V415.087Z" fill="#D80F20"/>
<path d="M562.425 415.369C563.194 415.209 564.407 415.087 565.634 415.087C567.393 415.087 568.523 415.389 569.37 416.076C570.076 416.602 570.5 417.405 570.5 418.477C570.5 419.792 569.633 420.941 568.196 421.467V421.506C569.487 421.833 571.002 422.899 571.002 424.921C571.002 426.089 570.534 426.981 569.852 427.648C568.903 428.515 567.368 428.919 565.147 428.919C563.935 428.919 563.009 428.836 562.42 428.758V415.369H562.425ZM564.183 420.946H565.781C567.641 420.946 568.727 419.977 568.727 418.662C568.727 417.064 567.514 416.441 565.737 416.441C564.928 416.441 564.466 416.499 564.183 416.563V420.946ZM564.183 427.468C564.529 427.526 565.031 427.551 565.659 427.551C567.476 427.551 569.151 426.883 569.151 424.906C569.151 423.045 567.553 422.281 565.634 422.281H564.183V427.473V427.468Z" fill="#414241"/>
<path d="M576.105 428.803V423.026L571.805 415.189H573.802L575.721 418.949C576.247 419.977 576.651 420.81 577.075 421.755H577.114C577.498 420.864 577.961 419.977 578.487 418.949L580.445 415.189H582.447L577.883 423.007V428.803H576.105Z" fill="#414241"/>
<defs>
<filter id="filter0_d_2258_12847" x="85" y="87" width="1750" height="542.451" filterUnits="userSpaceOnUse" color-interpolation-filters="sRGB">
<feFlood flood-opacity="0" result="BackgroundImageFix"/>
<feColorMatrix in="SourceAlpha" type="matrix" values="0 0 0 0 0 0 0 0 0 0 0 0 0 0 0 0 0 0 127 0" result="hardAlpha"/>
<feOffset dy="60.4515"/>
<feComposite in2="hardAlpha" operator="out"/>
<feColorMatrix type="matrix" values="0 0 0 0 0.890196 0 0 0 0 0.372549 0 0 0 0 0.14902 0 0 0 1 0"/>
<feBlend mode="normal" in2="BackgroundImageFix" result="effect1_dropShadow_2258_12847"/>
<feBlend mode="normal" in="SourceGraphic" in2="effect1_dropShadow_2258_12847" result="shape"/>
</filter>
</defs>
</svg>
