<svg width="1921" height="630" viewBox="0 0 1921 630" fill="none" xmlns="http://www.w3.org/2000/svg">
<rect width="1921" height="629" fill="#722875"/>
<g filter="url(#filter0_d_2258_12659)">
<path d="M85 96.4455C85 91.2289 89.2289 87 94.4455 87H1825.55C1830.77 87 1835 91.2289 1835 96.4455V569H85V96.4455Z" fill="#FBFBFB"/>
</g>
<path d="M1021.09 203.282V243.82H1012.96V203.282H1021.09ZM1063.8 243.82H1055.67L1037.26 216.001V243.82H1029.12V203.224H1037.26L1055.67 231.101V203.224H1063.8V243.82ZM1086 203.282C1090.26 203.282 1094 204.115 1097.21 205.78C1100.46 207.444 1102.96 209.826 1104.7 212.923C1106.48 215.982 1107.38 219.544 1107.38 223.609C1107.38 227.675 1106.48 231.237 1104.7 234.296C1102.96 237.316 1100.46 239.658 1097.21 241.323C1094 242.988 1090.26 243.82 1086 243.82H1071.83V203.282H1086ZM1085.71 236.909C1089.97 236.909 1093.26 235.748 1095.59 233.424C1097.91 231.101 1099.07 227.83 1099.07 223.609C1099.07 219.389 1097.91 216.098 1095.59 213.736C1093.26 211.336 1089.97 210.135 1085.71 210.135H1079.96V236.909H1085.71ZM1121.59 203.282V243.82H1113.46V203.282H1121.59ZM1154.48 236.096H1138.34L1135.67 243.82H1127.13L1141.71 203.224H1151.17L1165.75 243.82H1157.15L1154.48 236.096ZM1152.28 229.591L1146.41 212.633L1140.54 229.591H1152.28ZM1172.83 203.282H1181.36L1175.09 217.918H1169.51L1172.83 203.282ZM1201.19 244.227C1198.36 244.227 1195.81 243.743 1193.52 242.775C1191.28 241.807 1189.5 240.413 1188.18 238.593C1186.86 236.774 1186.19 234.625 1186.15 232.147H1194.86C1194.98 233.812 1195.56 235.128 1196.6 236.096C1197.69 237.064 1199.16 237.548 1201.02 237.548C1202.91 237.548 1204.4 237.103 1205.49 236.212C1206.57 235.283 1207.11 234.083 1207.11 232.611C1207.11 231.411 1206.75 230.424 1206.01 229.649C1205.27 228.875 1204.35 228.275 1203.22 227.849C1202.14 227.384 1200.63 226.881 1198.69 226.339C1196.06 225.565 1193.91 224.81 1192.25 224.074C1190.62 223.3 1189.21 222.157 1188.01 220.647C1186.84 219.099 1186.26 217.047 1186.26 214.491C1186.26 212.091 1186.86 210 1188.06 208.219C1189.26 206.438 1190.95 205.083 1193.12 204.153C1195.29 203.185 1197.76 202.701 1200.55 202.701C1204.73 202.701 1208.12 203.727 1210.71 205.78C1213.35 207.793 1214.8 210.619 1215.07 214.259H1206.13C1206.05 212.865 1205.45 211.723 1204.33 210.832C1203.24 209.903 1201.79 209.438 1199.97 209.438C1198.38 209.438 1197.1 209.845 1196.14 210.658C1195.21 211.471 1194.74 212.652 1194.74 214.201C1194.74 215.285 1195.09 216.195 1195.79 216.93C1196.52 217.627 1197.41 218.208 1198.46 218.673C1199.54 219.099 1201.05 219.602 1202.99 220.183C1205.62 220.957 1207.77 221.731 1209.44 222.506C1211.1 223.28 1212.53 224.442 1213.73 225.991C1214.93 227.539 1215.53 229.572 1215.53 232.089C1215.53 234.257 1214.97 236.27 1213.85 238.129C1212.73 239.987 1211.08 241.478 1208.91 242.601C1206.75 243.685 1204.17 244.227 1201.19 244.227Z" fill="black"/>
<path d="M1126.76 417.359H1104.39L1037.09 315.52V417.359H1014.72V280.788H1037.09L1104.39 382.432V280.788H1126.76V417.359ZM1203.03 419.125C1192.83 419.125 1183.61 416.836 1175.37 412.258C1167.12 407.548 1160.65 401.007 1155.94 392.635C1151.23 384.132 1148.88 374.321 1148.88 363.202C1148.88 352.213 1151.3 342.468 1156.14 333.965C1160.98 325.462 1167.58 318.921 1175.95 314.342C1184.33 309.764 1193.68 307.474 1204.01 307.474C1214.35 307.474 1223.7 309.764 1232.07 314.342C1240.45 318.921 1247.05 325.462 1251.89 333.965C1256.73 342.468 1259.15 352.213 1259.15 363.202C1259.15 374.19 1256.67 383.936 1251.7 392.439C1246.72 400.942 1239.92 407.548 1231.29 412.258C1222.79 416.836 1213.37 419.125 1203.03 419.125ZM1203.03 399.699C1208.79 399.699 1214.15 398.326 1219.12 395.579C1224.22 392.831 1228.35 388.711 1231.48 383.217C1234.62 377.722 1236.19 371.051 1236.19 363.202C1236.19 355.353 1234.69 348.747 1231.68 343.383C1228.67 337.889 1224.68 333.768 1219.71 331.021C1214.74 328.274 1209.38 326.901 1203.62 326.901C1197.87 326.901 1192.5 328.274 1187.53 331.021C1182.69 333.768 1178.83 337.889 1175.95 343.383C1173.08 348.747 1171.64 355.353 1171.64 363.202C1171.64 374.844 1174.58 383.871 1180.47 390.281C1186.48 396.56 1194.01 399.699 1203.03 399.699Z" fill="#E35F26"/>
<path d="M1290.29 418.733C1286.24 418.733 1282.84 417.359 1280.09 414.612C1277.34 411.865 1275.97 408.464 1275.97 404.409C1275.97 400.353 1277.34 396.952 1280.09 394.205C1282.84 391.458 1286.24 390.084 1290.29 390.084C1294.22 390.084 1297.55 391.458 1300.3 394.205C1303.05 396.952 1304.42 400.353 1304.42 404.409C1304.42 408.464 1303.05 411.865 1300.3 414.612C1297.55 417.359 1294.22 418.733 1290.29 418.733Z" fill="black"/>
<rect x="1008.95" y="480.465" width="387.486" height="49.0703" fill="#722875"/>
<path d="M1035.23 513.235C1034.19 513.235 1033.25 513.056 1032.41 512.697C1031.57 512.323 1030.91 511.799 1030.43 511.126C1029.95 510.453 1029.72 509.668 1029.72 508.77H1032.45C1032.51 509.443 1032.77 509.997 1033.24 510.431C1033.72 510.864 1034.38 511.081 1035.23 511.081C1036.12 511.081 1036.81 510.872 1037.3 510.453C1037.79 510.019 1038.04 509.466 1038.04 508.793C1038.04 508.269 1037.88 507.843 1037.57 507.514C1037.27 507.185 1036.89 506.93 1036.42 506.751C1035.98 506.571 1035.35 506.377 1034.54 506.168C1033.52 505.898 1032.69 505.629 1032.05 505.36C1031.42 505.076 1030.88 504.642 1030.43 504.058C1029.98 503.475 1029.76 502.697 1029.76 501.725C1029.76 500.828 1029.98 500.042 1030.43 499.369C1030.88 498.696 1031.51 498.18 1032.32 497.821C1033.13 497.462 1034.06 497.282 1035.12 497.282C1036.63 497.282 1037.87 497.664 1038.82 498.427C1039.8 499.175 1040.34 500.207 1040.44 501.523H1037.61C1037.57 500.955 1037.3 500.469 1036.81 500.065C1036.31 499.661 1035.66 499.459 1034.85 499.459C1034.12 499.459 1033.52 499.646 1033.06 500.02C1032.59 500.394 1032.36 500.932 1032.36 501.635C1032.36 502.114 1032.51 502.51 1032.79 502.824C1033.09 503.124 1033.46 503.363 1033.91 503.542C1034.36 503.722 1034.97 503.916 1035.75 504.126C1036.78 504.41 1037.62 504.694 1038.26 504.978C1038.92 505.263 1039.48 505.704 1039.92 506.302C1040.39 506.886 1040.62 507.671 1040.62 508.658C1040.62 509.451 1040.4 510.199 1039.97 510.902C1039.55 511.605 1038.93 512.173 1038.11 512.607C1037.3 513.026 1036.34 513.235 1035.23 513.235ZM1046.2 499.549V504.126H1051.58V506.212H1046.2V510.991H1052.25V513.078H1043.64V497.462H1052.25V499.549H1046.2ZM1054.55 505.248C1054.55 503.722 1054.9 502.353 1055.61 501.142C1056.32 499.93 1057.29 498.988 1058.5 498.315C1059.73 497.627 1061.07 497.282 1062.52 497.282C1064.18 497.282 1065.65 497.694 1066.94 498.517C1068.24 499.324 1069.18 500.476 1069.76 501.972H1066.69C1066.29 501.149 1065.73 500.536 1065.01 500.132C1064.29 499.728 1063.46 499.526 1062.52 499.526C1061.48 499.526 1060.56 499.758 1059.76 500.222C1058.95 500.685 1058.31 501.351 1057.85 502.219C1057.4 503.086 1057.18 504.096 1057.18 505.248C1057.18 506.399 1057.4 507.409 1057.85 508.277C1058.31 509.144 1058.95 509.817 1059.76 510.296C1060.56 510.76 1061.48 510.991 1062.52 510.991C1063.46 510.991 1064.29 510.79 1065.01 510.386C1065.73 509.982 1066.29 509.369 1066.69 508.546H1069.76C1069.18 510.042 1068.24 511.193 1066.94 512.001C1065.65 512.809 1064.18 513.213 1062.52 513.213C1061.05 513.213 1059.71 512.876 1058.5 512.203C1057.29 511.515 1056.32 510.565 1055.61 509.354C1054.9 508.142 1054.55 506.773 1054.55 505.248ZM1079.87 513.235C1078.42 513.235 1077.08 512.899 1075.85 512.226C1074.64 511.537 1073.68 510.588 1072.96 509.376C1072.26 508.149 1071.91 506.773 1071.91 505.248C1071.91 503.722 1072.26 502.353 1072.96 501.142C1073.68 499.93 1074.64 498.988 1075.85 498.315C1077.08 497.627 1078.42 497.282 1079.87 497.282C1081.34 497.282 1082.67 497.627 1083.89 498.315C1085.11 498.988 1086.08 499.93 1086.78 501.142C1087.48 502.353 1087.84 503.722 1087.84 505.248C1087.84 506.773 1087.48 508.149 1086.78 509.376C1086.08 510.588 1085.11 511.537 1083.89 512.226C1082.67 512.899 1081.34 513.235 1079.87 513.235ZM1079.87 511.014C1080.9 511.014 1081.82 510.782 1082.63 510.318C1083.44 509.84 1084.07 509.167 1084.51 508.299C1084.98 507.417 1085.21 506.399 1085.21 505.248C1085.21 504.096 1084.98 503.086 1084.51 502.219C1084.07 501.351 1083.44 500.685 1082.63 500.222C1081.82 499.758 1080.9 499.526 1079.87 499.526C1078.84 499.526 1077.92 499.758 1077.11 500.222C1076.3 500.685 1075.67 501.351 1075.2 502.219C1074.75 503.086 1074.53 504.096 1074.53 505.248C1074.53 506.399 1074.75 507.417 1075.2 508.299C1075.67 509.167 1076.3 509.84 1077.11 510.318C1077.92 510.782 1078.84 511.014 1079.87 511.014ZM1103.16 513.078H1100.61L1092.91 501.433V513.078H1090.35V497.462H1092.91L1100.61 509.084V497.462H1103.16V513.078ZM1111.62 497.484C1113.28 497.484 1114.73 497.806 1115.97 498.449C1117.23 499.077 1118.19 499.99 1118.86 501.187C1119.55 502.368 1119.9 503.752 1119.9 505.337C1119.9 506.923 1119.55 508.299 1118.86 509.466C1118.19 510.632 1117.23 511.53 1115.97 512.158C1114.73 512.771 1113.28 513.078 1111.62 513.078H1106.52V497.484H1111.62ZM1111.62 510.991C1113.44 510.991 1114.84 510.498 1115.81 509.511C1116.78 508.523 1117.27 507.132 1117.27 505.337C1117.27 503.527 1116.78 502.114 1115.81 501.097C1114.84 500.08 1113.44 499.571 1111.62 499.571H1109.08V510.991H1111.62ZM1140.71 497.484V513.078H1138.15V506.257H1130.82V513.078H1128.26V497.484H1130.82V504.171H1138.15V497.484H1140.71ZM1153.48 509.892H1146.95L1145.83 513.078H1143.16L1148.75 497.462H1151.71L1157.29 513.078H1154.6L1153.48 509.892ZM1152.76 507.805L1150.23 500.558L1147.67 507.805H1152.76ZM1172.53 513.078H1169.98L1162.28 501.433V513.078H1159.72V497.462H1162.28L1169.98 509.084V497.462H1172.53V513.078ZM1180.99 497.484C1182.65 497.484 1184.1 497.806 1185.34 498.449C1186.6 499.077 1187.56 499.99 1188.23 501.187C1188.92 502.368 1189.27 503.752 1189.27 505.337C1189.27 506.923 1188.92 508.299 1188.23 509.466C1187.56 510.632 1186.6 511.53 1185.34 512.158C1184.1 512.771 1182.65 513.078 1180.99 513.078H1175.89V497.484H1180.99ZM1180.99 510.991C1182.81 510.991 1184.21 510.498 1185.18 509.511C1186.15 508.523 1186.64 507.132 1186.64 505.337C1186.64 503.527 1186.15 502.114 1185.18 501.097C1184.21 500.08 1182.81 499.571 1180.99 499.571H1178.45V510.991H1180.99ZM1208.67 497.327V500.401H1204.49V513.078H1200.66V500.401H1196.48V497.327H1208.67ZM1218.63 513.078L1215.35 507.132H1214.43V513.078H1210.59V497.327H1217.03C1218.27 497.327 1219.33 497.544 1220.2 497.978C1221.08 498.412 1221.74 499.01 1222.17 499.773C1222.61 500.521 1222.82 501.359 1222.82 502.286C1222.82 503.333 1222.52 504.268 1221.92 505.091C1221.34 505.913 1220.47 506.497 1219.32 506.841L1222.96 513.078H1218.63ZM1214.43 504.417H1216.81C1217.51 504.417 1218.04 504.245 1218.38 503.901C1218.74 503.557 1218.92 503.071 1218.92 502.443C1218.92 501.845 1218.74 501.373 1218.38 501.029C1218.04 500.685 1217.51 500.513 1216.81 500.513H1214.43V504.417ZM1235.04 510.296H1229.16L1228.21 513.078H1224.2L1229.9 497.327H1234.34L1240.04 513.078H1235.98L1235.04 510.296ZM1234.05 507.334L1232.1 501.568L1230.17 507.334H1234.05ZM1241.12 505.18C1241.12 503.625 1241.46 502.241 1242.13 501.029C1242.81 499.803 1243.74 498.853 1244.94 498.18C1246.15 497.492 1247.52 497.148 1249.04 497.148C1250.91 497.148 1252.51 497.641 1253.84 498.629C1255.18 499.616 1256.07 500.962 1256.51 502.667H1252.3C1251.98 502.009 1251.53 501.508 1250.95 501.164C1250.38 500.82 1249.73 500.648 1249 500.648C1247.82 500.648 1246.86 501.059 1246.13 501.882C1245.39 502.705 1245.03 503.804 1245.03 505.18C1245.03 506.556 1245.39 507.656 1246.13 508.479C1246.86 509.301 1247.82 509.713 1249 509.713C1249.73 509.713 1250.38 509.541 1250.95 509.197C1251.53 508.852 1251.98 508.351 1252.3 507.693H1256.51C1256.07 509.398 1255.18 510.745 1253.84 511.732C1252.51 512.704 1250.91 513.19 1249.04 513.19C1247.52 513.19 1246.15 512.854 1244.94 512.181C1243.74 511.493 1242.81 510.543 1242.13 509.331C1241.46 508.12 1241.12 506.736 1241.12 505.18ZM1270.19 497.327V500.401H1266.02V513.078H1262.18V500.401H1258.01V497.327H1270.19ZM1279.57 513.235C1278.09 513.235 1276.73 512.891 1275.49 512.203C1274.26 511.515 1273.28 510.558 1272.55 509.331C1271.83 508.09 1271.47 506.699 1271.47 505.158C1271.47 503.617 1271.83 502.234 1272.55 501.007C1273.28 499.78 1274.26 498.823 1275.49 498.135C1276.73 497.447 1278.09 497.103 1279.57 497.103C1281.05 497.103 1282.4 497.447 1283.63 498.135C1284.87 498.823 1285.84 499.78 1286.55 501.007C1287.27 502.234 1287.62 503.617 1287.62 505.158C1287.62 506.699 1287.27 508.09 1286.55 509.331C1285.83 510.558 1284.86 511.515 1283.63 512.203C1282.4 512.891 1281.05 513.235 1279.57 513.235ZM1279.57 509.735C1280.83 509.735 1281.83 509.316 1282.58 508.479C1283.34 507.641 1283.72 506.534 1283.72 505.158C1283.72 503.767 1283.34 502.66 1282.58 501.837C1281.83 501 1280.83 500.581 1279.57 500.581C1278.3 500.581 1277.28 500.992 1276.52 501.815C1275.77 502.637 1275.4 503.752 1275.4 505.158C1275.4 506.549 1275.77 507.663 1276.52 508.501C1277.28 509.324 1278.3 509.735 1279.57 509.735ZM1297.79 513.078L1294.52 507.132H1293.6V513.078H1289.76V497.327H1296.2C1297.44 497.327 1298.49 497.544 1299.36 497.978C1300.24 498.412 1300.9 499.01 1301.34 499.773C1301.77 500.521 1301.99 501.359 1301.99 502.286C1301.99 503.333 1301.69 504.268 1301.09 505.091C1300.51 505.913 1299.64 506.497 1298.49 506.841L1302.12 513.078H1297.79ZM1293.6 504.417H1295.97C1296.68 504.417 1297.2 504.245 1297.54 503.901C1297.9 503.557 1298.08 503.071 1298.08 502.443C1298.08 501.845 1297.9 501.373 1297.54 501.029C1297.2 500.685 1296.68 500.513 1295.97 500.513H1293.6V504.417ZM1314.85 513.235C1313.7 513.235 1312.67 513.048 1311.75 512.674C1310.84 512.3 1310.11 511.747 1309.55 511.014C1309.02 510.281 1308.73 509.398 1308.7 508.366H1312.78C1312.84 508.95 1313.05 509.398 1313.39 509.713C1313.73 510.012 1314.18 510.161 1314.74 510.161C1315.31 510.161 1315.75 510.034 1316.08 509.78C1316.41 509.511 1316.58 509.144 1316.58 508.68C1316.58 508.292 1316.44 507.97 1316.17 507.716C1315.92 507.461 1315.6 507.252 1315.21 507.087C1314.83 506.923 1314.3 506.736 1313.59 506.527C1312.58 506.212 1311.75 505.898 1311.1 505.584C1310.46 505.27 1309.91 504.806 1309.44 504.193C1308.98 503.58 1308.75 502.78 1308.75 501.792C1308.75 500.326 1309.28 499.182 1310.34 498.359C1311.4 497.522 1312.78 497.103 1314.49 497.103C1316.23 497.103 1317.62 497.522 1318.69 498.359C1319.75 499.182 1320.32 500.334 1320.39 501.815H1316.24C1316.21 501.306 1316.02 500.91 1315.68 500.626C1315.34 500.326 1314.89 500.177 1314.36 500.177C1313.89 500.177 1313.52 500.304 1313.23 500.558C1312.95 500.798 1312.81 501.149 1312.81 501.613C1312.81 502.121 1313.05 502.518 1313.53 502.802C1314 503.086 1314.75 503.393 1315.77 503.722C1316.79 504.066 1317.61 504.395 1318.24 504.709C1318.88 505.023 1319.43 505.479 1319.9 506.078C1320.36 506.676 1320.59 507.446 1320.59 508.389C1320.59 509.286 1320.36 510.101 1319.9 510.834C1319.45 511.567 1318.79 512.151 1317.92 512.585C1317.06 513.018 1316.03 513.235 1314.85 513.235ZM1334.28 497.327V500.401H1330.11V513.078H1326.27V500.401H1322.1V497.327H1334.28ZM1343.66 513.235C1342.18 513.235 1340.82 512.891 1339.58 512.203C1338.35 511.515 1337.37 510.558 1336.64 509.331C1335.92 508.09 1335.56 506.699 1335.56 505.158C1335.56 503.617 1335.92 502.234 1336.64 501.007C1337.37 499.78 1338.35 498.823 1339.58 498.135C1340.82 497.447 1342.18 497.103 1343.66 497.103C1345.14 497.103 1346.49 497.447 1347.72 498.135C1348.96 498.823 1349.93 499.78 1350.64 501.007C1351.36 502.234 1351.71 503.617 1351.71 505.158C1351.71 506.699 1351.36 508.09 1350.64 509.331C1349.92 510.558 1348.95 511.515 1347.72 512.203C1346.49 512.891 1345.14 513.235 1343.66 513.235ZM1343.66 509.735C1344.92 509.735 1345.92 509.316 1346.67 508.479C1347.43 507.641 1347.81 506.534 1347.81 505.158C1347.81 503.767 1347.43 502.66 1346.67 501.837C1345.92 501 1344.92 500.581 1343.66 500.581C1342.39 500.581 1341.37 500.992 1340.61 501.815C1339.86 502.637 1339.49 503.752 1339.49 505.158C1339.49 506.549 1339.86 507.663 1340.61 508.501C1341.37 509.324 1342.39 509.735 1343.66 509.735ZM1361.88 513.078L1358.61 507.132H1357.69V513.078H1353.85V497.327H1360.29C1361.53 497.327 1362.58 497.544 1363.45 497.978C1364.33 498.412 1364.99 499.01 1365.43 499.773C1365.86 500.521 1366.08 501.359 1366.08 502.286C1366.08 503.333 1365.78 504.268 1365.18 505.091C1364.6 505.913 1363.73 506.497 1362.58 506.841L1366.21 513.078H1361.88ZM1357.69 504.417H1360.06C1360.77 504.417 1361.29 504.245 1361.63 503.901C1361.99 503.557 1362.17 503.071 1362.17 502.443C1362.17 501.845 1361.99 501.373 1361.63 501.029C1361.29 500.685 1360.77 500.513 1360.06 500.513H1357.69V504.417ZM1372.32 500.401V503.587H1377.46V506.549H1372.32V510.004H1378.13V513.078H1368.49V497.327H1378.13V500.401H1372.32Z" fill="white"/>
<path d="M1436.56 137.443V436H1354.06V240.366C1340.71 250.511 1327.76 258.721 1315.21 264.995C1302.8 271.27 1287.18 277.277 1268.35 283.017V216.137C1296.12 207.193 1317.68 196.447 1333.03 183.898C1348.38 171.35 1360.4 155.865 1369.07 137.443H1436.56Z" fill="#722875"/>
<path d="M832.691 257.309C832.014 259.861 830.378 261.994 828.084 263.314L821.124 267.318C823.92 274.477 826.253 281.817 828.064 289.235C827.626 289.138 827.183 289.035 826.74 288.943C817.388 285.46 807.827 282.28 798.096 279.411C797.682 278.262 797.244 277.117 796.781 275.973C794.346 269.753 791.535 263.733 788.345 257.947C787.269 255.994 786.153 254.06 784.994 252.146C776.203 237.651 765.137 224.71 752.274 213.8C751.056 212.763 749.844 211.75 748.607 210.771C743.439 206.646 737.998 202.837 732.315 199.364C730.42 198.21 728.486 197.094 726.533 196.013C711.956 187.962 695.946 182.176 678.977 179.127C669.884 177.471 660.533 176.614 650.982 176.614C649.925 176.614 648.887 176.633 647.83 176.653C630.443 176.994 613.732 180.164 598.18 185.746C595.448 186.706 592.759 187.762 590.085 188.878C583.364 191.727 576.906 195.02 570.701 198.746H570.681C570.423 198.887 570.184 199.028 569.946 199.184C555.432 207.98 542.447 219.065 531.542 231.928C530.504 233.122 529.506 234.339 528.512 235.576C524.382 240.759 520.554 246.204 517.105 251.888C515.946 253.782 514.831 255.716 513.754 257.669C509.722 264.955 506.264 272.592 503.444 280.541C493.595 283.537 483.932 286.853 474.488 290.482C474.157 290.555 473.826 290.633 473.495 290.711C475.151 283.731 477.245 276.849 479.758 270.113L510.822 261.556L511.236 260.84L512.936 257.908L512.766 257.957L484.108 265.822C483.245 266.066 482.369 266.183 481.492 266.183C479.758 266.183 478.044 265.725 476.548 264.868L473.855 263.314C471.561 261.994 469.929 259.861 469.248 257.309C468.571 254.757 468.911 252.088 470.227 249.813L488.35 218.408C490.127 215.359 493.396 213.464 496.927 213.464C498.661 213.464 500.375 213.922 501.87 214.799L508.83 218.807C512.917 213.722 517.286 208.857 521.952 204.21C525.897 200.26 530.007 196.515 534.274 192.945L565.387 201.083L565.441 201.098L569.089 198.984L569.108 198.965H569.127L569.848 198.526L569.571 198.458L538.76 190.972C537.523 190.67 536.446 189.935 535.73 188.897C535.711 188.897 535.711 188.878 535.711 188.878C535.073 188.259 534.532 187.563 534.094 186.803L532.54 184.11C529.827 179.405 531.444 173.326 536.169 170.613L567.554 152.485C569.05 151.609 570.764 151.151 572.498 151.151C576.029 151.151 579.297 153.065 581.051 156.119L585.059 163.035C596.388 158.646 608.072 155.417 619.995 153.386L642.945 176.015H647.192L647.066 175.893L625.898 155.018C624.023 153.167 622.966 150.615 622.966 147.98V144.892C622.966 139.427 627.394 135 632.834 135H669.105C674.55 135 678.977 139.427 678.977 144.892V152.904C690.959 154.74 702.663 157.77 714.07 161.978L722.622 193.066L725.467 194.713L726.275 195.18H726.295V195.166L718.356 166.366C717.659 163.834 718.02 161.062 719.335 158.788L720.888 156.094C722.642 153.065 725.934 151.151 729.441 151.151C731.18 151.151 732.894 151.609 734.389 152.485L765.795 170.613C770.5 173.346 772.136 179.405 769.404 184.11L765.376 191.089C770.441 195.18 775.326 199.544 779.968 204.21C783.918 208.141 787.688 212.266 791.219 216.513L783.119 247.68L785.213 251.328L792.753 222.416C793.43 219.864 795.105 217.648 797.38 216.333L800.069 214.799C801.564 213.922 803.278 213.464 805.017 213.464C808.524 213.464 811.816 215.359 813.57 218.408L831.693 249.813C833.032 252.088 833.368 254.757 832.691 257.309Z" fill="#722875"/>
<path d="M469.378 349.327L469.218 347.852C469.232 347.988 469.242 348.119 469.252 348.256C469.252 348.246 469.252 348.236 469.252 348.227L469.213 347.856C469.276 348.475 469.315 349.074 469.393 349.668C469.393 349.644 469.393 349.615 469.388 349.59V349.581C469.388 349.581 469.388 349.571 469.388 349.561C469.388 349.595 469.393 349.634 469.398 349.668C469.398 349.546 469.378 349.43 469.378 349.327Z" fill="#722875"/>
<path d="M818.66 403.8V403.78C818.694 403.702 818.728 403.629 818.757 403.551C818.757 403.546 818.762 403.537 818.767 403.532C818.767 403.522 818.777 403.512 818.782 403.502C818.831 403.39 818.879 403.278 818.923 403.166C818.972 403.04 819.025 402.913 819.079 402.786C819.089 402.762 819.098 402.743 819.103 402.723C819.176 402.528 819.264 402.348 819.337 402.153L819.245 402.373L819.254 402.353L818.641 403.77C818.641 403.77 818.621 403.79 818.621 403.809H818.66V403.8Z" fill="#722875"/>
<path d="M831.806 415.002C831.771 415.065 831.733 415.124 831.698 415.187L813.575 446.573C811.822 449.622 808.529 451.516 805.023 451.516C803.284 451.516 801.569 451.059 800.074 450.201L793.095 446.173C788.989 451.239 784.639 456.104 779.973 460.77C776.028 464.716 771.942 468.485 767.695 472.017L736.528 463.902L732.861 466.016L761.792 473.551C764.344 474.208 766.536 475.903 767.851 478.178L769.409 480.871C772.142 485.596 770.505 491.635 765.8 494.367L734.395 512.495C732.9 513.372 731.185 513.83 729.447 513.83C725.94 513.83 722.647 511.935 720.894 508.882L716.866 501.926C705.542 506.329 693.858 509.563 681.934 511.594L658.985 488.966H654.757L676.051 509.963C677.926 511.814 678.983 514.366 678.983 517.001V520.108C678.983 525.553 674.556 530 669.11 530H632.84C627.399 530 622.972 525.553 622.972 520.108V512.077H622.952C610.985 510.24 599.262 507.191 587.855 502.983L579.303 471.914L575.655 469.82L583.589 498.634C584.29 501.167 583.93 503.918 582.615 506.193L581.056 508.882C579.303 511.935 576.01 513.83 572.503 513.83C570.769 513.83 569.055 513.372 567.56 512.495L536.174 494.367C531.45 491.635 529.813 485.596 532.546 480.871L536.573 473.892C531.489 469.82 526.623 465.436 521.957 460.77C518.007 456.82 514.262 452.715 510.73 448.467L518.845 417.32L516.711 413.672L509.177 442.584C508.519 445.117 506.824 447.328 504.55 448.648L501.876 450.201C500.361 451.059 498.666 451.516 496.932 451.516C493.401 451.516 490.133 449.622 488.355 446.573L470.451 415.567C484.858 412.299 499.343 409.644 513.862 407.501C514.861 409.294 515.888 411.072 516.931 412.815C525.727 427.31 536.812 440.27 549.67 451.18C550.888 452.237 552.125 453.231 553.362 454.21C558.525 458.355 563.97 462.163 569.635 465.617C571.524 466.771 573.463 467.886 575.416 468.963C589.989 477.019 606.003 482.805 622.972 485.854C624.526 486.151 626.084 486.414 627.657 486.652V486.672C634.13 487.631 640.73 488.192 647.437 488.328L647.417 488.308C648.547 488.347 649.657 488.367 650.787 488.367H650.987C651.596 488.367 652.2 488.367 652.809 488.352C653.242 488.347 653.681 488.343 654.114 488.328C654.158 488.333 654.202 488.333 654.245 488.323C654.567 488.318 654.888 488.313 655.21 488.304C655.677 488.294 656.145 488.279 656.613 488.26C656.744 488.255 656.871 488.25 657.002 488.245C657.626 488.221 658.244 488.196 658.868 488.162C658.907 488.162 658.946 488.157 658.985 488.157C659.613 488.128 660.241 488.089 660.869 488.05C675.832 487.12 690.239 484.091 703.769 479.235C705.264 478.714 706.735 478.158 708.211 477.559L708.196 477.535C714.392 475.104 720.397 472.284 726.178 469.109L726.237 469.123C728.195 468.067 730.109 466.951 731.999 465.792C742.758 459.275 752.669 451.502 761.514 442.672C762.264 441.936 763 441.181 763.725 440.421C763.983 440.163 764.237 439.895 764.48 439.632C764.958 439.136 765.425 438.634 765.893 438.132C766.263 437.738 766.628 437.333 766.993 436.934C767.407 436.486 767.812 436.033 768.211 435.58C768.951 434.747 769.682 433.905 770.403 433.052C770.52 432.921 770.632 432.789 770.739 432.658C771.659 431.591 772.546 430.505 773.437 429.404L773.423 429.395C777.567 424.217 781.391 418.772 784.863 413.088H784.839C785.998 411.198 787.114 409.265 788.19 407.312C788.263 407.18 788.331 407.048 788.404 406.917C802.753 409.055 817.199 411.714 831.806 415.002Z" fill="#722875"/>
<path d="M832.779 316.384H832.799L832.721 315.648C832.74 315.887 832.76 316.145 832.779 316.384Z" fill="#722875"/>
<path d="M856.314 317.388C718.517 275.564 584.792 275.564 447 317.388C470.028 306.551 494.736 297.779 520.487 291.067C604.474 269.179 699.547 269.233 783.481 291.238C808.997 297.925 833.481 306.643 856.314 317.388Z" fill="#E55E25"/>
<path fill-rule="evenodd" clip-rule="evenodd" d="M845.566 409.84C730.953 365.026 572.363 365.031 457.75 409.84C522.065 393.621 588.309 390.392 651.675 390.153C716.94 389.905 779.322 393.134 845.566 409.84Z" fill="#E55E25"/>
<path fill-rule="evenodd" clip-rule="evenodd" d="M815.23 409.591L816.127 409.353C816.068 409.474 816.005 409.591 815.946 409.713C815.708 409.655 815.469 409.635 815.23 409.591Z" fill="white"/>
<path fill-rule="evenodd" clip-rule="evenodd" d="M818.639 403.771L819.335 402.154C819.257 402.373 819.155 402.573 819.077 402.792C818.936 403.133 818.819 403.45 818.658 403.791V403.81H818.619C818.619 403.81 818.639 403.791 818.639 403.771Z" fill="white"/>
<path fill-rule="evenodd" clip-rule="evenodd" d="M832.799 316.394H832.779C832.76 316.155 832.74 315.897 832.721 315.658L832.799 316.394Z" fill="white"/>
<path d="M531.854 375.716C533.987 376.807 535.049 377.357 537.162 378.468C540.781 374.421 542.622 372.414 546.373 368.425C550.776 371.016 552.953 372.336 557.253 375.01C558.515 373.831 559.148 373.242 560.424 372.073C554.224 368.371 551.078 366.564 544.678 363.033C539.437 368.05 536.875 370.592 531.854 375.721V375.716Z" fill="#722875"/>
<path d="M540.124 314.23C545.701 313.251 550.708 310.305 553.742 305.069C551.589 304.07 550.508 303.574 548.336 302.59C546.037 306.905 541.78 309.413 537.153 310.241C532.677 311.045 527.972 310.207 524.271 307.529C523.335 308.581 522.873 309.107 521.947 310.159C527.305 313.953 533.87 315.331 540.124 314.23Z" fill="#722875"/>
<path d="M651.045 311.566C639.458 311.571 633.662 311.708 622.089 312.243C598.321 313.339 574.616 315.775 551.121 319.53C535.701 321.994 528.015 323.465 512.727 326.879C512.795 327.172 512.824 327.318 512.892 327.615C513.623 328.097 513.983 328.34 514.709 328.823C515.849 329.777 516.418 330.255 517.548 331.214C525.843 329.412 530.002 328.584 538.336 327.064C538.818 329.704 539.057 331.019 539.539 333.659C539.821 335.208 539.441 335.671 535.019 338.121C533.465 338.973 532.691 339.406 531.147 340.268C525.307 343.449 523.515 346.586 524.27 350.131C525.838 357.491 537.06 362.395 545.578 360.856C551.379 359.809 554.978 357.705 557.375 355.523C555.612 353.696 554.725 352.786 552.938 350.974C551.063 352.878 547.507 355.416 542.227 356.39C534.975 357.729 531.259 354.544 530.66 351.592C530.114 348.909 531.473 346.868 536.436 343.975C538.073 343.025 538.891 342.548 540.542 341.608C545.958 338.598 546.849 337.156 546.387 334.458C545.797 331.034 545.505 329.324 544.921 325.9C547.794 325.408 549.713 325.087 551.949 324.731C552.568 324.634 553.162 324.537 553.741 324.444C554.36 324.347 555.013 324.249 555.728 324.137C555.728 324.137 555.728 324.137 555.728 324.132C563.078 322.983 567.846 322.34 576.229 321.332C576.906 326.952 577.242 329.763 577.919 335.388C578.742 342.246 575.951 346.771 570.535 347.501C566.395 348.061 563.429 345.183 562.947 341.866C562.343 337.736 565.44 334.999 569.517 334.453C570.535 334.317 571.957 334.404 572.931 334.487C573.019 334.253 573.063 334.141 573.15 333.908C571.558 332.096 570.754 331.195 569.137 329.397C568.085 329.329 567.559 329.329 566.526 329.475C560.502 330.303 556.469 334.331 557.414 340.415C557.915 343.658 560.282 346.615 562.771 348.665C565.825 351.183 569.571 352.659 572.965 352.211C576.501 351.743 578.907 349.664 579.969 347.676C580.222 350.404 580.291 353.974 580.666 357.72C581.869 358.265 582.468 358.538 583.666 359.088C584.547 359.619 584.991 359.887 585.867 360.423C586.286 360.374 586.496 360.354 586.914 360.306C586.228 354.052 585.882 350.925 585.195 344.666C584.465 338.004 587.328 333.201 592.881 332.67C594.78 332.49 596.295 332.972 597.63 333.956C596.081 335.534 595.511 337.302 595.691 339.28C596.378 346.771 606.898 352.971 615.514 352.45C621.378 352.094 625.187 350.433 627.817 348.548C626.288 346.527 625.513 345.519 623.96 343.507C621.88 345.178 618.062 347.277 612.723 347.618C605.393 348.09 602.086 344.486 601.843 341.486C601.619 338.759 603.202 336.893 608.452 334.604C610.181 333.854 611.053 333.479 612.792 332.739C618.505 330.391 619.552 329.061 619.411 326.329C619.23 322.861 619.143 321.127 618.963 317.655C621.865 317.504 623.804 317.416 626.064 317.323C626.736 317.294 627.354 317.27 627.944 317.25C628.548 317.231 629.181 317.206 629.877 317.182C632.488 317.09 634.646 317.031 637.953 316.963C638.07 322.35 638.123 325.043 638.24 330.435C638.269 331.735 637.334 332.573 635.513 332.622C634.349 332.651 633.029 332.417 631.845 332.042C630.827 333.167 630.321 333.732 629.312 334.867C630.252 336.679 632.454 340.278 638.089 346.858C641.659 351.023 643.413 353.117 646.861 357.33C648.424 356.443 649.204 356 650.777 355.124C643.461 347.881 638.109 341.452 638.084 340.288C638.07 339.674 638.425 339.46 638.927 339.177C643.267 336.08 644.718 334.229 644.679 330.605C644.621 325.106 644.591 322.359 644.528 316.861C648.629 316.817 650.675 316.812 654.776 316.831C654.776 316.529 654.776 316.378 654.776 316.076C654.181 315.443 653.879 315.127 653.285 314.498C652.389 313.32 651.936 312.73 651.03 311.557L651.045 311.566ZM607.736 328.633C606.1 329.295 605.286 329.631 603.654 330.308C602.369 330.82 601.302 331.316 600.396 331.872C597.737 329.071 594.678 327.347 590.558 327.751C586.876 328.112 584.572 330.225 583.52 332.062C583.612 330.883 583.466 326.836 582.872 321.4C582.838 321.074 582.818 320.913 582.784 320.587C594.581 319.296 600.489 318.789 612.324 318.054C612.49 320.728 612.572 322.067 612.738 324.741C612.835 326.309 612.407 326.728 607.741 328.638L607.736 328.633Z" fill="#722875"/>
<path d="M786.407 326.061C784.137 325.569 781.858 325.091 779.583 324.624C777.874 321.804 776.593 318.287 777.207 315.204C777.767 312.389 780.085 311.454 782.282 311.902C784.707 312.404 786.271 314.347 785.818 317.956C786.996 317.873 787.586 317.829 788.769 317.751C790.357 312.637 787.751 307.781 782.17 306.642C777.737 305.736 773.461 307.781 772.589 312.35C771.868 316.12 773.49 320.206 775.663 323.825C754.671 319.641 733.464 316.519 712.156 314.474C712.156 314.474 712.156 314.474 712.156 314.469C694.295 312.754 685.339 312.214 667.42 311.766C667.41 312.068 667.41 312.219 667.4 312.516C667.99 313.159 668.277 313.48 668.862 314.128C669.733 315.331 670.162 315.93 671.024 317.133C682.119 317.479 687.667 317.771 698.747 318.604C698.304 324.497 698.08 327.444 697.637 333.337C697.145 339.883 692.109 343.614 686.517 343.288C681.067 342.971 678.588 338.977 678.739 335.563C678.939 331.121 682.786 328.959 687.335 329.222C688.952 329.314 690.764 329.772 692.338 330.425C692.527 330.22 692.625 330.113 692.815 329.908C691.753 327.78 691.212 326.718 690.126 324.595C688.753 323.961 686.921 323.577 685.29 323.489C679.07 323.153 673.82 326.806 673.605 332.753C673.474 336.308 675.622 340.083 677.911 342.781C680.648 346.005 683.873 348.197 687.857 348.436C692.902 348.743 695.713 346.429 697.154 344.549C696.736 350.072 695.937 355.021 695.937 355.021C697.067 355.819 697.627 356.219 698.752 357.023C699.57 357.748 699.974 358.109 700.788 358.834C701.207 358.868 701.416 358.888 701.835 358.922C703.199 343.005 703.886 335.042 705.249 319.125C708.488 319.403 710.436 319.578 713.154 319.851C713.851 319.914 714.552 319.992 715.253 320.06C715.302 320.06 715.346 320.07 715.39 320.075C734.609 321.945 754.033 324.828 772.935 328.642C772.448 331.111 772.209 332.348 771.722 334.818C770.203 334.448 765.834 333.118 761.441 332.334C756.604 331.467 753.229 332.723 751.743 335.392C749.995 334.204 747.711 333.006 744.715 332.548C740.911 331.969 737.297 333.196 735.271 336.089C733.45 333.702 730.094 330.902 725.618 330.366C719.681 329.65 715.024 333.035 714.455 338.544C713.797 344.871 718.219 352.288 726.957 360.447C728.16 359.692 728.764 359.312 729.977 358.566C723.777 352.702 719.89 346.707 720.518 341.203C720.976 337.195 724.142 335.28 727.634 335.714C730.177 336.031 732.027 337.175 733.469 339.026C733.235 339.683 733.041 340.555 732.943 341.3C732.734 342.859 732.836 345.358 733.265 347.004C735.612 348.153 736.776 348.733 739.104 349.902C738.661 347.486 738.612 345.27 738.861 343.575C739.518 339.041 742.514 336.771 746.722 337.428C748.392 337.691 749.8 338.193 750.891 338.787C750.803 344.315 755.425 350.428 759.721 352.181C759.721 352.181 767.612 350.876 770.807 351.514C772.438 351.84 773.3 353.068 772.94 354.811C772.239 358.226 768.371 361.094 761.022 359.726C755.143 358.63 750.691 354.699 748.378 351.48C747.189 352.337 746.595 352.771 745.417 353.637C748.383 357.777 753.609 363.676 762.137 365.298C769.974 366.788 775.789 363.583 776.929 358.235C777.357 356.229 777.245 353.672 776.047 350.852C774.815 347.939 773.052 346.6 770.115 346.02C767.748 345.552 761.411 346.098 758.854 346.337C756.78 345.966 755.016 343.789 755.464 341.159C755.937 338.398 758.435 337.355 762.356 338.071C766.681 338.86 768.839 339.274 773.154 340.136C776.34 340.774 777.226 340.132 777.494 338.855C778.234 335.295 778.599 333.512 779.34 329.947C783.197 330.746 785.126 331.16 788.974 332.022C789.037 331.73 789.071 331.579 789.139 331.287C788.686 330.541 788.462 330.166 788.009 329.426C787.376 328.082 787.06 327.41 786.422 326.065L786.407 326.061Z" fill="#722875"/>
<path d="M691.3 276.142C687.286 276.142 683.512 274.579 680.672 271.739C677.833 268.9 676.269 265.125 676.269 261.112C676.269 257.099 677.833 253.324 680.672 250.484C683.512 247.645 687.286 246.082 691.3 246.082C695.313 246.082 699.088 247.645 701.927 250.484C704.767 253.324 706.33 257.099 706.33 261.112C706.33 265.125 704.767 268.9 701.927 271.739C699.088 274.579 695.313 276.142 691.3 276.142ZM691.3 248.005C687.798 248.005 684.505 249.369 682.031 251.843C679.557 254.318 678.193 257.61 678.193 261.112C678.193 264.614 679.557 267.906 682.031 270.381C684.505 272.855 687.798 274.219 691.3 274.219C694.802 274.219 698.094 272.855 700.568 270.381C703.043 267.906 704.406 264.614 704.406 261.112C704.406 257.61 703.043 254.322 700.568 251.843C698.094 249.369 694.802 248.005 691.3 248.005ZM620.073 276.142C614.009 276.142 608.311 273.78 604.02 269.494C599.734 265.208 597.372 259.505 597.372 253.441C597.372 247.377 599.734 241.679 604.02 237.388C608.306 233.102 614.009 230.739 620.073 230.739C626.137 230.739 631.835 233.102 636.126 237.388C640.417 241.674 642.775 247.377 642.775 253.441C642.775 259.505 640.412 265.203 636.126 269.494C631.84 273.78 626.137 276.142 620.073 276.142ZM605.384 238.751C601.458 242.677 599.3 247.893 599.3 253.441C599.3 258.988 601.463 264.21 605.384 268.13C609.309 272.056 614.526 274.214 620.073 274.214C625.621 274.214 630.842 272.051 634.763 268.13C638.688 264.205 640.846 258.988 640.846 253.441C640.846 247.893 638.683 242.672 634.763 238.751C630.837 234.826 625.621 232.668 620.073 232.668C614.526 232.668 609.304 234.831 605.384 238.751ZM691.173 271.004C688.397 271.004 685.786 269.923 683.819 267.96C681.856 265.997 680.774 263.387 680.774 260.605C680.774 257.824 681.856 255.219 683.819 253.251C685.781 251.288 688.397 250.207 691.173 250.207C693.949 250.207 696.56 251.288 698.528 253.251C700.49 255.214 701.572 257.829 701.572 260.605C701.572 263.382 700.49 265.992 698.528 267.96C696.565 269.923 693.954 271.004 691.173 271.004ZM691.173 252.131C688.908 252.131 686.78 253.012 685.177 254.615C683.575 256.217 682.693 258.346 682.693 260.61C682.693 262.875 683.575 265.004 685.177 266.606C686.78 268.208 688.908 269.09 691.173 269.09C693.438 269.09 695.566 268.208 697.169 266.606C698.771 265.004 699.653 262.875 699.653 260.61C699.653 258.346 698.771 256.217 697.169 254.615C695.566 253.012 693.438 252.131 691.173 252.131ZM620.112 267.595C616.182 267.595 612.49 266.065 609.713 263.289C606.937 260.513 605.408 256.816 605.408 252.891C605.408 248.965 606.937 245.268 609.713 242.492C612.49 239.716 616.186 238.186 620.112 238.186C624.038 238.186 627.734 239.716 630.511 242.492C633.287 245.268 634.816 248.965 634.816 252.891C634.816 256.816 633.287 260.513 630.511 263.289C627.734 266.065 624.038 267.595 620.112 267.595ZM611.072 243.851C608.657 246.267 607.327 249.476 607.327 252.891C607.327 256.305 608.657 259.514 611.072 261.93C613.488 264.346 616.698 265.676 620.112 265.676C623.526 265.676 626.736 264.346 629.152 261.93C631.568 259.514 632.897 256.305 632.897 252.891C632.897 249.476 631.568 246.267 629.152 243.851C626.736 241.435 623.526 240.105 620.112 240.105C616.698 240.105 613.488 241.435 611.072 243.851ZM643.875 265.349H641.357C641.016 265.349 640.705 265.169 640.529 264.882C640.354 264.59 640.349 264.229 640.51 263.932C640.593 263.776 640.675 263.62 640.758 263.464C640.856 263.274 640.934 263.119 641.007 262.963C641.099 262.768 641.172 262.612 641.245 262.456C641.338 262.257 641.406 262.096 641.474 261.935C641.557 261.74 641.625 261.575 641.688 261.404C641.757 261.224 641.82 261.068 641.878 260.907C642.322 259.7 642.672 258.443 642.906 257.167C642.906 257.157 642.906 257.152 642.906 257.143C643.013 256.553 643.101 255.959 643.164 255.37L643.179 255.243C643.179 255.224 643.179 255.199 643.179 255.194C643.179 255.185 643.184 255.141 643.184 255.131V255.111V255.058V254.995C643.184 254.995 643.193 254.946 643.193 254.936L643.242 254.284V254.215V254.162H644.207L643.247 254.103C643.247 254.103 643.247 254.035 643.247 254.025H644.211L643.252 253.977V253.918C643.252 253.918 643.252 253.904 643.252 253.894C643.252 253.874 643.252 253.86 643.252 253.845L643.262 253.504C643.262 253.504 643.262 253.49 643.262 253.475C643.262 253.46 643.262 253.446 643.262 253.436V253.324L644.226 253.285L643.267 253.236V253.178L644.226 253.158L643.267 253.124V253.071C643.267 253.071 643.267 253.027 643.267 253.012V252.905L644.226 252.852H643.267V252.623C643.267 252.623 643.267 252.574 643.267 252.554V252.442C643.267 252.442 643.267 252.423 643.267 252.408C643.267 252.389 643.267 252.369 643.267 252.355C643.267 252.345 643.267 252.296 643.267 252.287V252.097C643.267 252.097 643.257 252.043 643.257 252.033C643.257 252.028 643.257 252.019 643.257 252.004C643.257 251.985 643.257 251.955 643.257 251.951C643.257 251.951 643.257 251.941 643.257 251.936C643.257 251.921 643.257 251.912 643.257 251.897C643.257 251.897 643.257 251.868 643.257 251.858C643.257 251.853 643.257 251.843 643.257 251.838C643.257 251.819 643.257 251.8 643.257 251.785C643.208 250.713 643.077 249.622 642.877 248.561C642.877 248.546 642.872 248.527 642.867 248.512L642.814 248.234L642.804 248.186C642.77 248.02 642.731 247.845 642.692 247.669L642.677 247.616C642.638 247.45 642.599 247.285 642.555 247.119L642.541 247.056C642.497 246.895 642.453 246.729 642.409 246.569L642.39 246.505C642.346 246.345 642.297 246.179 642.244 246.018L642.219 245.945C642.171 245.794 642.122 245.638 642.068 245.487L642.039 245.405C641.99 245.258 641.937 245.107 641.883 244.961L641.849 244.864C641.796 244.723 641.742 244.577 641.684 244.43L641.64 244.323C641.586 244.187 641.528 244.051 641.474 243.914L641.43 243.812C641.372 243.68 641.313 243.544 641.255 243.412L641.197 243.276C641.138 243.149 641.08 243.023 641.016 242.891L640.953 242.765C640.895 242.648 640.836 242.521 640.773 242.399C639.356 239.609 637.417 237.168 635.016 235.142C635.011 235.142 635.006 235.133 635.001 235.128C634.879 235.025 634.758 234.923 634.631 234.821C634.485 234.704 634.358 234.607 634.232 234.504C633.915 234.261 633.594 234.027 633.262 233.798L633.219 233.769C633.102 233.686 632.98 233.608 632.863 233.53L632.771 233.472C632.659 233.399 632.542 233.326 632.425 233.248L632.327 233.189C632.196 233.111 632.064 233.029 631.933 232.946L631.757 232.843C631.66 232.785 631.558 232.727 631.455 232.668L631.285 232.576C631.183 232.522 631.076 232.464 630.968 232.405L630.028 231.933C629.931 231.884 629.834 231.84 629.736 231.796L629.532 231.704C629.429 231.66 629.327 231.616 629.225 231.572L628.986 231.47C628.889 231.431 628.791 231.387 628.689 231.348L628.475 231.26C628.358 231.217 628.246 231.173 628.129 231.129L628.002 231.085C627.842 231.027 627.72 230.983 627.598 230.944L627.452 230.895C627.32 230.851 627.189 230.808 627.053 230.764L626.897 230.715C626.755 230.671 626.609 230.627 626.463 230.588L626.361 230.559C626.215 230.52 626.069 230.481 625.927 230.442L625.815 230.413C625.674 230.374 625.528 230.34 625.382 230.306L625.27 230.282C625.114 230.247 624.953 230.213 624.793 230.179L624.72 230.165C624.554 230.131 624.383 230.096 624.208 230.067L624.13 230.053C623.974 230.023 623.809 229.999 623.648 229.975L623.565 229.96C623.4 229.936 623.234 229.911 623.064 229.892L622.995 229.882C622.82 229.858 622.64 229.838 622.455 229.819C622.25 229.799 622.06 229.78 621.875 229.765H621.822C621.641 229.751 621.466 229.736 621.291 229.726H621.223C621.052 229.717 620.872 229.707 620.692 229.702H620.633C620.278 229.692 619.898 229.692 619.528 229.702H619.377C619.226 229.712 619.084 229.717 618.938 229.721H618.841C618.661 229.736 618.49 229.746 618.32 229.76L618.174 229.77C618.042 229.78 617.906 229.794 617.769 229.804L617.633 229.819C617.462 229.838 617.287 229.858 617.117 229.877L617.044 229.887C616.893 229.907 616.742 229.926 616.596 229.95L616.449 229.975C616.294 229.999 616.143 230.023 615.987 230.053L615.928 230.062C615.772 230.092 615.602 230.126 615.431 230.16L615.305 230.189C615.164 230.218 615.032 230.247 614.896 230.277L614.813 230.296C614.618 230.34 614.452 230.379 614.292 230.423L614.18 230.452C614.053 230.486 613.917 230.52 613.785 230.559L613.649 230.598C613.493 230.642 613.332 230.691 613.172 230.739L613.123 230.754C612.977 230.803 612.831 230.847 612.684 230.895L612.548 230.944C612.417 230.988 612.28 231.036 612.144 231.085C612.144 231.085 612.095 231.1 612.09 231.105C611.91 231.173 611.754 231.231 611.598 231.29L611.516 231.324L611.467 231.343C611.345 231.392 611.223 231.441 611.102 231.489L610.985 231.538C610.834 231.601 610.683 231.665 610.532 231.733L610.473 231.757C610.313 231.83 610.191 231.889 610.069 231.947L609.928 232.015C609.787 232.084 609.64 232.157 609.494 232.23C609.334 232.313 609.192 232.386 609.051 232.464L608.915 232.537C608.798 232.6 608.681 232.668 608.564 232.731L608.476 232.78C608.34 232.858 608.199 232.941 608.062 233.029L607.95 233.097C607.833 233.17 607.726 233.238 607.619 233.306L607.502 233.379C607.366 233.467 607.234 233.555 607.098 233.642L607.01 233.701C606.903 233.774 606.796 233.847 606.684 233.925L606.552 234.017C606.44 234.095 606.328 234.178 606.216 234.261L606.177 234.29C606.031 234.402 605.905 234.499 605.778 234.597L605.656 234.689C605.559 234.767 605.461 234.845 605.364 234.923L605.257 235.011C605.135 235.113 605.013 235.215 604.892 235.318L604.794 235.4C604.697 235.483 604.604 235.566 604.512 235.649L604.4 235.751C604.278 235.863 604.161 235.97 604.044 236.082L603.991 236.136C603.893 236.233 603.791 236.331 603.693 236.428L603.577 236.545C603.489 236.633 603.396 236.73 603.304 236.823L603.27 236.862C603.27 236.862 603.236 236.896 603.236 236.901C603.124 237.017 603.016 237.134 602.909 237.251L602.817 237.358C602.729 237.456 602.646 237.548 602.568 237.636L602.471 237.743C602.364 237.865 602.266 237.987 602.164 238.108L602.096 238.196C602.003 238.308 601.93 238.401 601.852 238.498L601.75 238.63C601.662 238.742 601.575 238.859 601.487 238.971L601.419 239.063C601.336 239.175 601.253 239.287 601.171 239.404L601.068 239.545C601.005 239.638 600.932 239.74 600.864 239.842L600.786 239.959C600.703 240.086 600.615 240.217 600.528 240.349L600.445 240.476C600.382 240.578 600.318 240.675 600.255 240.778L600.172 240.914C600.089 241.05 600.006 241.187 599.929 241.323L599.87 241.43C599.812 241.532 599.748 241.644 599.69 241.757L599.607 241.907C599.544 242.024 599.485 242.136 599.422 242.253L599.393 242.312C599.3 242.516 599.13 242.687 598.92 242.784C598.657 242.906 598.35 242.901 598.092 242.774L596.081 241.781C595.852 241.669 595.677 241.464 595.594 241.221C595.511 240.977 595.535 240.709 595.652 240.48C596.958 237.919 598.652 235.586 600.693 233.545C605.861 228.377 612.728 225.533 620.039 225.533C622.089 225.533 624.125 225.762 626.113 226.21L624.457 217.331C624.403 217.048 624.481 216.761 624.661 216.542C624.846 216.323 625.114 216.196 625.401 216.196H628.114C630.082 216.196 631.904 217.691 632.264 219.605L634.095 229.419C635.245 230.111 636.35 230.89 637.388 231.738H644.733C646.885 231.738 648.639 233.491 648.639 235.644V238.591C648.639 239.122 648.21 239.55 647.679 239.55H643.934C645.317 242.015 646.296 244.659 646.856 247.426H660.187L655.18 233.988C655.068 233.686 655.112 233.35 655.302 233.087L656.967 230.793L652.749 227.749L650.616 230.7C650.027 231.514 648.887 231.699 648.074 231.11C647.26 230.52 647.075 229.38 647.665 228.567L649.798 225.616C649.598 225.465 649.462 225.245 649.423 224.997C649.384 224.744 649.442 224.486 649.593 224.281L650.451 223.093C650.602 222.888 650.826 222.747 651.079 222.708C651.327 222.669 651.576 222.727 651.78 222.869L653.509 220.472C654.099 219.659 655.238 219.474 656.052 220.063C656.865 220.652 657.05 221.792 656.461 222.606L654.732 225.002L658.95 228.051L659.013 227.963C659.709 226.999 660.815 226.999 661.18 226.999H676.596V226.892C675.758 226.468 675.198 225.596 675.198 224.612V218.232C675.198 217.248 675.763 216.376 676.596 215.952V212.032C676.596 212.032 676.596 212.002 676.596 211.988C676.479 211.925 676.216 211.817 675.68 211.73C675.159 211.647 674.798 211.155 674.881 210.629L675.368 207.565C675.407 207.312 675.548 207.088 675.753 206.937C675.958 206.786 676.216 206.728 676.469 206.767C678.037 207.02 679.279 207.57 680.156 208.413C681.125 209.338 681.617 210.522 681.622 211.925C681.622 211.959 681.627 211.993 681.627 212.027V215.874C682.543 216.264 683.185 217.18 683.185 218.227V224.607C683.185 225.655 682.538 226.565 681.627 226.96V226.994H687.988C690.545 226.994 693.024 228.061 694.792 229.921C696.453 231.67 697.3 233.915 697.183 236.238L696.92 241.313C700.164 242.248 703.125 243.997 705.531 246.403C705.643 246.515 705.755 246.627 705.863 246.744C706.038 246.929 706.135 247.177 706.13 247.431C706.126 247.684 706.018 247.927 705.833 248.103L704.494 249.379C704.109 249.744 703.5 249.73 703.135 249.345C700.033 246.091 695.849 244.304 691.358 244.304C682.382 244.304 675.081 251.605 675.081 260.581C675.081 261.687 675.193 262.792 675.412 263.864C675.47 264.146 675.397 264.439 675.217 264.663C675.032 264.887 674.759 265.018 674.472 265.018H672.587C672.124 265.018 671.725 264.687 671.642 264.229C671.52 263.557 671.428 262.88 671.374 262.198H645.775C645.453 263.085 645.083 263.956 644.674 264.804C644.513 265.135 644.177 265.344 643.807 265.344L643.875 265.349ZM642.911 263.43H643.262C643.632 262.617 643.958 261.784 644.241 260.942C644.372 260.547 644.737 260.284 645.151 260.284H672.344C672.738 260.284 673.074 260.518 673.225 260.859C673.225 260.771 673.225 260.679 673.225 260.591C673.225 250.558 681.388 242.39 691.426 242.39C692.79 242.39 694.129 242.536 695.425 242.823C695.172 242.638 695.016 242.331 695.035 242L695.337 236.151C695.43 234.358 694.768 232.619 693.472 231.256C692.064 229.775 690.097 228.928 688.066 228.928H680.745C680.214 228.928 679.786 228.499 679.786 227.968V226.215C679.786 225.693 680.205 225.265 680.726 225.255C681.067 225.245 681.344 224.963 681.344 224.622V218.242C681.344 217.901 681.067 217.613 680.726 217.608C680.205 217.599 679.786 217.17 679.786 216.649V212.149C679.786 212.11 679.781 212.071 679.781 212.032C679.796 211.116 679.508 210.395 678.909 209.82C678.49 209.416 677.911 209.109 677.19 208.895L677.005 210.064C677.467 210.215 677.823 210.41 678.086 210.668C678.329 210.902 678.617 211.33 678.602 212.041C678.602 212.071 678.602 212.1 678.597 212.129V216.664C678.597 217.151 678.237 217.56 677.755 217.618C677.443 217.657 677.2 217.935 677.2 218.246V224.627C677.2 224.939 677.443 225.216 677.755 225.255C678.237 225.314 678.597 225.723 678.597 226.21V227.973C678.597 228.504 678.169 228.932 677.638 228.932H661.263C660.776 228.932 660.698 229.04 660.654 229.103L660.026 229.97C659.856 230.208 659.593 230.345 659.325 230.364C659.33 230.389 659.334 230.413 659.339 230.437C659.378 230.691 659.32 230.949 659.169 231.153L657.24 233.808L662.549 248.059C662.661 248.356 662.617 248.682 662.437 248.941C662.257 249.199 661.965 249.355 661.648 249.355H646.135C645.668 249.355 645.268 249.018 645.19 248.556C644.64 245.366 643.5 242.346 641.801 239.579C641.645 239.326 641.615 239.019 641.718 238.742L641.898 238.259C642.039 237.88 642.395 237.631 642.799 237.631H646.803V235.644C646.803 234.548 645.911 233.657 644.815 233.657H637.125C636.896 233.657 636.677 233.579 636.506 233.433C635.362 232.468 634.129 231.601 632.834 230.856C632.59 230.715 632.42 230.476 632.371 230.199L630.462 219.956C630.277 218.962 629.239 218.12 628.202 218.12H626.643L628.363 227.34C628.426 227.666 628.309 228.002 628.066 228.226C627.817 228.45 627.471 228.528 627.155 228.44C624.88 227.788 622.513 227.457 620.127 227.457C613.332 227.457 606.947 230.101 602.14 234.909C600.474 236.574 599.052 238.454 597.907 240.5L598.195 240.641C598.224 240.588 598.253 240.534 598.287 240.48L598.35 240.368C598.438 240.217 598.526 240.071 598.614 239.925L598.706 239.774C598.769 239.672 598.838 239.565 598.906 239.458L598.993 239.321C599.091 239.17 599.183 239.029 599.276 238.888L599.354 238.776C599.432 238.664 599.505 238.557 599.578 238.449L599.685 238.298C599.778 238.172 599.865 238.045 599.958 237.923L600.031 237.826C600.123 237.699 600.221 237.578 600.313 237.456L600.396 237.349C600.503 237.212 600.586 237.11 600.669 237.008L600.761 236.896C600.869 236.764 600.981 236.633 601.093 236.506L601.195 236.389C601.283 236.287 601.37 236.189 601.458 236.092L601.57 235.97C601.682 235.844 601.804 235.717 601.921 235.595L601.969 235.547C602.096 235.415 602.193 235.313 602.296 235.215L602.417 235.094C602.525 234.986 602.632 234.884 602.739 234.782L602.797 234.723C602.929 234.597 603.055 234.48 603.187 234.363L603.309 234.256C603.411 234.163 603.508 234.076 603.611 233.988L603.718 233.891C603.849 233.779 603.981 233.667 604.112 233.555L604.224 233.462C604.327 233.374 604.434 233.292 604.541 233.209L604.668 233.106C604.809 232.999 604.945 232.892 605.082 232.79L605.145 232.741C605.267 232.649 605.388 232.561 605.515 232.473L605.651 232.376C605.768 232.293 605.89 232.21 606.007 232.127L606.095 232.064C606.241 231.962 606.387 231.869 606.538 231.772L606.66 231.694C606.781 231.616 606.898 231.548 607.015 231.475L607.147 231.397C607.293 231.309 607.449 231.217 607.6 231.129L607.692 231.075C607.819 231.002 607.945 230.934 608.072 230.861L608.218 230.783C608.374 230.7 608.525 230.618 608.681 230.54C608.861 230.447 609.017 230.369 609.173 230.296L609.314 230.228C609.446 230.165 609.577 230.101 609.709 230.043L609.816 229.994C609.972 229.921 610.137 229.853 610.303 229.78L610.425 229.726C610.556 229.673 610.688 229.619 610.819 229.566L610.96 229.507C611.126 229.444 611.291 229.38 611.462 229.317C611.467 229.317 611.511 229.298 611.516 229.298C611.691 229.234 611.837 229.181 611.988 229.132L612.129 229.083C612.29 229.03 612.446 228.981 612.602 228.928L612.655 228.913C612.835 228.859 613.011 228.806 613.186 228.757L613.327 228.718C613.473 228.679 613.615 228.64 613.761 228.601L614.058 229.517L613.81 228.587L613.878 228.567C614.053 228.523 614.233 228.479 614.414 228.436L614.545 228.406C614.686 228.372 614.832 228.343 614.983 228.314L615.115 228.285C615.305 228.246 615.485 228.212 615.67 228.177L615.733 228.168C615.889 228.138 616.06 228.114 616.23 228.085L616.381 228.061C616.547 228.036 616.708 228.012 616.868 227.992L616.946 227.983C617.141 227.958 617.326 227.939 617.516 227.919L617.657 227.905C617.808 227.89 617.954 227.875 618.101 227.866L618.251 227.856C618.437 227.841 618.627 227.832 618.812 227.822H618.88C619.079 227.807 619.235 227.802 619.391 227.798H619.552C619.951 227.783 620.356 227.783 620.755 227.798H620.813C621.003 227.802 621.193 227.812 621.383 227.822H621.456C621.641 227.837 621.831 227.846 622.021 227.861H622.08C622.289 227.88 622.494 227.9 622.693 227.919C622.908 227.939 623.107 227.963 623.302 227.988L623.37 227.997C623.551 228.022 623.731 228.046 623.916 228.075L623.999 228.09C624.174 228.119 624.349 228.148 624.525 228.177L624.608 228.192C624.793 228.226 624.978 228.26 625.163 228.299L625.236 228.314C625.406 228.348 625.582 228.387 625.752 228.426L625.869 228.455C626.025 228.489 626.186 228.528 626.346 228.572L626.463 228.601C626.624 228.645 626.78 228.684 626.936 228.728L627.043 228.757C627.208 228.806 627.364 228.85 627.52 228.898L627.686 228.947C627.832 228.996 627.978 229.04 628.119 229.088L628.241 229.127C628.416 229.186 628.548 229.234 628.679 229.283L628.855 229.346C628.976 229.39 629.103 229.439 629.23 229.488L629.459 229.58C629.566 229.624 629.673 229.668 629.78 229.712L630.033 229.819C630.145 229.868 630.257 229.916 630.369 229.965L630.593 230.067C630.701 230.116 630.808 230.165 630.91 230.213L631.426 230.467C631.533 230.52 631.641 230.579 631.748 230.632L631.918 230.72C632.04 230.788 632.157 230.847 632.269 230.91L632.444 231.007C632.556 231.071 632.663 231.134 632.775 231.197L632.965 231.309C633.107 231.392 633.253 231.48 633.394 231.567L633.496 231.631C633.628 231.713 633.75 231.791 633.876 231.874L633.969 231.938C634.1 232.025 634.227 232.113 634.358 232.201L634.402 232.235C634.763 232.483 635.113 232.741 635.449 232.999C635.586 233.106 635.722 233.214 635.858 233.321C636.009 233.442 636.136 233.55 636.268 233.657C636.272 233.657 636.277 233.667 636.282 233.671C638.888 235.863 640.992 238.513 642.531 241.542C642.599 241.674 642.663 241.805 642.731 241.942L642.794 242.078C642.862 242.219 642.926 242.36 642.989 242.502L643.052 242.643C643.116 242.789 643.179 242.935 643.242 243.081L643.286 243.188C643.349 243.339 643.413 243.49 643.471 243.637L643.515 243.744C643.578 243.904 643.637 244.065 643.695 244.221L643.734 244.323C643.793 244.484 643.851 244.645 643.905 244.805L643.934 244.893C643.992 245.059 644.046 245.224 644.095 245.395L644.119 245.468C644.172 245.643 644.226 245.823 644.28 246.008L644.299 246.072C644.348 246.242 644.396 246.422 644.44 246.598L644.455 246.661C644.499 246.836 644.543 247.017 644.586 247.197L644.601 247.255C644.645 247.45 644.684 247.635 644.728 247.825C644.728 247.825 644.737 247.874 644.737 247.879C644.762 247.991 644.786 248.108 644.806 248.229C644.806 248.249 644.81 248.268 644.815 248.283C645.025 249.418 645.161 250.572 645.215 251.726C645.215 251.731 645.215 251.741 645.215 251.751C645.215 251.765 645.215 251.775 645.215 251.785C645.215 251.795 645.215 251.804 645.215 251.819C645.215 251.829 645.215 251.838 645.215 251.843C645.215 251.843 645.215 251.858 645.215 251.863C645.215 251.868 645.215 251.877 645.215 251.887C645.215 251.902 645.215 251.912 645.215 251.916C645.215 251.926 645.215 251.97 645.215 251.98C645.215 251.989 645.215 252.028 645.215 252.038C645.215 252.048 645.215 252.082 645.215 252.092V252.238C645.215 252.238 645.22 252.291 645.22 252.301C645.22 252.311 645.22 252.36 645.22 252.369C645.22 252.384 645.22 252.418 645.22 252.438V252.559C645.22 252.559 645.22 252.598 645.22 252.618V252.895V253.022L644.26 253.076H645.22C645.22 253.076 645.22 253.119 645.22 253.134C645.22 253.144 645.22 253.188 645.22 253.197C645.22 253.207 645.22 253.241 645.22 253.251C645.22 253.266 645.22 253.329 645.22 253.343V253.412V253.529C645.22 253.529 645.22 253.587 645.22 253.592L645.21 253.962C645.21 253.962 645.21 253.962 645.21 253.972C645.21 253.982 645.21 253.996 645.21 254.006C645.21 254.016 645.21 254.025 645.21 254.035V254.089L645.205 254.142C645.205 254.152 645.205 254.24 645.2 254.249C645.2 254.259 645.2 254.293 645.2 254.303V254.357C645.2 254.357 645.195 254.415 645.195 254.42L645.151 255.014C645.151 255.014 645.151 255.068 645.147 255.073V255.126C645.147 255.126 645.137 255.199 645.137 255.204C645.137 255.214 645.132 255.277 645.127 255.287C645.127 255.292 645.127 255.297 645.127 255.301C645.127 255.301 645.127 255.355 645.122 255.36C645.122 255.37 645.117 255.413 645.117 255.423C645.117 255.438 645.117 255.452 645.117 255.467L645.103 255.589C645.035 256.232 644.942 256.865 644.825 257.498C644.825 257.508 644.825 257.518 644.825 257.522C644.567 258.911 644.192 260.284 643.705 261.599C643.642 261.77 643.578 261.94 643.51 262.11C643.427 262.315 643.354 262.495 643.281 262.671C643.193 262.88 643.116 263.055 643.038 263.226C643.004 263.304 642.969 263.377 642.935 263.45L642.911 263.43ZM652.141 225.172C652.146 225.197 652.15 225.221 652.155 225.245C652.17 225.348 652.17 225.455 652.155 225.557C652.272 225.499 652.399 225.46 652.525 225.45C652.521 225.426 652.516 225.401 652.511 225.377C652.496 225.275 652.496 225.167 652.511 225.065C652.418 225.114 652.321 225.148 652.219 225.163C652.194 225.163 652.17 225.167 652.141 225.172Z" fill="#722875"/>
<path d="M650.781 488.366C649.66 488.366 648.545 488.356 647.43 488.327L647.41 488.308C648.54 488.347 649.651 488.366 650.781 488.366Z" fill="#722875"/>
<path fill-rule="evenodd" clip-rule="evenodd" d="M729.883 423.092H740.462C742.863 423.092 744.826 424.986 744.826 427.295V436.929H729.011C727.55 436.929 726.352 435.775 726.352 434.367V431.021C726.352 429.711 727.463 428.639 728.826 428.639H737.598L736.668 430.587H730.214C729.927 430.587 729.62 430.797 729.62 431.099V433.729C729.62 434.031 729.927 434.24 730.214 434.24H741.412V427.923C741.412 426.701 740.321 425.766 739.108 425.766H728.607L729.888 423.082L729.883 423.092ZM666.561 420.072V418.021H663.142V422.015L666.561 420.072ZM663.142 423.964L666.561 422.02V436.929H663.142V423.964ZM683.784 423.092C686.185 423.092 688.148 424.986 688.148 427.295V436.929H684.729V427.933C684.729 426.711 683.637 425.775 682.425 425.775H674.218V436.929H670.799V423.097C675.114 423.097 679.449 423.092 683.779 423.092H683.784ZM727.506 423.092H718.934C716.533 423.092 714.57 424.986 714.57 427.295V436.929H717.989V427.933C717.989 426.711 719.08 425.775 720.293 425.775H726.216L727.511 423.092H727.506ZM612.786 436.929H616.205V427.295C616.205 424.981 614.242 423.092 611.841 423.092H589.451V436.929H592.87V426.287C592.87 425.985 593.182 425.771 593.469 425.771H600.527C600.814 425.771 601.121 425.985 601.121 426.287V436.929H604.54V426.287C604.54 425.985 604.847 425.771 605.134 425.771H610.487C611.7 425.771 612.791 426.706 612.791 427.928V436.924L612.786 436.929ZM641.274 418.056V436.929H644.693V418.056H641.274ZM655.486 436.924H658.905V427.295C658.905 424.981 656.942 423.092 654.541 423.092H647.284L645.993 425.775H653.187C654.4 425.775 655.491 426.711 655.491 427.933V436.929L655.486 436.924ZM709.68 418.056V436.929H694.255C692.794 436.929 691.596 435.775 691.596 434.367V427.295C691.596 424.981 693.559 423.092 695.96 423.092H704.746L703.451 425.775H697.314C696.101 425.775 695.01 426.711 695.01 427.933V433.734C695.01 434.036 695.317 434.245 695.604 434.245H706.256V418.056H709.675H709.68ZM622.751 423.092H633.33C635.731 423.092 637.694 424.986 637.694 427.295V436.929H621.879C620.418 436.929 619.22 435.775 619.22 434.367V431.021C619.22 429.711 620.33 428.639 621.689 428.639H630.461L629.531 430.587H623.077C622.79 430.587 622.483 430.797 622.483 431.099V433.729C622.483 434.031 622.79 434.24 623.077 434.24H634.275V427.923C634.275 426.701 633.184 425.766 631.971 425.766H621.47L622.751 423.082V423.092Z" fill="#D80F20"/>
<path d="M563.425 423.374C564.194 423.214 565.407 423.092 566.634 423.092C568.393 423.092 569.523 423.394 570.37 424.08C571.076 424.607 571.5 425.41 571.5 426.482C571.5 427.797 570.633 428.946 569.196 429.472V429.511C570.487 429.837 572.002 430.904 572.002 432.925C572.002 434.094 571.534 434.986 570.852 435.653C569.903 436.52 568.368 436.924 566.147 436.924C564.935 436.924 564.009 436.841 563.42 436.763V423.374H563.425ZM565.183 428.946H566.781C568.641 428.946 569.727 427.977 569.727 426.662C569.727 425.064 568.515 424.441 566.737 424.441C565.928 424.441 565.466 424.499 565.183 424.563V428.946ZM565.183 435.468C565.529 435.526 566.031 435.551 566.659 435.551C568.476 435.551 570.151 434.883 570.151 432.906C570.151 431.045 568.553 430.281 566.634 430.281H565.183V435.473V435.468Z" fill="#414241"/>
<path d="M577.105 436.803V431.026L572.805 423.189H574.802L576.721 426.949C577.247 427.977 577.651 428.81 578.075 429.755H578.114C578.498 428.864 578.961 427.977 579.487 426.949L581.445 423.189H583.447L578.883 431.007V436.803H577.105Z" fill="#414241"/>
<defs>
<filter id="filter0_d_2258_12659" x="85" y="87" width="1750" height="542.451" filterUnits="userSpaceOnUse" color-interpolation-filters="sRGB">
<feFlood flood-opacity="0" result="BackgroundImageFix"/>
<feColorMatrix in="SourceAlpha" type="matrix" values="0 0 0 0 0 0 0 0 0 0 0 0 0 0 0 0 0 0 127 0" result="hardAlpha"/>
<feOffset dy="60.4515"/>
<feComposite in2="hardAlpha" operator="out"/>
<feColorMatrix type="matrix" values="0 0 0 0 0.890196 0 0 0 0 0.372549 0 0 0 0 0.14902 0 0 0 1 0"/>
<feBlend mode="normal" in2="BackgroundImageFix" result="effect1_dropShadow_2258_12659"/>
<feBlend mode="normal" in="SourceGraphic" in2="effect1_dropShadow_2258_12659" result="shape"/>
</filter>
</defs>
</svg>
