<svg width="750" height="387" viewBox="0 0 750 387" fill="none" xmlns="http://www.w3.org/2000/svg">
<rect width="750" height="387" fill="#722875"/>
<g filter="url(#filter0_d_2258_12783)">
<path d="M20 22.725C20 19.0109 23.0109 16 26.725 16H724.275C727.989 16 731 19.0109 731 22.725V322H20V22.725Z" fill="#FBFBFB"/>
</g>
<path d="M336.147 59.7925V87H330.69V59.7925H336.147ZM364.809 87H359.352L346.995 68.3289V87H341.538V59.7535H346.995L359.352 78.4635V59.7535H364.809V87ZM379.713 59.7925C382.571 59.7925 385.079 60.3512 387.236 61.4686C389.419 62.586 391.095 64.1841 392.264 66.263C393.459 68.3159 394.057 70.7067 394.057 73.4352C394.057 76.1638 393.459 78.5545 392.264 80.6074C391.095 82.6343 389.419 84.2065 387.236 85.3239C385.079 86.4413 382.571 87 379.713 87H370.202V59.7925H379.713ZM379.518 82.3615C382.376 82.3615 384.585 81.5819 386.144 80.0227C387.703 78.4635 388.483 76.2677 388.483 73.4352C388.483 70.6027 387.703 68.3939 386.144 66.8087C384.585 65.1976 382.376 64.392 379.518 64.392H375.659V82.3615H379.518ZM403.599 59.7925V87H398.142V59.7925H403.599ZM425.674 81.8158H414.838L413.045 87H407.315L417.098 59.7535H423.452L433.236 87H427.467L425.674 81.8158ZM424.193 77.4501L420.256 66.0681L416.319 77.4501H424.193ZM437.984 59.7925H443.714L439.505 69.6152H435.763L437.984 59.7925ZM457.021 87.2729C455.124 87.2729 453.409 86.948 451.876 86.2984C450.369 85.6487 449.174 84.7132 448.29 83.4919C447.407 82.2705 446.952 80.8283 446.926 79.1652H452.773C452.851 80.2826 453.24 81.1661 453.942 81.8158C454.67 82.4654 455.657 82.7902 456.905 82.7902C458.178 82.7902 459.178 82.4914 459.906 81.8937C460.634 81.27 460.997 80.4645 460.997 79.477C460.997 78.6714 460.75 78.0088 460.257 77.4891C459.763 76.9693 459.139 76.5665 458.386 76.2807C457.658 75.9689 456.645 75.631 455.345 75.2672C453.578 74.7475 452.136 74.2408 451.019 73.747C449.927 73.2273 448.979 72.4607 448.173 71.4473C447.394 70.4078 447.004 69.0305 447.004 67.3155C447.004 65.7043 447.407 64.3011 448.212 63.1057C449.018 61.9103 450.148 61.0008 451.603 60.3771C453.059 59.7275 454.722 59.4027 456.593 59.4027C459.399 59.4027 461.673 60.0913 463.414 61.4686C465.181 62.8198 466.156 64.7168 466.338 67.1595H460.335C460.283 66.224 459.88 65.4574 459.126 64.8598C458.399 64.2361 457.424 63.9243 456.203 63.9243C455.137 63.9243 454.28 64.1971 453.63 64.7428C453.007 65.2885 452.695 66.0811 452.695 67.1206C452.695 67.8482 452.929 68.4589 453.396 68.9526C453.89 69.4203 454.488 69.8101 455.189 70.122C455.917 70.4078 456.931 70.7456 458.23 71.1354C459.997 71.6552 461.439 72.1749 462.557 72.6946C463.674 73.2143 464.635 73.9939 465.441 75.0334C466.247 76.0728 466.649 77.4371 466.649 79.1262C466.649 80.5814 466.273 81.9327 465.519 83.18C464.765 84.4274 463.661 85.4278 462.206 86.1814C460.75 86.909 459.022 87.2729 457.021 87.2729Z" fill="black"/>
<path d="M413.076 219H398.063L352.891 150.649V219H337.877V127.339H352.891L398.063 195.558V127.339H413.076V219ZM464.267 220.185C457.419 220.185 451.229 218.649 445.698 215.576C440.167 212.415 435.821 208.025 432.66 202.406C429.499 196.699 427.919 190.114 427.919 182.652C427.919 175.277 429.543 168.736 432.792 163.029C436.04 157.322 440.474 152.932 446.093 149.859C451.712 146.786 457.99 145.25 464.926 145.25C471.862 145.25 478.139 146.786 483.758 149.859C489.378 152.932 493.811 157.322 497.06 163.029C500.308 168.736 501.933 175.277 501.933 182.652C501.933 190.027 500.265 196.568 496.928 202.274C493.592 207.981 489.026 212.415 483.232 215.576C477.525 218.649 471.203 220.185 464.267 220.185ZM464.267 207.147C468.13 207.147 471.73 206.225 475.066 204.382C478.491 202.538 481.256 199.772 483.363 196.085C485.471 192.397 486.524 187.92 486.524 182.652C486.524 177.384 485.514 172.95 483.495 169.35C481.476 165.663 478.798 162.897 475.462 161.053C472.125 159.21 468.526 158.288 464.662 158.288C460.799 158.288 457.2 159.21 453.863 161.053C450.615 162.897 448.025 165.663 446.093 169.35C444.162 172.95 443.196 177.384 443.196 182.652C443.196 190.466 445.171 196.524 449.122 200.826C453.161 205.04 458.209 207.147 464.267 207.147Z" fill="#E35F26"/>
<path d="M522.832 219.922C520.111 219.922 517.828 219 515.984 217.156C514.14 215.312 513.218 213.03 513.218 210.308C513.218 207.586 514.14 205.304 515.984 203.46C517.828 201.616 520.111 200.694 522.832 200.694C525.466 200.694 527.705 201.616 529.549 203.46C531.393 205.304 532.315 207.586 532.315 210.308C532.315 213.03 531.393 215.312 529.549 217.156C527.705 219 525.466 219.922 522.832 219.922Z" fill="black"/>
<rect x="334" y="250" width="287" height="33" fill="#722875"/>
<path d="M353.578 272.105C352.875 272.105 352.243 271.985 351.68 271.744C351.118 271.493 350.677 271.142 350.355 270.69C350.034 270.238 349.873 269.711 349.873 269.109H351.711C351.751 269.56 351.926 269.932 352.238 270.223C352.559 270.514 353.006 270.66 353.578 270.66C354.17 270.66 354.632 270.519 354.963 270.238C355.295 269.947 355.46 269.576 355.46 269.124C355.46 268.772 355.355 268.486 355.144 268.265C354.943 268.045 354.687 267.874 354.376 267.753C354.075 267.633 353.653 267.502 353.111 267.362C352.428 267.181 351.871 267 351.44 266.82C351.018 266.629 350.656 266.338 350.355 265.946C350.054 265.555 349.904 265.033 349.904 264.38C349.904 263.778 350.054 263.251 350.355 262.799C350.656 262.347 351.078 262.001 351.62 261.76C352.162 261.519 352.79 261.399 353.503 261.399C354.517 261.399 355.345 261.655 355.987 262.167C356.64 262.669 357.001 263.361 357.072 264.245H355.174C355.144 263.863 354.963 263.537 354.632 263.266C354.301 262.995 353.864 262.859 353.322 262.859C352.83 262.859 352.428 262.985 352.117 263.236C351.806 263.487 351.65 263.848 351.65 264.32C351.65 264.641 351.746 264.907 351.936 265.118C352.137 265.319 352.388 265.48 352.689 265.6C352.991 265.72 353.402 265.851 353.924 265.992C354.617 266.182 355.179 266.373 355.611 266.564C356.053 266.755 356.424 267.051 356.725 267.452C357.036 267.844 357.192 268.371 357.192 269.033C357.192 269.565 357.046 270.067 356.755 270.539C356.474 271.011 356.058 271.393 355.505 271.684C354.963 271.965 354.321 272.105 353.578 272.105ZM360.934 262.92V265.992H364.548V267.392H360.934V270.6H365V272H359.218V261.519H365V262.92H360.934ZM366.542 266.744C366.542 265.72 366.778 264.802 367.25 263.989C367.732 263.176 368.38 262.543 369.193 262.091C370.016 261.63 370.915 261.399 371.888 261.399C373.003 261.399 373.992 261.675 374.855 262.227C375.728 262.769 376.361 263.542 376.752 264.546H374.689C374.418 263.994 374.042 263.582 373.56 263.311C373.078 263.04 372.521 262.904 371.888 262.904C371.196 262.904 370.578 263.06 370.036 263.371C369.494 263.683 369.067 264.129 368.756 264.712C368.455 265.294 368.304 265.971 368.304 266.744C368.304 267.517 368.455 268.195 368.756 268.777C369.067 269.36 369.494 269.811 370.036 270.133C370.578 270.444 371.196 270.6 371.888 270.6C372.521 270.6 373.078 270.464 373.56 270.193C374.042 269.922 374.418 269.51 374.689 268.958H376.752C376.361 269.962 375.728 270.735 374.855 271.277C373.992 271.819 373.003 272.09 371.888 272.09C370.904 272.09 370.006 271.864 369.193 271.413C368.38 270.951 367.732 270.313 367.25 269.5C366.778 268.687 366.542 267.768 366.542 266.744ZM383.535 272.105C382.562 272.105 381.663 271.88 380.84 271.428C380.027 270.966 379.379 270.328 378.897 269.515C378.425 268.692 378.189 267.768 378.189 266.744C378.189 265.72 378.425 264.802 378.897 263.989C379.379 263.176 380.027 262.543 380.84 262.091C381.663 261.63 382.562 261.399 383.535 261.399C384.519 261.399 385.418 261.63 386.231 262.091C387.054 262.543 387.702 263.176 388.173 263.989C388.645 264.802 388.881 265.72 388.881 266.744C388.881 267.768 388.645 268.692 388.173 269.515C387.702 270.328 387.054 270.966 386.231 271.428C385.418 271.88 384.519 272.105 383.535 272.105ZM383.535 270.615C384.228 270.615 384.845 270.459 385.388 270.148C385.93 269.827 386.351 269.375 386.653 268.792C386.964 268.2 387.119 267.517 387.119 266.744C387.119 265.971 386.964 265.294 386.653 264.712C386.351 264.129 385.93 263.683 385.388 263.371C384.845 263.06 384.228 262.904 383.535 262.904C382.843 262.904 382.225 263.06 381.683 263.371C381.141 263.683 380.714 264.129 380.403 264.712C380.102 265.294 379.951 265.971 379.951 266.744C379.951 267.517 380.102 268.2 380.403 268.792C380.714 269.375 381.141 269.827 381.683 270.148C382.225 270.459 382.843 270.615 383.535 270.615ZM399.169 272H397.452L392.287 264.184V272H390.571V261.519H392.287L397.452 269.32V261.519H399.169V272ZM404.842 261.534C405.956 261.534 406.93 261.75 407.763 262.182C408.606 262.603 409.254 263.216 409.706 264.019C410.168 264.812 410.398 265.741 410.398 266.805C410.398 267.869 410.168 268.792 409.706 269.576C409.254 270.359 408.606 270.961 407.763 271.383C406.93 271.794 405.956 272 404.842 272H401.423V261.534H404.842ZM404.842 270.6C406.067 270.6 407.005 270.268 407.658 269.606C408.31 268.943 408.637 268.009 408.637 266.805C408.637 265.59 408.31 264.641 407.658 263.959C407.005 263.276 406.067 262.935 404.842 262.935H403.14V270.6H404.842ZM424.369 261.534V272H422.653V267.422H417.728V272H416.012V261.534H417.728V266.022H422.653V261.534H424.369ZM432.939 269.862H428.557L427.804 272H426.012L429.762 261.519H431.749L435.499 272H433.692L432.939 269.862ZM432.457 268.461L430.755 263.597L429.039 268.461H432.457ZM445.728 272H444.011L438.846 264.184V272H437.129V261.519H438.846L444.011 269.32V261.519H445.728V272ZM451.401 261.534C452.515 261.534 453.489 261.75 454.322 262.182C455.165 262.603 455.813 263.216 456.265 264.019C456.726 264.812 456.957 265.741 456.957 266.805C456.957 267.869 456.726 268.792 456.265 269.576C455.813 270.359 455.165 270.961 454.322 271.383C453.489 271.794 452.515 272 451.401 272H447.982V261.534H451.401ZM451.401 270.6C452.625 270.6 453.564 270.268 454.217 269.606C454.869 268.943 455.195 268.009 455.195 266.805C455.195 265.59 454.869 264.641 454.217 263.959C453.564 263.276 452.625 262.935 451.401 262.935H449.699V270.6H451.401ZM469.979 261.429V263.492H467.178V272H464.603V263.492H461.802V261.429H469.979ZM476.663 272L474.464 268.009H473.847V272H471.272V261.429H475.594C476.427 261.429 477.135 261.574 477.717 261.865C478.309 262.157 478.751 262.558 479.042 263.07C479.333 263.572 479.479 264.134 479.479 264.757C479.479 265.459 479.278 266.087 478.876 266.639C478.485 267.191 477.903 267.583 477.13 267.814L479.569 272H476.663ZM473.847 266.187H475.443C475.915 266.187 476.266 266.072 476.497 265.841C476.738 265.61 476.859 265.284 476.859 264.862C476.859 264.461 476.738 264.144 476.497 263.913C476.266 263.683 475.915 263.567 475.443 263.567H473.847V266.187ZM487.676 270.133H483.73L483.098 272H480.403L484.227 261.429H487.209L491.034 272H488.308L487.676 270.133ZM487.013 268.145L485.703 264.275L484.408 268.145H487.013ZM491.761 266.699C491.761 265.655 491.987 264.727 492.439 263.913C492.891 263.09 493.518 262.453 494.321 262.001C495.135 261.539 496.053 261.308 497.077 261.308C498.332 261.308 499.406 261.64 500.3 262.302C501.193 262.965 501.791 263.868 502.092 265.013H499.261C499.05 264.571 498.749 264.235 498.357 264.004C497.976 263.773 497.539 263.657 497.047 263.657C496.254 263.657 495.611 263.934 495.12 264.486C494.628 265.038 494.382 265.776 494.382 266.699C494.382 267.623 494.628 268.361 495.12 268.913C495.611 269.465 496.254 269.741 497.047 269.741C497.539 269.741 497.976 269.626 498.357 269.395C498.749 269.164 499.05 268.828 499.261 268.386H502.092C501.791 269.53 501.193 270.434 500.3 271.096C499.406 271.749 498.332 272.075 497.077 272.075C496.053 272.075 495.135 271.849 494.321 271.398C493.518 270.936 492.891 270.298 492.439 269.485C491.987 268.672 491.761 267.743 491.761 266.699ZM511.273 261.429V263.492H508.472V272H505.897V263.492H503.096V261.429H511.273ZM517.565 272.105C516.571 272.105 515.658 271.875 514.825 271.413C514.001 270.951 513.344 270.308 512.852 269.485C512.37 268.652 512.129 267.718 512.129 266.684C512.129 265.65 512.37 264.722 512.852 263.898C513.344 263.075 514.001 262.433 514.825 261.971C515.658 261.509 516.571 261.278 517.565 261.278C518.559 261.278 519.468 261.509 520.291 261.971C521.124 262.433 521.777 263.075 522.249 263.898C522.73 264.722 522.971 265.65 522.971 266.684C522.971 267.718 522.73 268.652 522.249 269.485C521.767 270.308 521.114 270.951 520.291 271.413C519.468 271.875 518.559 272.105 517.565 272.105ZM517.565 269.756C518.409 269.756 519.081 269.475 519.583 268.913C520.095 268.351 520.351 267.608 520.351 266.684C520.351 265.751 520.095 265.008 519.583 264.456C519.081 263.893 518.409 263.612 517.565 263.612C516.712 263.612 516.029 263.888 515.517 264.44C515.015 264.993 514.764 265.741 514.764 266.684C514.764 267.618 515.015 268.366 515.517 268.928C516.029 269.48 516.712 269.756 517.565 269.756ZM529.795 272L527.596 268.009H526.979V272H524.404V261.429H528.726C529.559 261.429 530.267 261.574 530.849 261.865C531.441 262.157 531.883 262.558 532.174 263.07C532.465 263.572 532.611 264.134 532.611 264.757C532.611 265.459 532.41 266.087 532.009 266.639C531.617 267.191 531.035 267.583 530.262 267.814L532.701 272H529.795ZM526.979 266.187H528.575C529.047 266.187 529.398 266.072 529.629 265.841C529.87 265.61 529.991 265.284 529.991 264.862C529.991 264.461 529.87 264.144 529.629 263.913C529.398 263.683 529.047 263.567 528.575 263.567H526.979V266.187ZM541.244 272.105C540.471 272.105 539.778 271.98 539.165 271.729C538.553 271.478 538.061 271.107 537.69 270.615C537.328 270.123 537.138 269.53 537.117 268.838H539.858C539.898 269.229 540.034 269.53 540.265 269.741C540.496 269.942 540.797 270.042 541.168 270.042C541.55 270.042 541.851 269.957 542.072 269.786C542.293 269.606 542.403 269.36 542.403 269.048C542.403 268.787 542.313 268.572 542.132 268.401C541.961 268.23 541.746 268.09 541.485 267.979C541.234 267.869 540.872 267.743 540.4 267.603C539.718 267.392 539.16 267.181 538.729 266.97C538.297 266.76 537.926 266.448 537.614 266.037C537.303 265.625 537.148 265.088 537.148 264.425C537.148 263.442 537.504 262.674 538.217 262.121C538.93 261.559 539.858 261.278 541.003 261.278C542.167 261.278 543.106 261.559 543.819 262.121C544.531 262.674 544.913 263.447 544.963 264.44H542.177C542.157 264.099 542.032 263.833 541.801 263.642C541.57 263.442 541.274 263.341 540.912 263.341C540.601 263.341 540.35 263.427 540.159 263.597C539.969 263.758 539.873 263.994 539.873 264.305C539.873 264.646 540.034 264.912 540.355 265.103C540.676 265.294 541.178 265.5 541.861 265.72C542.544 265.951 543.096 266.172 543.517 266.383C543.949 266.594 544.321 266.9 544.632 267.302C544.943 267.703 545.099 268.22 545.099 268.853C545.099 269.455 544.943 270.002 544.632 270.494C544.331 270.986 543.889 271.378 543.307 271.669C542.724 271.96 542.037 272.105 541.244 272.105ZM554.288 261.429V263.492H551.487V272H548.912V263.492H546.111V261.429H554.288ZM560.58 272.105C559.586 272.105 558.672 271.875 557.839 271.413C557.016 270.951 556.358 270.308 555.867 269.485C555.385 268.652 555.144 267.718 555.144 266.684C555.144 265.65 555.385 264.722 555.867 263.898C556.358 263.075 557.016 262.433 557.839 261.971C558.672 261.509 559.586 261.278 560.58 261.278C561.574 261.278 562.482 261.509 563.306 261.971C564.139 262.433 564.791 263.075 565.263 263.898C565.745 264.722 565.986 265.65 565.986 266.684C565.986 267.718 565.745 268.652 565.263 269.485C564.781 270.308 564.129 270.951 563.306 271.413C562.482 271.875 561.574 272.105 560.58 272.105ZM560.58 269.756C561.423 269.756 562.096 269.475 562.598 268.913C563.11 268.351 563.366 267.608 563.366 266.684C563.366 265.751 563.11 265.008 562.598 264.456C562.096 263.893 561.423 263.612 560.58 263.612C559.727 263.612 559.044 263.888 558.532 264.44C558.03 264.993 557.779 265.741 557.779 266.684C557.779 267.618 558.03 268.366 558.532 268.928C559.044 269.48 559.727 269.756 560.58 269.756ZM572.81 272L570.611 268.009H569.994V272H567.419V261.429H571.74C572.574 261.429 573.282 261.574 573.864 261.865C574.456 262.157 574.898 262.558 575.189 263.07C575.48 263.572 575.626 264.134 575.626 264.757C575.626 265.459 575.425 266.087 575.023 266.639C574.632 267.191 574.05 267.583 573.276 267.814L575.716 272H572.81ZM569.994 266.187H571.59C572.062 266.187 572.413 266.072 572.644 265.841C572.885 265.61 573.005 265.284 573.005 264.862C573.005 264.461 572.885 264.144 572.644 263.913C572.413 263.683 572.062 263.567 571.59 263.567H569.994V266.187ZM579.817 263.492V265.63H583.266V267.618H579.817V269.937H583.717V272H577.242V261.429H583.717V263.492H579.817Z" fill="white"/>
<path d="M621.365 29.7738V230.153H565.995V98.8516C557.035 105.661 548.345 111.171 539.923 115.382C531.59 119.593 521.108 123.625 508.475 127.477V82.5901C527.111 76.5873 541.58 69.3748 551.884 60.9529C562.187 52.531 570.251 42.1379 576.074 29.7738H621.365Z" fill="#722875"/>
<path d="M271.111 105.761C270.78 107.008 269.981 108.05 268.86 108.695L265.459 110.651C266.825 114.15 267.965 117.736 268.85 121.36C268.636 121.313 268.42 121.263 268.203 121.218C263.634 119.516 258.962 117.962 254.208 116.56C254.005 115.999 253.791 115.439 253.565 114.88C252.375 111.841 251.002 108.9 249.443 106.073C248.917 105.118 248.372 104.174 247.806 103.238C243.511 96.1561 238.104 89.8331 231.819 84.5024C231.224 83.9955 230.631 83.5005 230.027 83.0222C227.502 81.0065 224.844 79.1455 222.066 77.4487C221.141 76.8847 220.196 76.3398 219.242 75.8114C212.119 71.8777 204.297 69.0505 196.006 67.5608C191.563 66.7516 186.993 66.3328 182.327 66.3328C181.81 66.3328 181.303 66.3423 180.787 66.3518C172.291 66.5184 164.126 68.0677 156.527 70.7949C155.192 71.2637 153.879 71.7801 152.572 72.3251C149.288 73.7172 146.133 75.326 143.101 77.1465H143.091C142.965 77.2155 142.849 77.2845 142.732 77.3607C135.64 81.6586 129.296 87.0749 123.967 93.3599C123.46 93.9429 122.973 94.5379 122.487 95.1424C120.469 97.6744 118.599 100.335 116.914 103.112C116.347 104.038 115.802 104.983 115.276 105.937C113.306 109.497 111.616 113.229 110.238 117.112C105.427 118.576 100.705 120.197 96.0907 121.97C95.9289 122.005 95.767 122.043 95.6052 122.081C96.4143 118.671 97.4376 115.309 98.6656 112.017L113.844 107.836L114.046 107.486L114.877 106.054L114.793 106.077L100.791 109.921C100.37 110.04 99.9412 110.097 99.5128 110.097C98.6656 110.097 97.8279 109.873 97.0973 109.454L95.7813 108.695C94.6604 108.05 93.8632 107.008 93.5301 105.761C93.1993 104.514 93.3658 103.21 94.0084 102.098L102.864 86.7536C103.732 85.2639 105.329 84.3382 107.054 84.3382C107.902 84.3382 108.739 84.5619 109.47 84.9902L112.87 86.9488C114.867 84.4643 117.002 82.0869 119.282 79.8166C121.209 77.8866 123.218 76.0566 125.302 74.3122L140.504 78.2888L140.531 78.2959L142.313 77.2631L142.323 77.2536H142.332L142.684 77.0394L142.549 77.0061L127.494 73.3484C126.89 73.2008 126.364 72.8415 126.014 72.3346C126.004 72.3346 126.004 72.3251 126.004 72.3251C125.693 72.0228 125.429 71.6825 125.214 71.3113L124.455 69.9953C123.13 67.6964 123.92 64.7264 126.228 63.4009L141.563 54.5434C142.294 54.115 143.132 53.8913 143.979 53.8913C145.704 53.8913 147.301 54.8266 148.158 56.3187L150.116 59.698C155.652 57.5538 161.361 55.976 167.186 54.9837L178.4 66.0401H180.475L180.413 65.9806L170.071 55.7809C169.155 54.8766 168.638 53.6296 168.638 52.3421V50.8333C168.638 48.1632 170.801 46 173.46 46H191.182C193.842 46 196.006 48.1632 196.006 50.8333V54.7481C201.86 55.6452 207.578 57.1254 213.152 59.1816L217.331 74.3717L218.72 75.176L219.116 75.4045H219.125V75.3974L215.246 61.3257C214.906 60.0883 215.082 58.7342 215.724 57.6228L216.484 56.3068C217.34 54.8266 218.949 53.8913 220.662 53.8913C221.512 53.8913 222.35 54.115 223.08 54.5434L238.425 63.4009C240.724 64.736 241.523 67.6964 240.188 69.9953L238.22 73.4055C240.695 75.4045 243.082 77.5368 245.35 79.8166C247.28 81.7371 249.122 83.7527 250.847 85.8279L246.89 101.056L247.913 102.839L251.597 88.7122C251.928 87.4652 252.747 86.3824 253.858 85.7399L255.172 84.9902C255.902 84.5619 256.74 84.3382 257.589 84.3382C259.303 84.3382 260.912 85.2639 261.768 86.7536L270.623 102.098C271.278 103.21 271.442 104.514 271.111 105.761Z" fill="#722875"/>
<path d="M93.5946 150.722L93.5161 150.001C93.5232 150.068 93.528 150.132 93.5327 150.198C93.5327 150.194 93.5327 150.189 93.5327 150.184L93.5137 150.003C93.5446 150.306 93.5636 150.598 93.6017 150.889C93.6017 150.877 93.6017 150.862 93.5993 150.851V150.846C93.5993 150.846 93.5993 150.841 93.5993 150.836C93.5993 150.853 93.6017 150.872 93.6041 150.889C93.6041 150.829 93.5946 150.772 93.5946 150.722Z" fill="#722875"/>
<path d="M264.255 177.338V177.328C264.272 177.29 264.289 177.254 264.303 177.216C264.303 177.214 264.305 177.209 264.308 177.207C264.308 177.202 264.312 177.197 264.315 177.192C264.339 177.138 264.362 177.083 264.384 177.028C264.408 176.966 264.434 176.904 264.46 176.843C264.465 176.831 264.47 176.821 264.472 176.812C264.508 176.716 264.55 176.628 264.586 176.533L264.541 176.64L264.546 176.631L264.246 177.323C264.246 177.323 264.236 177.333 264.236 177.342H264.255V177.338Z" fill="#722875"/>
<path d="M270.678 182.811C270.662 182.842 270.643 182.87 270.626 182.901L261.771 198.236C260.914 199.726 259.305 200.652 257.592 200.652C256.742 200.652 255.905 200.428 255.174 200.009L251.764 198.041C249.758 200.516 247.633 202.894 245.353 205.174C243.425 207.101 241.429 208.943 239.353 210.668L224.125 206.704L222.333 207.737L236.469 211.418C237.716 211.739 238.787 212.567 239.43 213.679L240.191 214.995C241.526 217.303 240.727 220.254 238.428 221.589L223.083 230.447C222.352 230.875 221.515 231.099 220.665 231.099C218.952 231.099 217.343 230.173 216.486 228.681L214.518 225.283C208.985 227.434 203.276 229.014 197.45 230.006L186.237 218.95H184.171L194.576 229.209C195.492 230.114 196.008 231.361 196.008 232.648V234.166C196.008 236.827 193.845 239 191.184 239H173.462C170.804 239 168.641 236.827 168.641 234.166V230.242H168.631C162.784 229.345 157.056 227.855 151.483 225.799L147.304 210.618L145.521 209.595L149.398 223.674C149.741 224.911 149.565 226.256 148.922 227.367L148.16 228.681C147.304 230.173 145.695 231.099 143.982 231.099C143.134 231.099 142.297 230.875 141.566 230.447L126.231 221.589C123.922 220.254 123.123 217.303 124.458 214.995L126.426 211.585C123.942 209.595 121.564 207.453 119.284 205.174C117.354 203.244 115.524 201.237 113.799 199.162L117.764 183.944L116.721 182.161L113.04 196.287C112.718 197.525 111.89 198.605 110.779 199.25L109.472 200.009C108.732 200.428 107.904 200.652 107.057 200.652C105.332 200.652 103.735 199.726 102.866 198.236L94.1182 183.087C101.158 181.49 108.235 180.193 115.329 179.146C115.817 180.022 116.319 180.89 116.828 181.742C121.126 188.824 126.543 195.157 132.825 200.488C133.42 201.004 134.025 201.49 134.629 201.968C137.152 203.993 139.812 205.854 142.58 207.541C143.503 208.105 144.45 208.65 145.405 209.176C152.525 213.112 160.35 215.94 168.641 217.429C169.4 217.575 170.162 217.703 170.93 217.82V217.829C174.093 218.298 177.317 218.572 180.594 218.638L180.585 218.629C181.137 218.648 181.68 218.657 182.232 218.657H182.329C182.627 218.657 182.922 218.657 183.219 218.65C183.431 218.648 183.645 218.645 183.857 218.638C183.879 218.641 183.9 218.641 183.921 218.636C184.078 218.634 184.235 218.631 184.393 218.626C184.621 218.622 184.849 218.614 185.078 218.605C185.142 218.603 185.204 218.6 185.268 218.598C185.573 218.586 185.875 218.574 186.18 218.557C186.199 218.557 186.218 218.555 186.237 218.555C186.544 218.541 186.851 218.522 187.158 218.503C194.469 218.048 201.508 216.568 208.119 214.195C208.85 213.941 209.568 213.669 210.289 213.377L210.282 213.365C213.309 212.177 216.243 210.799 219.068 209.248L219.097 209.255C220.053 208.738 220.989 208.193 221.912 207.627C227.169 204.443 232.012 200.645 236.334 196.33C236.7 195.971 237.059 195.602 237.414 195.231C237.54 195.105 237.664 194.974 237.783 194.845C238.016 194.603 238.244 194.357 238.473 194.112C238.654 193.92 238.832 193.722 239.011 193.527C239.213 193.308 239.411 193.087 239.606 192.865C239.967 192.458 240.324 192.047 240.677 191.63C240.734 191.566 240.788 191.502 240.841 191.437C241.291 190.916 241.724 190.386 242.159 189.848L242.152 189.843C244.177 187.313 246.045 184.653 247.742 181.876H247.73C248.297 180.952 248.842 180.007 249.368 179.053C249.403 178.989 249.437 178.925 249.472 178.86C256.483 179.905 263.541 181.204 270.678 182.811Z" fill="#722875"/>
<path d="M271.154 134.625H271.163L271.125 134.266C271.135 134.382 271.144 134.508 271.154 134.625Z" fill="#722875"/>
<path d="M282.654 135.116C215.325 114.681 149.986 114.681 82.6602 135.116C93.9117 129.821 105.984 125.535 118.566 122.256C159.603 111.561 206.056 111.587 247.067 122.339C259.535 125.606 271.498 129.866 282.654 135.116Z" fill="#E55E25"/>
<path fill-rule="evenodd" clip-rule="evenodd" d="M277.402 180.29C221.401 158.393 143.913 158.396 87.9121 180.29C119.337 172.365 151.704 170.787 182.665 170.67C214.554 170.549 245.034 172.127 277.402 180.29Z" fill="#E55E25"/>
<path fill-rule="evenodd" clip-rule="evenodd" d="M262.58 180.167L263.018 180.051C262.989 180.11 262.958 180.167 262.93 180.227C262.813 180.198 262.697 180.189 262.58 180.167Z" fill="white"/>
<path fill-rule="evenodd" clip-rule="evenodd" d="M264.246 177.323L264.586 176.533C264.548 176.64 264.498 176.738 264.46 176.845C264.391 177.012 264.334 177.166 264.255 177.333V177.342H264.236C264.236 177.342 264.246 177.333 264.246 177.323Z" fill="white"/>
<path fill-rule="evenodd" clip-rule="evenodd" d="M271.164 134.631H271.155C271.145 134.514 271.135 134.388 271.126 134.271L271.164 134.631Z" fill="white"/>
<path d="M124.12 163.616C125.162 164.149 125.681 164.418 126.714 164.96C128.482 162.983 129.382 162.002 131.214 160.053C133.366 161.319 134.429 161.964 136.531 163.271C137.147 162.695 137.456 162.407 138.08 161.836C135.05 160.027 133.513 159.144 130.386 157.419C127.825 159.87 126.574 161.112 124.12 163.618V163.616Z" fill="#722875"/>
<path d="M128.162 133.573C130.886 133.095 133.333 131.655 134.815 129.097C133.764 128.609 133.235 128.366 132.174 127.886C131.051 129.994 128.971 131.22 126.71 131.624C124.523 132.017 122.224 131.608 120.415 130.299C119.959 130.813 119.732 131.07 119.28 131.584C121.898 133.438 125.106 134.111 128.162 133.573Z" fill="#722875"/>
<path d="M182.358 132.272C176.696 132.275 173.864 132.341 168.21 132.603C156.597 133.139 145.014 134.328 133.534 136.163C126 137.367 122.245 138.086 114.774 139.754C114.808 139.897 114.822 139.969 114.855 140.114C115.212 140.349 115.388 140.468 115.743 140.704C116.3 141.17 116.578 141.404 117.13 141.872C121.183 140.992 123.215 140.587 127.287 139.845C127.523 141.135 127.639 141.777 127.875 143.067C128.013 143.824 127.827 144.05 125.667 145.247C124.907 145.663 124.529 145.875 123.775 146.296C120.921 147.85 120.046 149.383 120.414 151.115C121.181 154.711 126.664 157.108 130.826 156.356C133.66 155.844 135.419 154.816 136.59 153.75C135.728 152.857 135.295 152.412 134.422 151.527C133.506 152.458 131.768 153.697 129.189 154.173C125.645 154.828 123.829 153.271 123.537 151.829C123.27 150.518 123.934 149.521 126.359 148.107C127.159 147.643 127.559 147.41 128.365 146.951C131.012 145.48 131.447 144.776 131.221 143.457C130.933 141.784 130.79 140.949 130.505 139.276C131.909 139.036 132.846 138.879 133.939 138.705C134.241 138.657 134.531 138.61 134.814 138.564C135.117 138.517 135.436 138.469 135.785 138.415C135.785 138.415 135.785 138.415 135.785 138.412C139.377 137.851 141.706 137.536 145.802 137.044C146.133 139.79 146.297 141.163 146.628 143.912C147.03 147.263 145.666 149.473 143.02 149.83C140.997 150.104 139.548 148.698 139.312 147.077C139.017 145.059 140.531 143.721 142.523 143.455C143.02 143.388 143.715 143.431 144.191 143.472C144.234 143.357 144.255 143.303 144.298 143.188C143.52 142.303 143.127 141.863 142.337 140.985C141.823 140.951 141.566 140.951 141.061 141.023C138.118 141.427 136.147 143.395 136.609 146.368C136.854 147.953 138.011 149.397 139.227 150.399C140.719 151.629 142.549 152.35 144.207 152.132C145.935 151.903 147.111 150.887 147.63 149.916C147.753 151.249 147.787 152.993 147.97 154.823C148.558 155.09 148.85 155.223 149.436 155.492C149.867 155.751 150.083 155.882 150.511 156.144C150.716 156.12 150.818 156.111 151.023 156.087C150.688 153.031 150.519 151.503 150.183 148.445C149.826 145.19 151.225 142.843 153.938 142.584C154.866 142.496 155.607 142.731 156.259 143.212C155.502 143.983 155.223 144.847 155.312 145.813C155.647 149.473 160.787 152.503 164.997 152.248C167.862 152.074 169.723 151.263 171.008 150.342C170.261 149.354 169.883 148.862 169.124 147.879C168.108 148.695 166.242 149.721 163.634 149.887C160.052 150.118 158.436 148.357 158.317 146.891C158.208 145.559 158.981 144.647 161.547 143.529C162.391 143.162 162.817 142.979 163.667 142.617C166.458 141.47 166.97 140.82 166.901 139.485C166.813 137.791 166.77 136.944 166.682 135.247C168.1 135.173 169.048 135.13 170.152 135.085C170.48 135.071 170.782 135.059 171.07 135.05C171.365 135.04 171.675 135.028 172.015 135.016C173.291 134.971 174.345 134.942 175.961 134.909C176.018 137.541 176.044 138.857 176.101 141.492C176.115 142.127 175.659 142.536 174.769 142.56C174.2 142.574 173.555 142.46 172.977 142.277C172.479 142.827 172.232 143.103 171.739 143.657C172.198 144.542 173.274 146.301 176.027 149.516C177.772 151.551 178.629 152.574 180.313 154.633C181.077 154.2 181.458 153.983 182.227 153.555C178.652 150.016 176.037 146.875 176.025 146.306C176.018 146.006 176.192 145.901 176.437 145.763C178.557 144.25 179.266 143.345 179.247 141.575C179.219 138.888 179.204 137.546 179.174 134.859C181.177 134.838 182.177 134.835 184.181 134.845C184.181 134.697 184.181 134.624 184.181 134.476C183.89 134.167 183.743 134.012 183.452 133.705C183.014 133.129 182.793 132.841 182.351 132.268L182.358 132.272ZM161.197 140.611C160.397 140.935 160 141.099 159.202 141.43C158.574 141.68 158.053 141.922 157.61 142.194C156.311 140.825 154.817 139.983 152.803 140.18C151.004 140.356 149.878 141.389 149.364 142.286C149.41 141.711 149.338 139.733 149.048 137.077C149.031 136.918 149.022 136.839 149.005 136.68C154.769 136.049 157.656 135.802 163.438 135.442C163.519 136.749 163.56 137.403 163.641 138.71C163.688 139.476 163.479 139.681 161.199 140.613L161.197 140.611Z" fill="#722875"/>
<path d="M248.497 139.354C247.388 139.113 246.274 138.88 245.163 138.651C244.328 137.274 243.702 135.555 244.002 134.049C244.275 132.673 245.408 132.217 246.481 132.436C247.666 132.681 248.43 133.63 248.209 135.394C248.785 135.353 249.073 135.332 249.651 135.294C250.427 132.795 249.154 130.422 246.427 129.865C244.261 129.423 242.172 130.422 241.746 132.654C241.393 134.496 242.186 136.493 243.247 138.261C232.99 136.217 222.629 134.692 212.217 133.692C212.217 133.692 212.217 133.692 212.217 133.69C203.491 132.852 199.114 132.588 190.359 132.369C190.354 132.516 190.354 132.59 190.35 132.735C190.638 133.049 190.778 133.207 191.064 133.523C191.49 134.111 191.699 134.404 192.12 134.991C197.541 135.16 200.252 135.303 205.666 135.71C205.449 138.59 205.34 140.029 205.123 142.909C204.883 146.107 202.422 147.93 199.69 147.771C197.027 147.616 195.816 145.665 195.89 143.996C195.987 141.826 197.867 140.769 200.09 140.898C200.88 140.943 201.765 141.167 202.534 141.486C202.627 141.386 202.674 141.333 202.767 141.234C202.248 140.194 201.984 139.675 201.454 138.637C200.783 138.328 199.888 138.14 199.091 138.097C196.052 137.933 193.486 139.718 193.381 142.623C193.317 144.361 194.367 146.205 195.485 147.523C196.823 149.099 198.398 150.17 200.345 150.286C202.81 150.436 204.183 149.306 204.888 148.387C204.683 151.086 204.293 153.504 204.293 153.504C204.845 153.894 205.118 154.089 205.668 154.482C206.068 154.836 206.266 155.012 206.663 155.367C206.868 155.384 206.97 155.393 207.175 155.41C207.841 147.633 208.177 143.742 208.843 135.965C210.425 136.1 211.377 136.186 212.705 136.319C213.046 136.35 213.388 136.388 213.731 136.422C213.755 136.422 213.776 136.426 213.798 136.429C223.188 137.343 232.679 138.751 241.915 140.615C241.677 141.821 241.56 142.426 241.322 143.632C240.58 143.451 238.445 142.802 236.298 142.419C233.935 141.995 232.286 142.609 231.56 143.913C230.706 143.333 229.59 142.747 228.126 142.523C226.268 142.24 224.502 142.84 223.512 144.253C222.622 143.087 220.982 141.719 218.795 141.457C215.894 141.107 213.619 142.761 213.341 145.453C213.019 148.544 215.18 152.169 219.449 156.155C220.037 155.786 220.332 155.6 220.925 155.236C217.896 152.371 215.996 149.441 216.303 146.752C216.527 144.794 218.074 143.858 219.78 144.07C221.023 144.225 221.927 144.784 222.631 145.688C222.517 146.01 222.422 146.436 222.374 146.8C222.272 147.561 222.322 148.782 222.531 149.587C223.678 150.148 224.247 150.431 225.385 151.003C225.168 149.822 225.144 148.739 225.266 147.911C225.587 145.696 227.05 144.587 229.107 144.908C229.923 145.036 230.611 145.282 231.144 145.572C231.101 148.273 233.359 151.26 235.458 152.116C235.458 152.116 239.313 151.478 240.875 151.79C241.672 151.95 242.093 152.549 241.917 153.401C241.574 155.07 239.685 156.471 236.094 155.803C233.221 155.267 231.046 153.347 229.916 151.774C229.335 152.192 229.045 152.404 228.469 152.828C229.918 154.851 232.472 157.733 236.639 158.525C240.468 159.253 243.309 157.687 243.866 155.074C244.075 154.094 244.021 152.844 243.435 151.467C242.833 150.043 241.972 149.389 240.537 149.106C239.38 148.877 236.284 149.144 235.035 149.261C234.021 149.08 233.159 148.016 233.378 146.731C233.609 145.381 234.83 144.872 236.746 145.222C238.859 145.608 239.913 145.81 242.022 146.231C243.578 146.543 244.011 146.229 244.142 145.605C244.504 143.866 244.682 142.995 245.044 141.253C246.929 141.643 247.871 141.845 249.751 142.266C249.782 142.124 249.799 142.05 249.832 141.907C249.611 141.543 249.501 141.36 249.28 140.998C248.971 140.341 248.816 140.013 248.504 139.356L248.497 139.354Z" fill="#722875"/>
<path d="M202.027 114.963C200.066 114.963 198.221 114.199 196.834 112.811C195.447 111.424 194.683 109.58 194.683 107.619C194.683 105.658 195.447 103.814 196.834 102.426C198.221 101.039 200.066 100.275 202.027 100.275C203.988 100.275 205.832 101.039 207.219 102.426C208.607 103.814 209.371 105.658 209.371 107.619C209.371 109.58 208.607 111.424 207.219 112.811C205.832 114.199 203.988 114.963 202.027 114.963ZM202.027 101.215C200.316 101.215 198.707 101.881 197.498 103.09C196.289 104.299 195.623 105.908 195.623 107.619C195.623 109.33 196.289 110.939 197.498 112.148C198.707 113.356 200.316 114.023 202.027 114.023C203.738 114.023 205.346 113.356 206.555 112.148C207.764 110.939 208.431 109.33 208.431 107.619C208.431 105.908 207.764 104.301 206.555 103.09C205.346 101.881 203.738 101.215 202.027 101.215ZM167.225 114.963C164.262 114.963 161.478 113.809 159.381 111.714C157.287 109.62 156.133 106.834 156.133 103.871C156.133 100.908 157.287 98.1235 159.381 96.0269C161.475 93.9327 164.262 92.7786 167.225 92.7786C170.188 92.7786 172.972 93.9327 175.069 96.0269C177.165 98.1211 178.317 100.908 178.317 103.871C178.317 106.834 177.163 109.618 175.069 111.714C172.974 113.809 170.188 114.963 167.225 114.963ZM160.047 96.6933C158.129 98.6114 157.075 101.16 157.075 103.871C157.075 106.581 158.132 109.132 160.047 111.048C161.966 112.966 164.514 114.02 167.225 114.02C169.935 114.02 172.487 112.964 174.402 111.048C176.32 109.13 177.375 106.581 177.375 103.871C177.375 101.16 176.318 98.609 174.402 96.6933C172.484 94.7752 169.935 93.7209 167.225 93.7209C164.514 93.7209 161.963 94.7776 160.047 96.6933ZM201.965 112.452C200.608 112.452 199.333 111.924 198.371 110.965C197.412 110.006 196.884 108.73 196.884 107.371C196.884 106.012 197.412 104.739 198.371 103.778C199.33 102.819 200.608 102.291 201.965 102.291C203.321 102.291 204.597 102.819 205.558 103.778C206.517 104.737 207.046 106.015 207.046 107.371C207.046 108.728 206.517 110.003 205.558 110.965C204.599 111.924 203.324 112.452 201.965 112.452ZM201.965 103.231C200.858 103.231 199.818 103.661 199.035 104.444C198.252 105.227 197.822 106.267 197.822 107.374C197.822 108.48 198.252 109.52 199.035 110.303C199.818 111.086 200.858 111.517 201.965 111.517C203.071 111.517 204.111 111.086 204.894 110.303C205.677 109.52 206.108 108.48 206.108 107.374C206.108 106.267 205.677 105.227 204.894 104.444C204.111 103.661 203.071 103.231 201.965 103.231ZM167.244 110.786C165.323 110.786 163.52 110.039 162.163 108.683C160.807 107.326 160.059 105.52 160.059 103.602C160.059 101.684 160.807 99.8774 162.163 98.5209C163.52 97.1645 165.326 96.4172 167.244 96.4172C169.162 96.4172 170.968 97.1645 172.325 98.5209C173.681 99.8774 174.428 101.684 174.428 103.602C174.428 105.52 173.681 107.326 172.325 108.683C170.968 110.039 169.162 110.786 167.244 110.786ZM162.827 99.1849C161.647 100.365 160.997 101.934 160.997 103.602C160.997 105.27 161.647 106.838 162.827 108.019C164.007 109.199 165.576 109.849 167.244 109.849C168.912 109.849 170.48 109.199 171.661 108.019C172.841 106.838 173.491 105.27 173.491 103.602C173.491 101.934 172.841 100.365 171.661 99.1849C170.48 98.0045 168.912 97.3549 167.244 97.3549C165.576 97.3549 164.007 98.0045 162.827 99.1849ZM178.855 109.689H177.624C177.458 109.689 177.306 109.601 177.22 109.461C177.134 109.318 177.132 109.142 177.21 108.997C177.251 108.921 177.291 108.844 177.332 108.768C177.379 108.675 177.417 108.599 177.453 108.523C177.498 108.428 177.534 108.352 177.57 108.276C177.615 108.178 177.648 108.1 177.682 108.021C177.722 107.926 177.755 107.845 177.786 107.762C177.82 107.674 177.851 107.597 177.879 107.519C178.096 106.929 178.267 106.315 178.381 105.691C178.381 105.686 178.381 105.684 178.381 105.679C178.434 105.391 178.476 105.101 178.507 104.813L178.515 104.751C178.515 104.742 178.515 104.73 178.515 104.727C178.515 104.723 178.517 104.701 178.517 104.696V104.687V104.661V104.63C178.517 104.63 178.522 104.606 178.522 104.601L178.545 104.282V104.249V104.223H179.017L178.548 104.194C178.548 104.194 178.548 104.161 178.548 104.156H179.019L178.55 104.132V104.104C178.55 104.104 178.55 104.097 178.55 104.092C178.55 104.082 178.55 104.075 178.55 104.068L178.555 103.902C178.555 103.902 178.555 103.894 178.555 103.887C178.555 103.88 178.555 103.873 178.555 103.868V103.814L179.026 103.795L178.557 103.771V103.742L179.026 103.733L178.557 103.716V103.69C178.557 103.69 178.557 103.668 178.557 103.661V103.609L179.026 103.583H178.557V103.471C178.557 103.471 178.557 103.447 178.557 103.438V103.383C178.557 103.383 178.557 103.373 178.557 103.366C178.557 103.357 178.557 103.347 178.557 103.34C178.557 103.335 178.557 103.311 178.557 103.307V103.214C178.557 103.214 178.553 103.188 178.553 103.183C178.553 103.181 178.553 103.176 178.553 103.169C178.553 103.159 178.553 103.145 178.553 103.142C178.553 103.142 178.553 103.138 178.553 103.135C178.553 103.128 178.553 103.123 178.553 103.116C178.553 103.116 178.553 103.102 178.553 103.097C178.553 103.095 178.553 103.09 178.553 103.088C178.553 103.078 178.553 103.069 178.553 103.062C178.529 102.538 178.465 102.005 178.367 101.486C178.367 101.479 178.365 101.469 178.362 101.462L178.336 101.327L178.331 101.303C178.315 101.222 178.296 101.136 178.277 101.051L178.269 101.024C178.25 100.944 178.231 100.863 178.21 100.782L178.203 100.751C178.181 100.672 178.16 100.591 178.139 100.513L178.129 100.482C178.108 100.403 178.084 100.322 178.058 100.244L178.046 100.208C178.022 100.134 177.998 100.058 177.972 99.9845L177.958 99.9441C177.934 99.8727 177.908 99.7989 177.881 99.7275L177.865 99.6799C177.839 99.6109 177.812 99.5395 177.784 99.4681L177.762 99.4157C177.736 99.3491 177.708 99.2825 177.682 99.2158L177.66 99.1659C177.632 99.1016 177.603 99.035 177.575 98.9707L177.546 98.9041C177.517 98.8422 177.489 98.7803 177.458 98.7161L177.427 98.6542C177.398 98.5971 177.37 98.5352 177.339 98.4757C176.646 97.1121 175.699 95.9199 174.526 94.9299C174.524 94.9299 174.521 94.9251 174.519 94.9227C174.459 94.8728 174.4 94.8228 174.338 94.7728C174.267 94.7157 174.205 94.6681 174.143 94.6181C173.988 94.4991 173.831 94.3849 173.669 94.2731L173.648 94.2588C173.591 94.2183 173.531 94.1802 173.474 94.1422L173.429 94.1136C173.374 94.0779 173.317 94.0422 173.26 94.0041L173.212 93.9756C173.148 93.9375 173.084 93.897 173.02 93.8566L172.934 93.8066C172.886 93.7781 172.836 93.7495 172.786 93.7209L172.703 93.6757C172.653 93.6495 172.601 93.621 172.548 93.5924L172.089 93.3616C172.042 93.3378 171.994 93.3164 171.946 93.295L171.846 93.2497C171.796 93.2283 171.746 93.2069 171.696 93.1855L171.58 93.1355C171.532 93.1165 171.485 93.0951 171.435 93.076L171.33 93.0332C171.273 93.0118 171.218 92.9904 171.161 92.9689L171.099 92.9475C171.021 92.919 170.961 92.8975 170.902 92.8785L170.83 92.8547C170.766 92.8333 170.702 92.8119 170.635 92.7905L170.559 92.7667C170.49 92.7452 170.419 92.7238 170.347 92.7048L170.297 92.6905C170.226 92.6715 170.154 92.6524 170.085 92.6334L170.031 92.6191C169.962 92.6001 169.89 92.5834 169.819 92.5668L169.764 92.5549C169.688 92.5382 169.609 92.5215 169.531 92.5049L169.495 92.4977C169.414 92.4811 169.331 92.4644 169.245 92.4501L169.207 92.443C169.131 92.4287 169.05 92.4168 168.972 92.4049L168.931 92.3978C168.85 92.3859 168.769 92.374 168.686 92.3645L168.653 92.3597C168.567 92.3478 168.479 92.3383 168.389 92.3288C168.289 92.3193 168.196 92.3097 168.105 92.3026H168.079C167.991 92.2955 167.905 92.2883 167.82 92.2836H167.786C167.703 92.2788 167.615 92.274 167.527 92.2717H167.499C167.325 92.2669 167.139 92.2669 166.958 92.2717H166.885C166.811 92.2764 166.742 92.2788 166.67 92.2812H166.623C166.535 92.2883 166.451 92.2931 166.368 92.3002L166.297 92.305C166.232 92.3097 166.166 92.3169 166.099 92.3216L166.033 92.3288C165.949 92.3383 165.864 92.3478 165.78 92.3573L165.745 92.3621C165.671 92.3716 165.597 92.3811 165.526 92.393L165.454 92.4049C165.378 92.4168 165.304 92.4287 165.228 92.443L165.2 92.4478C165.124 92.462 165.04 92.4787 164.957 92.4954L164.895 92.5096C164.826 92.5239 164.762 92.5382 164.695 92.5525L164.655 92.562C164.56 92.5834 164.479 92.6024 164.4 92.6239L164.345 92.6381C164.283 92.6548 164.217 92.6715 164.153 92.6905L164.086 92.7095C164.01 92.731 163.931 92.7548 163.853 92.7786L163.829 92.7857C163.758 92.8095 163.686 92.8309 163.615 92.8547L163.548 92.8785C163.484 92.8999 163.417 92.9237 163.351 92.9475C163.351 92.9475 163.327 92.9547 163.324 92.957C163.236 92.9904 163.16 93.0189 163.084 93.0475L163.044 93.0641L163.02 93.0736C162.96 93.0974 162.901 93.1212 162.841 93.145L162.784 93.1688C162.71 93.1998 162.637 93.2307 162.563 93.264L162.534 93.2759C162.456 93.3116 162.396 93.3402 162.337 93.3687L162.268 93.4021C162.199 93.4354 162.127 93.4711 162.056 93.5068C161.977 93.5472 161.908 93.5829 161.839 93.621L161.773 93.6567C161.716 93.6876 161.659 93.7209 161.601 93.7519L161.559 93.7757C161.492 93.8138 161.423 93.8542 161.356 93.897L161.302 93.9304C161.244 93.9661 161.192 93.9994 161.14 94.0327L161.083 94.0684C161.016 94.1112 160.952 94.1541 160.885 94.1969L160.842 94.2255C160.79 94.2612 160.738 94.2968 160.683 94.3349L160.619 94.3801C160.564 94.4182 160.509 94.4587 160.454 94.4991L160.435 94.5134C160.364 94.5681 160.302 94.6157 160.24 94.6633L160.181 94.7085C160.133 94.7466 160.086 94.7847 160.038 94.8228L159.986 94.8656C159.926 94.9156 159.867 94.9656 159.807 95.0155L159.76 95.056C159.712 95.0964 159.667 95.1369 159.621 95.1774L159.567 95.2273C159.507 95.2821 159.45 95.3344 159.393 95.3892L159.367 95.4153C159.319 95.4629 159.269 95.5105 159.222 95.5581L159.165 95.6152C159.122 95.6581 159.077 95.7057 159.031 95.7509L159.015 95.7699C159.015 95.7699 158.998 95.7866 158.998 95.789C158.943 95.8461 158.891 95.9032 158.839 95.9603L158.793 96.0127C158.75 96.0603 158.71 96.1055 158.672 96.1483L158.624 96.2007C158.572 96.2602 158.524 96.3197 158.474 96.3791L158.441 96.422C158.396 96.4767 158.36 96.5219 158.322 96.5695L158.272 96.6338C158.229 96.6885 158.186 96.7456 158.144 96.8004L158.11 96.8456C158.07 96.9003 158.029 96.9551 157.989 97.0122L157.939 97.0812C157.908 97.1264 157.872 97.1764 157.839 97.2263L157.801 97.2835C157.76 97.3453 157.718 97.4096 157.675 97.4738L157.634 97.5357C157.603 97.5857 157.572 97.6333 157.542 97.6833L157.501 97.7499C157.461 97.8165 157.42 97.8832 157.382 97.9498L157.354 98.0022C157.325 98.0521 157.294 98.1069 157.265 98.1616L157.225 98.2354C157.194 98.2925 157.166 98.3472 157.135 98.4043L157.12 98.4329C157.075 98.5328 156.992 98.6161 156.889 98.6637C156.761 98.7232 156.611 98.7209 156.485 98.659L155.502 98.1735C155.39 98.1188 155.305 98.0188 155.264 97.8998C155.224 97.7808 155.236 97.65 155.293 97.5381C155.93 96.2863 156.759 95.1464 157.756 94.1493C160.281 91.6244 163.636 90.2346 167.208 90.2346C168.21 90.2346 169.205 90.3464 170.176 90.5654L169.367 86.227C169.34 86.089 169.379 85.9486 169.467 85.8415C169.557 85.7344 169.688 85.6725 169.828 85.6725H171.154C172.115 85.6725 173.005 86.4031 173.181 87.3384L174.076 92.1336C174.638 92.4716 175.178 92.8523 175.685 93.2664H179.274C180.326 93.2664 181.182 94.1231 181.182 95.175V96.6148C181.182 96.8741 180.973 97.0836 180.713 97.0836H178.883C179.559 98.2877 180.038 99.5799 180.311 100.932H186.825L184.378 94.3659C184.324 94.2183 184.345 94.0541 184.438 93.9256L185.252 92.8047L183.191 91.3174L182.148 92.7595C181.86 93.1569 181.304 93.2474 180.906 92.9594C180.509 92.6715 180.418 92.1146 180.706 91.7172L181.749 90.275C181.651 90.2013 181.584 90.0942 181.565 89.9728C181.546 89.849 181.575 89.7229 181.649 89.623L182.068 89.0423C182.141 88.9424 182.251 88.8733 182.375 88.8543C182.496 88.8353 182.617 88.8638 182.717 88.9328L183.562 87.762C183.85 87.3646 184.407 87.2741 184.804 87.5621C185.202 87.85 185.292 88.4069 185.004 88.8043L184.159 89.9752L186.22 91.4649L186.251 91.4221C186.591 90.9509 187.132 90.9509 187.31 90.9509H194.842V90.8985C194.433 90.6915 194.159 90.2655 194.159 89.7848V86.6673C194.159 86.1866 194.435 85.7606 194.842 85.5536V83.6378C194.842 83.6378 194.842 83.6236 194.842 83.6164C194.785 83.5855 194.657 83.5331 194.395 83.4903C194.14 83.4498 193.964 83.2095 194.004 82.9525L194.242 81.4556C194.261 81.3318 194.33 81.2224 194.43 81.1486C194.53 81.0748 194.657 81.0463 194.78 81.0653C195.547 81.189 196.153 81.458 196.582 81.8697C197.055 82.3218 197.296 82.9001 197.298 83.5855C197.298 83.6021 197.3 83.6188 197.3 83.6355V85.5155C197.748 85.7059 198.062 86.1533 198.062 86.6649V89.7824C198.062 90.2941 197.745 90.7391 197.3 90.9318V90.9485H200.408C201.658 90.9485 202.869 91.4697 203.733 92.3787C204.544 93.2331 204.959 94.3302 204.901 95.4653L204.773 97.945C206.358 98.402 207.805 99.2563 208.98 100.432C209.035 100.487 209.09 100.541 209.142 100.598C209.228 100.689 209.275 100.81 209.273 100.934C209.271 101.058 209.218 101.177 209.128 101.262L208.473 101.886C208.285 102.064 207.988 102.057 207.81 101.869C206.294 100.28 204.249 99.4062 202.055 99.4062C197.669 99.4062 194.102 102.974 194.102 107.359C194.102 107.9 194.157 108.44 194.264 108.963C194.292 109.101 194.257 109.244 194.169 109.354C194.078 109.463 193.945 109.527 193.805 109.527H192.884C192.658 109.527 192.462 109.366 192.422 109.142C192.362 108.813 192.317 108.483 192.291 108.15H179.783C179.626 108.583 179.445 109.009 179.245 109.423C179.167 109.585 179.002 109.687 178.822 109.687L178.855 109.689ZM178.384 108.752H178.555C178.736 108.354 178.895 107.947 179.033 107.536C179.098 107.343 179.276 107.214 179.478 107.214H192.765C192.957 107.214 193.122 107.328 193.195 107.495C193.195 107.452 193.195 107.407 193.195 107.364C193.195 102.462 197.184 98.471 202.089 98.471C202.755 98.471 203.409 98.5424 204.042 98.6828C203.919 98.5923 203.842 98.4424 203.852 98.2806L204 95.4225C204.045 94.5467 203.721 93.6971 203.088 93.0308C202.4 92.3074 201.439 91.8933 200.447 91.8933H196.87C196.61 91.8933 196.401 91.6839 196.401 91.4245V90.5677C196.401 90.3131 196.606 90.1037 196.86 90.0989C197.027 90.0942 197.162 89.9561 197.162 89.7895V86.6721C197.162 86.5055 197.027 86.3651 196.86 86.3627C196.606 86.3579 196.401 86.1485 196.401 85.8939V83.695C196.401 83.6759 196.399 83.6569 196.399 83.6378C196.406 83.1904 196.265 82.8382 195.973 82.5574C195.768 82.3599 195.485 82.21 195.132 82.1053L195.042 82.6764C195.268 82.7502 195.442 82.8454 195.57 82.9715C195.689 83.0857 195.83 83.2951 195.823 83.6426C195.823 83.6569 195.823 83.6712 195.82 83.6854V85.901C195.82 86.139 195.644 86.3389 195.409 86.3674C195.256 86.3865 195.137 86.5221 195.137 86.6744V89.7919C195.137 89.9442 195.256 90.0799 195.409 90.0989C195.644 90.1275 195.82 90.3274 195.82 90.5654V91.4268C195.82 91.6862 195.611 91.8957 195.351 91.8957H187.351C187.113 91.8957 187.075 91.948 187.053 91.9789L186.746 92.4025C186.663 92.5192 186.534 92.5858 186.403 92.5953C186.406 92.6072 186.408 92.6191 186.411 92.631C186.43 92.7548 186.401 92.8809 186.327 92.9808L185.385 94.2778L187.979 101.241C188.034 101.386 188.012 101.546 187.924 101.672C187.836 101.798 187.693 101.874 187.539 101.874H179.959C179.731 101.874 179.535 101.71 179.497 101.484C179.228 99.925 178.672 98.4496 177.841 97.0978C177.765 96.9741 177.751 96.8242 177.801 96.6885L177.889 96.4529C177.958 96.2673 178.131 96.1459 178.329 96.1459H180.285V95.175C180.285 94.6395 179.85 94.204 179.314 94.204H175.556C175.445 94.204 175.338 94.166 175.254 94.0946C174.695 93.6234 174.093 93.1998 173.46 92.8357C173.341 92.7667 173.258 92.65 173.234 92.5144L172.301 87.5097C172.21 87.0243 171.704 86.6126 171.197 86.6126H170.435L171.275 91.1175C171.306 91.2769 171.249 91.4411 171.13 91.5506C171.009 91.6601 170.84 91.6981 170.685 91.6553C169.574 91.3364 168.417 91.1746 167.251 91.1746C163.931 91.1746 160.811 92.4668 158.463 94.8156C157.649 95.6295 156.954 96.5481 156.395 97.5476L156.535 97.6166C156.549 97.5905 156.563 97.5643 156.58 97.5381L156.611 97.4834C156.654 97.4096 156.697 97.3382 156.74 97.2668L156.785 97.193C156.816 97.1431 156.849 97.0907 156.882 97.0384L156.925 96.9717C156.973 96.8979 157.018 96.8289 157.063 96.7599L157.101 96.7052C157.139 96.6504 157.175 96.5981 157.211 96.5457L157.263 96.472C157.308 96.4101 157.351 96.3482 157.396 96.2887L157.432 96.2411C157.477 96.1792 157.525 96.1198 157.57 96.0603L157.611 96.0079C157.663 95.9413 157.703 95.8913 157.744 95.8413L157.789 95.7866C157.841 95.7223 157.896 95.6581 157.951 95.5962L158.001 95.5391C158.044 95.4891 158.087 95.4415 158.129 95.3939L158.184 95.3344C158.239 95.2726 158.298 95.2107 158.355 95.1512L158.379 95.1274C158.441 95.0631 158.489 95.0132 158.539 94.9656L158.598 94.9061C158.651 94.8537 158.703 94.8037 158.755 94.7538L158.784 94.7252C158.848 94.6633 158.91 94.6062 158.974 94.5491L159.034 94.4967C159.084 94.4515 159.131 94.4087 159.181 94.3659L159.234 94.3183C159.298 94.2635 159.362 94.2088 159.426 94.1541L159.481 94.1088C159.531 94.066 159.583 94.0256 159.636 93.9851L159.698 93.9351C159.767 93.8828 159.833 93.8304 159.9 93.7804L159.931 93.7566C159.99 93.7114 160.05 93.6686 160.112 93.6258L160.178 93.5782C160.235 93.5377 160.295 93.4972 160.352 93.4568L160.395 93.4258C160.466 93.3759 160.538 93.3307 160.611 93.2831L160.671 93.245C160.73 93.2069 160.788 93.1736 160.845 93.1379L160.909 93.0998C160.98 93.057 161.056 93.0118 161.13 92.9689L161.175 92.9428C161.237 92.9071 161.299 92.8737 161.361 92.838L161.432 92.8C161.509 92.7595 161.582 92.7191 161.659 92.681C161.747 92.6358 161.823 92.5977 161.899 92.562L161.968 92.5287C162.032 92.4977 162.096 92.4668 162.161 92.4382L162.213 92.4144C162.289 92.3787 162.37 92.3454 162.451 92.3097L162.511 92.2836C162.575 92.2574 162.639 92.2312 162.703 92.205L162.772 92.1765C162.853 92.1455 162.934 92.1146 163.017 92.0837C163.02 92.0837 163.041 92.0741 163.044 92.0741C163.129 92.0432 163.201 92.017 163.274 91.9932L163.343 91.9694C163.422 91.9432 163.498 91.9195 163.574 91.8933L163.6 91.8861C163.689 91.86 163.774 91.8338 163.86 91.81L163.929 91.7909C164 91.7719 164.069 91.7529 164.141 91.7338L164.286 92.1812L164.164 91.7267L164.198 91.7172C164.283 91.6958 164.372 91.6743 164.46 91.6529L164.524 91.6386C164.593 91.622 164.664 91.6077 164.738 91.5934L164.802 91.5791C164.895 91.5601 164.983 91.5434 165.074 91.5268L165.104 91.522C165.181 91.5077 165.264 91.4959 165.347 91.4816L165.421 91.4697C165.502 91.4578 165.58 91.4459 165.659 91.4364L165.697 91.4316C165.792 91.4197 165.883 91.4102 165.975 91.4007L166.044 91.3935C166.118 91.3864 166.19 91.3792 166.261 91.3745L166.335 91.3697C166.425 91.3626 166.518 91.3578 166.608 91.3531H166.642C166.739 91.3459 166.816 91.3435 166.892 91.3412H166.97C167.165 91.334 167.363 91.334 167.558 91.3412H167.587C167.679 91.3435 167.772 91.3483 167.865 91.3531H167.901C167.991 91.3602 168.084 91.365 168.177 91.3721H168.205C168.308 91.3816 168.408 91.3911 168.505 91.4007C168.61 91.4102 168.707 91.4221 168.803 91.434L168.836 91.4387C168.924 91.4506 169.012 91.4625 169.103 91.4768L169.143 91.484C169.229 91.4982 169.314 91.5125 169.4 91.5268L169.44 91.5339C169.531 91.5506 169.621 91.5672 169.712 91.5863L169.747 91.5934C169.831 91.6101 169.916 91.6291 170 91.6482L170.057 91.6624C170.133 91.6791 170.211 91.6981 170.29 91.7196L170.347 91.7338C170.426 91.7552 170.502 91.7743 170.578 91.7957L170.63 91.81C170.711 91.8338 170.787 91.8552 170.864 91.879L170.944 91.9028C171.016 91.9266 171.087 91.948 171.156 91.9718L171.216 91.9908C171.301 92.0194 171.366 92.0432 171.43 92.067L171.516 92.0979C171.575 92.1194 171.637 92.1432 171.699 92.167L171.811 92.2122C171.863 92.2336 171.915 92.255 171.968 92.2764L172.091 92.3288C172.146 92.3526 172.201 92.3764 172.256 92.4002L172.365 92.4501C172.418 92.4739 172.47 92.4977 172.52 92.5215L172.772 92.6453C172.824 92.6715 172.877 92.7 172.929 92.7262L173.012 92.769C173.072 92.8024 173.129 92.8309 173.184 92.8618L173.269 92.9094C173.324 92.9404 173.377 92.9713 173.431 93.0022L173.524 93.057C173.593 93.0974 173.665 93.1403 173.734 93.1831L173.784 93.2141C173.848 93.2545 173.907 93.2926 173.969 93.333L174.014 93.364C174.079 93.4068 174.14 93.4497 174.205 93.4925L174.226 93.5091C174.402 93.6305 174.574 93.7566 174.738 93.8828C174.804 93.9351 174.871 93.9875 174.938 94.0398C175.011 94.0993 175.073 94.1517 175.138 94.204C175.14 94.204 175.142 94.2088 175.145 94.2112C176.418 95.2821 177.446 96.5767 178.198 98.0569C178.231 98.1211 178.262 98.1854 178.296 98.252L178.327 98.3187C178.36 98.3877 178.391 98.4567 178.422 98.5257L178.453 98.5947C178.484 98.6661 178.515 98.7375 178.545 98.8089L178.567 98.8613C178.598 98.935 178.629 99.0088 178.657 99.0802L178.679 99.1326C178.71 99.2111 178.738 99.2896 178.767 99.3658L178.786 99.4157C178.814 99.4943 178.843 99.5728 178.869 99.6513L178.883 99.6942C178.912 99.7751 178.938 99.856 178.962 99.9393L178.974 99.975C179 100.061 179.026 100.149 179.052 100.239L179.062 100.27C179.086 100.353 179.109 100.441 179.131 100.527L179.138 100.558C179.159 100.644 179.181 100.732 179.202 100.82L179.209 100.848C179.231 100.944 179.25 101.034 179.271 101.127C179.271 101.127 179.276 101.151 179.276 101.153C179.288 101.208 179.3 101.265 179.309 101.324C179.309 101.334 179.312 101.343 179.314 101.351C179.416 101.905 179.483 102.469 179.509 103.033C179.509 103.035 179.509 103.04 179.509 103.045C179.509 103.052 179.509 103.057 179.509 103.062C179.509 103.066 179.509 103.071 179.509 103.078C179.509 103.083 179.509 103.088 179.509 103.09C179.509 103.09 179.509 103.097 179.509 103.1C179.509 103.102 179.509 103.107 179.509 103.112C179.509 103.119 179.509 103.123 179.509 103.126C179.509 103.131 179.509 103.152 179.509 103.157C179.509 103.162 179.509 103.181 179.509 103.185C179.509 103.19 179.509 103.207 179.509 103.211V103.283C179.509 103.283 179.512 103.309 179.512 103.314C179.512 103.319 179.512 103.342 179.512 103.347C179.512 103.354 179.512 103.371 179.512 103.38V103.44C179.512 103.44 179.512 103.459 179.512 103.469V103.604V103.666L179.043 103.692H179.512C179.512 103.692 179.512 103.714 179.512 103.721C179.512 103.726 179.512 103.747 179.512 103.752C179.512 103.756 179.512 103.773 179.512 103.778C179.512 103.785 179.512 103.816 179.512 103.823V103.856V103.914C179.512 103.914 179.512 103.942 179.512 103.944L179.507 104.125C179.507 104.125 179.507 104.125 179.507 104.13C179.507 104.135 179.507 104.142 179.507 104.147C179.507 104.151 179.507 104.156 179.507 104.161V104.187L179.504 104.213C179.504 104.218 179.504 104.261 179.502 104.266C179.502 104.27 179.502 104.287 179.502 104.292V104.318C179.502 104.318 179.5 104.347 179.5 104.349L179.478 104.639C179.478 104.639 179.478 104.666 179.476 104.668V104.694C179.476 104.694 179.471 104.73 179.471 104.732C179.471 104.737 179.469 104.768 179.466 104.773C179.466 104.775 179.466 104.777 179.466 104.78C179.466 104.78 179.466 104.806 179.464 104.808C179.464 104.813 179.462 104.834 179.462 104.839C179.462 104.846 179.462 104.854 179.462 104.861L179.455 104.92C179.421 105.234 179.376 105.544 179.319 105.853C179.319 105.858 179.319 105.863 179.319 105.865C179.193 106.543 179.009 107.214 178.772 107.857C178.741 107.94 178.71 108.023 178.676 108.107C178.636 108.207 178.6 108.295 178.564 108.38C178.522 108.483 178.484 108.568 178.445 108.652C178.429 108.69 178.412 108.725 178.396 108.761L178.384 108.752ZM182.893 90.0585C182.896 90.0704 182.898 90.0823 182.9 90.0942C182.908 90.1441 182.908 90.1965 182.9 90.2465C182.958 90.2179 183.019 90.1989 183.081 90.1941C183.079 90.1822 183.077 90.1703 183.074 90.1584C183.067 90.1084 183.067 90.0561 183.074 90.0061C183.029 90.0299 182.981 90.0466 182.931 90.0537C182.919 90.0537 182.908 90.0561 182.893 90.0585Z" fill="#722875"/>
<path d="M182.229 218.657C181.681 218.657 181.137 218.653 180.592 218.638L180.582 218.629C181.134 218.648 181.677 218.657 182.229 218.657Z" fill="#722875"/>
<path fill-rule="evenodd" clip-rule="evenodd" d="M220.88 186.764H226.049C227.222 186.764 228.181 187.69 228.181 188.818V193.525H220.454C219.74 193.525 219.154 192.961 219.154 192.274V190.639C219.154 189.999 219.697 189.475 220.363 189.475H224.649L224.195 190.427H221.042C220.901 190.427 220.751 190.529 220.751 190.677V191.962C220.751 192.109 220.901 192.212 221.042 192.212H226.513V189.125C226.513 188.528 225.98 188.071 225.387 188.071H220.256L220.882 186.76L220.88 186.764ZM189.94 185.289V184.287H188.27V186.239L189.94 185.289ZM188.27 187.19L189.94 186.241V193.525H188.27V187.19ZM198.355 186.764C199.528 186.764 200.487 187.69 200.487 188.818V193.525H198.817V189.13C198.817 188.533 198.284 188.076 197.691 188.076H193.681V193.525H192.011V186.767C194.119 186.767 196.237 186.764 198.353 186.764H198.355ZM219.718 186.764H215.53C214.357 186.764 213.398 187.69 213.398 188.818V193.525H215.068V189.13C215.068 188.533 215.601 188.076 216.194 188.076H219.088L219.721 186.764H219.718ZM163.665 193.525H165.336V188.818C165.336 187.688 164.377 186.764 163.203 186.764H152.264V193.525H153.934V188.326C153.934 188.178 154.087 188.073 154.227 188.073H157.675C157.816 188.073 157.966 188.178 157.966 188.326V193.525H159.636V188.326C159.636 188.178 159.786 188.073 159.927 188.073H162.542C163.134 188.073 163.668 188.53 163.668 189.128V193.523L163.665 193.525ZM177.584 184.304V193.525H179.255V184.304H177.584ZM184.529 193.523H186.199V188.818C186.199 187.688 185.24 186.764 184.067 186.764H180.521L179.89 188.076H183.405C183.998 188.076 184.531 188.533 184.531 189.13V193.525L184.529 193.523ZM211.008 184.304V193.525H203.472C202.758 193.525 202.172 192.961 202.172 192.274V188.818C202.172 187.688 203.131 186.764 204.305 186.764H208.598L207.965 188.076H204.966C204.374 188.076 203.841 188.533 203.841 189.13V191.964C203.841 192.112 203.99 192.214 204.131 192.214H209.335V184.304H211.006H211.008ZM168.534 186.764H173.703C174.876 186.764 175.835 187.69 175.835 188.818V193.525H168.108C167.394 193.525 166.809 192.961 166.809 192.274V190.639C166.809 189.999 167.351 189.475 168.015 189.475H172.301L171.847 190.427H168.694C168.553 190.427 168.403 190.529 168.403 190.677V191.962C168.403 192.109 168.553 192.212 168.694 192.212H174.165V189.125C174.165 188.528 173.632 188.071 173.039 188.071H167.908L168.534 186.76V186.764Z" fill="#D80F20"/>
<path d="M139.547 186.903C139.923 186.824 140.516 186.765 141.116 186.765C141.975 186.765 142.527 186.912 142.941 187.248C143.286 187.505 143.493 187.897 143.493 188.421C143.493 189.064 143.069 189.625 142.367 189.882V189.901C142.998 190.061 143.738 190.582 143.738 191.569C143.738 192.141 143.51 192.576 143.176 192.902C142.712 193.326 141.963 193.523 140.878 193.523C140.285 193.523 139.833 193.483 139.545 193.445V186.903H139.547ZM140.406 189.625H141.187C142.096 189.625 142.627 189.152 142.627 188.509C142.627 187.728 142.034 187.424 141.166 187.424C140.771 187.424 140.544 187.452 140.406 187.483V189.625ZM140.406 192.812C140.575 192.84 140.82 192.852 141.127 192.852C142.015 192.852 142.834 192.526 142.834 191.56C142.834 190.651 142.053 190.277 141.116 190.277H140.406V192.814V192.812Z" fill="#414241"/>
<path d="M146.232 193.463V190.641L144.131 186.812H145.107L146.044 188.649C146.301 189.151 146.499 189.558 146.706 190.019H146.725C146.913 189.584 147.139 189.151 147.396 188.649L148.353 186.812H149.331L147.101 190.631V193.463H146.232Z" fill="#414241"/>
<defs>
<filter id="filter0_d_2258_12783" x="20" y="16" width="711" height="349.04" filterUnits="userSpaceOnUse" color-interpolation-filters="sRGB">
<feFlood flood-opacity="0" result="BackgroundImageFix"/>
<feColorMatrix in="SourceAlpha" type="matrix" values="0 0 0 0 0 0 0 0 0 0 0 0 0 0 0 0 0 0 127 0" result="hardAlpha"/>
<feOffset dy="43.0402"/>
<feComposite in2="hardAlpha" operator="out"/>
<feColorMatrix type="matrix" values="0 0 0 0 0.890196 0 0 0 0 0.372549 0 0 0 0 0.14902 0 0 0 1 0"/>
<feBlend mode="normal" in2="BackgroundImageFix" result="effect1_dropShadow_2258_12783"/>
<feBlend mode="normal" in="SourceGraphic" in2="effect1_dropShadow_2258_12783" result="shape"/>
</filter>
</defs>
</svg>
