<svg width="750" height="387" viewBox="0 0 750 387" fill="none" xmlns="http://www.w3.org/2000/svg">
<rect width="750" height="387" fill="#722875"/>
<g filter="url(#filter0_d_2258_12848)">
<path d="M20 22.725C20 19.0109 23.0109 16 26.725 16H724.275C727.989 16 731 19.0109 731 22.725V322H20V22.725Z" fill="#FBFBFB"/>
</g>
<path d="M336.147 59.7925V87H330.69V59.7925H336.147ZM364.809 87H359.352L346.995 68.3289V87H341.538V59.7535H346.995L359.352 78.4635V59.7535H364.809V87ZM379.713 59.7925C382.571 59.7925 385.079 60.3512 387.236 61.4686C389.419 62.586 391.095 64.1841 392.264 66.263C393.459 68.3159 394.057 70.7067 394.057 73.4352C394.057 76.1638 393.459 78.5545 392.264 80.6074C391.095 82.6343 389.419 84.2065 387.236 85.3239C385.079 86.4413 382.571 87 379.713 87H370.202V59.7925H379.713ZM379.518 82.3615C382.376 82.3615 384.585 81.5819 386.144 80.0227C387.703 78.4635 388.483 76.2677 388.483 73.4352C388.483 70.6027 387.703 68.3939 386.144 66.8087C384.585 65.1976 382.376 64.392 379.518 64.392H375.659V82.3615H379.518ZM403.599 59.7925V87H398.142V59.7925H403.599ZM425.674 81.8158H414.838L413.045 87H407.315L417.098 59.7535H423.452L433.236 87H427.467L425.674 81.8158ZM424.193 77.4501L420.256 66.0681L416.319 77.4501H424.193ZM437.984 59.7925H443.714L439.505 69.6152H435.763L437.984 59.7925ZM457.021 87.2729C455.124 87.2729 453.409 86.948 451.876 86.2984C450.369 85.6487 449.174 84.7132 448.29 83.4919C447.407 82.2705 446.952 80.8283 446.926 79.1652H452.773C452.851 80.2826 453.24 81.1661 453.942 81.8158C454.67 82.4654 455.657 82.7902 456.905 82.7902C458.178 82.7902 459.178 82.4914 459.906 81.8937C460.634 81.27 460.997 80.4645 460.997 79.477C460.997 78.6714 460.75 78.0088 460.257 77.4891C459.763 76.9693 459.139 76.5665 458.386 76.2807C457.658 75.9689 456.645 75.631 455.345 75.2672C453.578 74.7475 452.136 74.2408 451.019 73.747C449.927 73.2273 448.979 72.4607 448.173 71.4473C447.394 70.4078 447.004 69.0305 447.004 67.3155C447.004 65.7043 447.407 64.3011 448.212 63.1057C449.018 61.9103 450.148 61.0008 451.603 60.3771C453.059 59.7275 454.722 59.4027 456.593 59.4027C459.399 59.4027 461.673 60.0913 463.414 61.4686C465.181 62.8198 466.156 64.7168 466.338 67.1595H460.335C460.283 66.224 459.88 65.4574 459.126 64.8598C458.399 64.2361 457.424 63.9243 456.203 63.9243C455.137 63.9243 454.28 64.1971 453.63 64.7428C453.007 65.2885 452.695 66.0811 452.695 67.1206C452.695 67.8482 452.929 68.4589 453.396 68.9526C453.89 69.4203 454.488 69.8101 455.189 70.122C455.917 70.4078 456.931 70.7456 458.23 71.1354C459.997 71.6552 461.439 72.1749 462.557 72.6946C463.674 73.2143 464.635 73.9939 465.441 75.0334C466.247 76.0728 466.649 77.4371 466.649 79.1262C466.649 80.5814 466.273 81.9327 465.519 83.18C464.765 84.4274 463.661 85.4278 462.206 86.1814C460.75 86.909 459.022 87.2729 457.021 87.2729Z" fill="black"/>
<path d="M413.076 219H398.063L352.891 150.649V219H337.877V127.339H352.891L398.063 195.558V127.339H413.076V219ZM464.267 220.185C457.419 220.185 451.229 218.649 445.698 215.576C440.167 212.415 435.821 208.025 432.66 202.406C429.499 196.699 427.919 190.114 427.919 182.652C427.919 175.277 429.543 168.736 432.792 163.029C436.04 157.322 440.474 152.932 446.093 149.859C451.712 146.786 457.99 145.25 464.926 145.25C471.862 145.25 478.139 146.786 483.758 149.859C489.378 152.932 493.811 157.322 497.06 163.029C500.308 168.736 501.933 175.277 501.933 182.652C501.933 190.027 500.265 196.568 496.928 202.274C493.592 207.981 489.026 212.415 483.232 215.576C477.525 218.649 471.203 220.185 464.267 220.185ZM464.267 207.147C468.13 207.147 471.73 206.225 475.066 204.382C478.491 202.538 481.256 199.772 483.363 196.085C485.471 192.397 486.524 187.92 486.524 182.652C486.524 177.384 485.514 172.95 483.495 169.35C481.476 165.663 478.798 162.897 475.462 161.053C472.125 159.21 468.526 158.288 464.662 158.288C460.799 158.288 457.2 159.21 453.863 161.053C450.615 162.897 448.025 165.663 446.093 169.35C444.162 172.95 443.196 177.384 443.196 182.652C443.196 190.466 445.171 196.524 449.122 200.826C453.161 205.04 458.209 207.147 464.267 207.147Z" fill="#E35F26"/>
<path d="M522.832 219.922C520.111 219.922 517.828 219 515.984 217.156C514.14 215.312 513.218 213.03 513.218 210.308C513.218 207.586 514.14 205.304 515.984 203.46C517.828 201.616 520.111 200.694 522.832 200.694C525.466 200.694 527.705 201.616 529.549 203.46C531.393 205.304 532.315 207.586 532.315 210.308C532.315 213.03 531.393 215.312 529.549 217.156C527.705 219 525.466 219.922 522.832 219.922Z" fill="black"/>
<rect x="334" y="250" width="287" height="33" fill="#722875"/>
<path d="M353.578 272.105C352.875 272.105 352.243 271.985 351.68 271.744C351.118 271.493 350.677 271.142 350.355 270.69C350.034 270.238 349.873 269.711 349.873 269.109H351.711C351.751 269.56 351.926 269.932 352.238 270.223C352.559 270.514 353.006 270.66 353.578 270.66C354.17 270.66 354.632 270.519 354.963 270.238C355.295 269.947 355.46 269.576 355.46 269.124C355.46 268.772 355.355 268.486 355.144 268.265C354.943 268.045 354.687 267.874 354.376 267.753C354.075 267.633 353.653 267.502 353.111 267.362C352.428 267.181 351.871 267 351.44 266.82C351.018 266.629 350.656 266.338 350.355 265.946C350.054 265.555 349.904 265.033 349.904 264.38C349.904 263.778 350.054 263.251 350.355 262.799C350.656 262.347 351.078 262.001 351.62 261.76C352.162 261.519 352.79 261.399 353.503 261.399C354.517 261.399 355.345 261.655 355.987 262.167C356.64 262.669 357.001 263.361 357.072 264.245H355.174C355.144 263.863 354.963 263.537 354.632 263.266C354.301 262.995 353.864 262.859 353.322 262.859C352.83 262.859 352.428 262.985 352.117 263.236C351.806 263.487 351.65 263.848 351.65 264.32C351.65 264.641 351.746 264.907 351.936 265.118C352.137 265.319 352.388 265.48 352.689 265.6C352.991 265.72 353.402 265.851 353.924 265.992C354.617 266.182 355.179 266.373 355.611 266.564C356.053 266.755 356.424 267.051 356.725 267.452C357.036 267.844 357.192 268.371 357.192 269.033C357.192 269.565 357.046 270.067 356.755 270.539C356.474 271.011 356.058 271.393 355.505 271.684C354.963 271.965 354.321 272.105 353.578 272.105ZM360.934 262.92V265.992H364.548V267.392H360.934V270.6H365V272H359.218V261.519H365V262.92H360.934ZM366.542 266.744C366.542 265.72 366.778 264.802 367.25 263.989C367.732 263.176 368.38 262.543 369.193 262.091C370.016 261.63 370.915 261.399 371.888 261.399C373.003 261.399 373.992 261.675 374.855 262.227C375.728 262.769 376.361 263.542 376.752 264.546H374.689C374.418 263.994 374.042 263.582 373.56 263.311C373.078 263.04 372.521 262.904 371.888 262.904C371.196 262.904 370.578 263.06 370.036 263.371C369.494 263.683 369.067 264.129 368.756 264.712C368.455 265.294 368.304 265.971 368.304 266.744C368.304 267.517 368.455 268.195 368.756 268.777C369.067 269.36 369.494 269.811 370.036 270.133C370.578 270.444 371.196 270.6 371.888 270.6C372.521 270.6 373.078 270.464 373.56 270.193C374.042 269.922 374.418 269.51 374.689 268.958H376.752C376.361 269.962 375.728 270.735 374.855 271.277C373.992 271.819 373.003 272.09 371.888 272.09C370.904 272.09 370.006 271.864 369.193 271.413C368.38 270.951 367.732 270.313 367.25 269.5C366.778 268.687 366.542 267.768 366.542 266.744ZM383.535 272.105C382.562 272.105 381.663 271.88 380.84 271.428C380.027 270.966 379.379 270.328 378.897 269.515C378.425 268.692 378.189 267.768 378.189 266.744C378.189 265.72 378.425 264.802 378.897 263.989C379.379 263.176 380.027 262.543 380.84 262.091C381.663 261.63 382.562 261.399 383.535 261.399C384.519 261.399 385.418 261.63 386.231 262.091C387.054 262.543 387.702 263.176 388.173 263.989C388.645 264.802 388.881 265.72 388.881 266.744C388.881 267.768 388.645 268.692 388.173 269.515C387.702 270.328 387.054 270.966 386.231 271.428C385.418 271.88 384.519 272.105 383.535 272.105ZM383.535 270.615C384.228 270.615 384.845 270.459 385.388 270.148C385.93 269.827 386.351 269.375 386.653 268.792C386.964 268.2 387.119 267.517 387.119 266.744C387.119 265.971 386.964 265.294 386.653 264.712C386.351 264.129 385.93 263.683 385.388 263.371C384.845 263.06 384.228 262.904 383.535 262.904C382.843 262.904 382.225 263.06 381.683 263.371C381.141 263.683 380.714 264.129 380.403 264.712C380.102 265.294 379.951 265.971 379.951 266.744C379.951 267.517 380.102 268.2 380.403 268.792C380.714 269.375 381.141 269.827 381.683 270.148C382.225 270.459 382.843 270.615 383.535 270.615ZM399.169 272H397.452L392.287 264.184V272H390.571V261.519H392.287L397.452 269.32V261.519H399.169V272ZM404.842 261.534C405.956 261.534 406.93 261.75 407.763 262.182C408.606 262.603 409.254 263.216 409.706 264.019C410.168 264.812 410.398 265.741 410.398 266.805C410.398 267.869 410.168 268.792 409.706 269.576C409.254 270.359 408.606 270.961 407.763 271.383C406.93 271.794 405.956 272 404.842 272H401.423V261.534H404.842ZM404.842 270.6C406.067 270.6 407.005 270.268 407.658 269.606C408.31 268.943 408.637 268.009 408.637 266.805C408.637 265.59 408.31 264.641 407.658 263.959C407.005 263.276 406.067 262.935 404.842 262.935H403.14V270.6H404.842ZM424.369 261.534V272H422.653V267.422H417.728V272H416.012V261.534H417.728V266.022H422.653V261.534H424.369ZM432.939 269.862H428.557L427.804 272H426.012L429.762 261.519H431.749L435.499 272H433.692L432.939 269.862ZM432.457 268.461L430.755 263.597L429.039 268.461H432.457ZM445.728 272H444.011L438.846 264.184V272H437.129V261.519H438.846L444.011 269.32V261.519H445.728V272ZM451.401 261.534C452.515 261.534 453.489 261.75 454.322 262.182C455.165 262.603 455.813 263.216 456.265 264.019C456.726 264.812 456.957 265.741 456.957 266.805C456.957 267.869 456.726 268.792 456.265 269.576C455.813 270.359 455.165 270.961 454.322 271.383C453.489 271.794 452.515 272 451.401 272H447.982V261.534H451.401ZM451.401 270.6C452.625 270.6 453.564 270.268 454.217 269.606C454.869 268.943 455.195 268.009 455.195 266.805C455.195 265.59 454.869 264.641 454.217 263.959C453.564 263.276 452.625 262.935 451.401 262.935H449.699V270.6H451.401ZM469.979 261.429V263.492H467.178V272H464.603V263.492H461.802V261.429H469.979ZM476.663 272L474.464 268.009H473.847V272H471.272V261.429H475.594C476.427 261.429 477.135 261.574 477.717 261.865C478.309 262.157 478.751 262.558 479.042 263.07C479.333 263.572 479.479 264.134 479.479 264.757C479.479 265.459 479.278 266.087 478.876 266.639C478.485 267.191 477.903 267.583 477.13 267.814L479.569 272H476.663ZM473.847 266.187H475.443C475.915 266.187 476.266 266.072 476.497 265.841C476.738 265.61 476.859 265.284 476.859 264.862C476.859 264.461 476.738 264.144 476.497 263.913C476.266 263.683 475.915 263.567 475.443 263.567H473.847V266.187ZM487.676 270.133H483.73L483.098 272H480.403L484.227 261.429H487.209L491.034 272H488.308L487.676 270.133ZM487.013 268.145L485.703 264.275L484.408 268.145H487.013ZM491.761 266.699C491.761 265.655 491.987 264.727 492.439 263.913C492.891 263.09 493.518 262.453 494.321 262.001C495.135 261.539 496.053 261.308 497.077 261.308C498.332 261.308 499.406 261.64 500.3 262.302C501.193 262.965 501.791 263.868 502.092 265.013H499.261C499.05 264.571 498.749 264.235 498.357 264.004C497.976 263.773 497.539 263.657 497.047 263.657C496.254 263.657 495.611 263.934 495.12 264.486C494.628 265.038 494.382 265.776 494.382 266.699C494.382 267.623 494.628 268.361 495.12 268.913C495.611 269.465 496.254 269.741 497.047 269.741C497.539 269.741 497.976 269.626 498.357 269.395C498.749 269.164 499.05 268.828 499.261 268.386H502.092C501.791 269.53 501.193 270.434 500.3 271.096C499.406 271.749 498.332 272.075 497.077 272.075C496.053 272.075 495.135 271.849 494.321 271.398C493.518 270.936 492.891 270.298 492.439 269.485C491.987 268.672 491.761 267.743 491.761 266.699ZM511.273 261.429V263.492H508.472V272H505.897V263.492H503.096V261.429H511.273ZM517.565 272.105C516.571 272.105 515.658 271.875 514.825 271.413C514.001 270.951 513.344 270.308 512.852 269.485C512.37 268.652 512.129 267.718 512.129 266.684C512.129 265.65 512.37 264.722 512.852 263.898C513.344 263.075 514.001 262.433 514.825 261.971C515.658 261.509 516.571 261.278 517.565 261.278C518.559 261.278 519.468 261.509 520.291 261.971C521.124 262.433 521.777 263.075 522.249 263.898C522.73 264.722 522.971 265.65 522.971 266.684C522.971 267.718 522.73 268.652 522.249 269.485C521.767 270.308 521.114 270.951 520.291 271.413C519.468 271.875 518.559 272.105 517.565 272.105ZM517.565 269.756C518.409 269.756 519.081 269.475 519.583 268.913C520.095 268.351 520.351 267.608 520.351 266.684C520.351 265.751 520.095 265.008 519.583 264.456C519.081 263.893 518.409 263.612 517.565 263.612C516.712 263.612 516.029 263.888 515.517 264.44C515.015 264.993 514.764 265.741 514.764 266.684C514.764 267.618 515.015 268.366 515.517 268.928C516.029 269.48 516.712 269.756 517.565 269.756ZM529.795 272L527.596 268.009H526.979V272H524.404V261.429H528.726C529.559 261.429 530.267 261.574 530.849 261.865C531.441 262.157 531.883 262.558 532.174 263.07C532.465 263.572 532.611 264.134 532.611 264.757C532.611 265.459 532.41 266.087 532.009 266.639C531.617 267.191 531.035 267.583 530.262 267.814L532.701 272H529.795ZM526.979 266.187H528.575C529.047 266.187 529.398 266.072 529.629 265.841C529.87 265.61 529.991 265.284 529.991 264.862C529.991 264.461 529.87 264.144 529.629 263.913C529.398 263.683 529.047 263.567 528.575 263.567H526.979V266.187ZM541.244 272.105C540.471 272.105 539.778 271.98 539.165 271.729C538.553 271.478 538.061 271.107 537.69 270.615C537.328 270.123 537.138 269.53 537.117 268.838H539.858C539.898 269.229 540.034 269.53 540.265 269.741C540.496 269.942 540.797 270.042 541.168 270.042C541.55 270.042 541.851 269.957 542.072 269.786C542.293 269.606 542.403 269.36 542.403 269.048C542.403 268.787 542.313 268.572 542.132 268.401C541.961 268.23 541.746 268.09 541.485 267.979C541.234 267.869 540.872 267.743 540.4 267.603C539.718 267.392 539.16 267.181 538.729 266.97C538.297 266.76 537.926 266.448 537.614 266.037C537.303 265.625 537.148 265.088 537.148 264.425C537.148 263.442 537.504 262.674 538.217 262.121C538.93 261.559 539.858 261.278 541.003 261.278C542.167 261.278 543.106 261.559 543.819 262.121C544.531 262.674 544.913 263.447 544.963 264.44H542.177C542.157 264.099 542.032 263.833 541.801 263.642C541.57 263.442 541.274 263.341 540.912 263.341C540.601 263.341 540.35 263.427 540.159 263.597C539.969 263.758 539.873 263.994 539.873 264.305C539.873 264.646 540.034 264.912 540.355 265.103C540.676 265.294 541.178 265.5 541.861 265.72C542.544 265.951 543.096 266.172 543.517 266.383C543.949 266.594 544.321 266.9 544.632 267.302C544.943 267.703 545.099 268.22 545.099 268.853C545.099 269.455 544.943 270.002 544.632 270.494C544.331 270.986 543.889 271.378 543.307 271.669C542.724 271.96 542.037 272.105 541.244 272.105ZM554.288 261.429V263.492H551.487V272H548.912V263.492H546.111V261.429H554.288ZM560.58 272.105C559.586 272.105 558.672 271.875 557.839 271.413C557.016 270.951 556.358 270.308 555.867 269.485C555.385 268.652 555.144 267.718 555.144 266.684C555.144 265.65 555.385 264.722 555.867 263.898C556.358 263.075 557.016 262.433 557.839 261.971C558.672 261.509 559.586 261.278 560.58 261.278C561.574 261.278 562.482 261.509 563.306 261.971C564.139 262.433 564.791 263.075 565.263 263.898C565.745 264.722 565.986 265.65 565.986 266.684C565.986 267.718 565.745 268.652 565.263 269.485C564.781 270.308 564.129 270.951 563.306 271.413C562.482 271.875 561.574 272.105 560.58 272.105ZM560.58 269.756C561.423 269.756 562.096 269.475 562.598 268.913C563.11 268.351 563.366 267.608 563.366 266.684C563.366 265.751 563.11 265.008 562.598 264.456C562.096 263.893 561.423 263.612 560.58 263.612C559.727 263.612 559.044 263.888 558.532 264.44C558.03 264.993 557.779 265.741 557.779 266.684C557.779 267.618 558.03 268.366 558.532 268.928C559.044 269.48 559.727 269.756 560.58 269.756ZM572.81 272L570.611 268.009H569.994V272H567.419V261.429H571.74C572.574 261.429 573.282 261.574 573.864 261.865C574.456 262.157 574.898 262.558 575.189 263.07C575.48 263.572 575.626 264.134 575.626 264.757C575.626 265.459 575.425 266.087 575.023 266.639C574.632 267.191 574.05 267.583 573.276 267.814L575.716 272H572.81ZM569.994 266.187H571.59C572.062 266.187 572.413 266.072 572.644 265.841C572.885 265.61 573.005 265.284 573.005 264.862C573.005 264.461 572.885 264.144 572.644 263.913C572.413 263.683 572.062 263.567 571.59 263.567H569.994V266.187ZM579.817 263.492V265.63H583.266V267.618H579.817V269.937H583.717V272H577.242V261.429H583.717V263.492H579.817Z" fill="white"/>
<path d="M621.365 29.7738V230.153H565.995V98.8516C557.035 105.661 548.345 111.171 539.923 115.382C531.59 119.593 521.108 123.625 508.475 127.477V82.5901C527.111 76.5873 541.58 69.3748 551.884 60.9529C562.187 52.531 570.251 42.1379 576.074 29.7738H621.365Z" fill="#722875"/>
<path d="M129.865 158.506C129.584 158.566 129.291 158.768 129.013 159.13C127.438 161.193 126.667 162.23 125.16 164.315C126.043 164.827 126.481 165.086 127.354 165.605C127.385 165.598 127.402 165.595 127.433 165.588C128.725 163.801 129.384 162.911 130.731 161.14C130.957 160.831 131.136 160.693 131.374 160.645C131.633 160.593 131.962 160.686 132.395 160.879C133.561 161.426 135.734 162.499 138.27 163.882C138.308 163.875 138.33 163.872 138.368 163.865C138.57 163.461 138.673 163.258 138.877 162.854C136.455 161.509 134.032 160.165 131.543 158.944C130.848 158.604 130.265 158.423 129.863 158.508L129.865 158.506Z" fill="#722875"/>
<path d="M172.24 133.34C172.24 133.34 172.238 133.335 172.235 133.333C172.076 133.34 171.919 133.347 171.759 133.355C171.626 133.359 171.493 133.362 171.359 133.366C171.359 133.369 171.357 133.371 171.355 133.374C158.842 133.942 146.457 135.289 134.116 137.429C134.116 137.429 134.114 137.424 134.111 137.422C133.961 137.45 133.814 137.479 133.664 137.505C133.523 137.529 133.383 137.552 133.243 137.576C133.243 137.579 133.24 137.581 133.238 137.583C132.2 137.776 131.165 137.976 130.13 138.181C129.052 135.482 127.74 132.476 125.494 130.594C123.764 129.145 122.186 128.324 119.982 128.816C118.992 129.038 117.929 129.342 116.686 129.797C117.258 130.77 117.541 131.258 118.107 132.234C118.209 132.267 118.259 132.284 118.359 132.317C119.406 131.891 120.458 131.577 121.384 131.329C124.668 130.449 126.289 133.297 127.391 135.956C127.36 135.977 127.343 135.989 127.312 136.013C125.082 134.856 122.291 133.621 119.763 134.159C118.414 134.444 116.989 135.311 115.689 136.36C116.508 137.117 116.912 137.495 117.722 138.257C117.817 138.274 117.867 138.283 117.962 138.3C119.33 137.203 120.651 136.358 121.781 136.144C124.233 135.677 126.922 137.036 129.047 138.397C124.109 139.39 119.202 140.496 114.311 141.719C114.264 141.822 114.24 141.872 114.192 141.974C114.794 142.609 115.094 142.926 115.689 143.564C119.892 142.526 124.104 141.567 128.343 140.687C128.6 141.96 128.73 142.598 128.987 143.871C129.059 144.218 128.885 144.454 128.462 144.542C127.317 144.777 126.746 144.896 125.603 145.144C122.319 145.658 118.902 148.171 119.683 151.824C120.587 156.053 125.722 157.861 129.53 157.05C132.257 156.469 134.547 154.677 135.977 152.293C135.96 152.207 135.953 152.164 135.939 152.079C135.142 151.479 134.742 151.181 133.935 150.586C132.295 152.531 130.534 154.532 127.948 155.089C125.718 155.57 123.009 154.689 122.472 152.264C121.715 148.845 126.051 147.307 128.709 146.819C129.911 146.572 130.513 146.453 131.715 146.22C131.784 146.127 131.819 146.079 131.888 145.986C131.434 143.676 131.205 142.521 130.751 140.211C132.274 139.916 133.166 139.749 134.48 139.518C138.745 138.778 143.016 138.121 147.307 137.541L147.754 140.977C146.05 140.76 144.354 140.841 142.785 141.032C139.973 141.372 136.853 143.666 137.379 146.646C137.926 149.749 141.55 151.943 144.765 151.388C146.165 151.148 147.583 150.529 148.768 149.263C148.794 149.275 148.809 149.282 148.835 149.294C149.101 151.603 149.235 152.757 149.501 155.065C150.415 155.184 150.872 155.246 151.783 155.375C151.855 155.279 151.89 155.232 151.959 155.134C151.633 152.536 151.305 149.937 150.979 147.338C152.214 145.444 153.813 144.011 156.165 143.778C156.005 144.328 155.969 144.935 156.024 145.572C156.395 149.825 161.119 152.398 165.001 152.126C167.773 151.931 170.279 150.475 172.016 148.316C172.014 148.231 172.011 148.185 172.007 148.1C171.305 147.395 170.95 147.043 170.239 146.343C168.354 148.035 166.343 149.775 163.711 149.965C161.438 150.13 158.897 148.868 158.709 146.403C158.451 143.014 162.928 141.891 165.61 141.884C166.828 141.807 167.438 141.772 168.656 141.71C168.737 141.627 168.777 141.586 168.858 141.503C168.73 139.152 168.666 137.976 168.537 135.625C170.081 135.546 170.986 135.506 172.314 135.458C174.912 135.375 177.504 135.318 180.103 135.282C180.305 136.089 180.355 136.974 180.36 137.683C180.369 138.885 180.096 139.949 179.655 140.682C178.82 140.61 177.878 140.587 176.938 140.606C175.867 140.627 175.234 140.894 174.924 141.305C174.667 141.646 174.56 141.986 174.57 142.36C174.591 143.069 175.158 144.232 176.219 145.606C178.649 148.63 181.65 151.21 184.753 153.521C184.85 153.521 184.9 153.521 184.998 153.523C185.571 152.521 185.859 152.022 186.442 151.022C183.568 149.392 180.667 147.776 178.337 145.389C181.05 144.128 182.956 141.643 182.932 138.585C182.923 137.474 182.851 136.341 182.611 135.277C184.758 135.277 185.833 135.292 187.98 135.335C188.051 135.249 188.087 135.206 188.158 135.123C187.756 134.349 187.551 133.964 187.144 133.193C182.171 133.133 177.207 133.186 172.238 133.345L172.24 133.34ZM143.276 149.458C141.555 149.72 140.303 149.016 140.099 147.445C139.77 144.927 142.4 143.116 144.701 142.8C145.824 142.645 146.931 142.609 147.997 142.669C148.161 143.935 148.242 144.568 148.406 145.832C146.743 147.993 145.037 149.19 143.273 149.456L143.276 149.458ZM165.681 139.59C164.52 139.661 163.942 139.701 162.78 139.785C160.289 139.968 158.256 140.744 157.09 142.062C156.433 141.71 155.662 141.548 154.744 141.643C153.102 141.815 151.741 142.624 150.574 143.816C150.548 143.804 150.534 143.797 150.505 143.785C150.189 141.165 150.032 139.856 149.715 137.236C155.167 136.608 160.619 136.117 166.095 135.758C166.174 137.055 166.212 137.705 166.29 139.002C166.312 139.356 166.11 139.566 165.679 139.592L165.681 139.59Z" fill="#722875"/>
<path d="M247.647 132.785C248.668 133.028 249.506 133.537 250.232 134.203C250.32 134.151 250.363 134.127 250.451 134.075C250.218 133.123 250.006 132.361 249.884 131.988C249.235 131.179 248.207 130.546 246.776 130.193C244.463 129.625 241.796 130.669 241.305 133.147C240.782 135.793 242.419 138.335 244.218 140.241C234.954 138.132 225.623 136.471 216.187 135.246C216.187 135.243 216.187 135.241 216.184 135.238C216.042 135.222 215.896 135.205 215.754 135.189C215.606 135.169 215.459 135.15 215.311 135.131C215.309 135.131 215.306 135.136 215.304 135.139C208.681 134.37 202.056 133.808 195.395 133.456C195.321 133.539 195.283 133.58 195.209 133.663C195.595 134.446 195.787 134.839 196.166 135.622C200.913 135.855 205.656 136.228 210.382 136.719C210.242 138.075 210.173 138.751 210.033 140.108C208.065 139.429 206.066 139.06 204.226 138.858C201.296 138.537 197.51 140.131 197.372 143.258C197.225 146.621 200.771 149.784 204.233 150.022C205.963 150.141 207.62 149.853 209.112 149.017C208.859 151.121 208.736 152.173 208.486 154.277C209.371 154.605 209.814 154.772 210.697 155.11C210.787 155.033 210.832 154.993 210.923 154.917C211.57 148.939 212.217 142.963 212.862 136.985C214.119 137.128 214.873 137.216 215.925 137.347C225.166 138.546 234.306 140.162 243.397 142.202C243.19 143.099 243.088 143.549 242.881 144.446C242.797 144.81 242.533 144.891 242.236 144.824C241.253 144.601 240.76 144.491 239.775 144.275C237.928 143.872 236.384 143.691 235.242 143.808C234.073 143.927 233.304 144.348 232.867 145.027C232.215 144.198 231.384 143.582 230.299 143.384C229.195 143.185 227.9 143.558 227.058 144.156C225.734 142.713 224.378 141.785 222.486 141.488C219.664 141.045 217.072 142.901 216.675 145.738C216.089 149.915 219.442 154.017 222.284 156.659C222.348 156.668 222.381 156.673 222.446 156.685C223.238 155.871 223.635 155.464 224.44 154.655C221.713 153.096 218.526 150.562 218.943 147.137C219.15 145.431 220.984 143.699 223.44 144.082C224.478 144.244 225.294 144.577 225.863 145.069C225.025 145.809 224.242 146.918 223.583 148.23C224.361 148.879 224.747 149.205 225.515 149.862C225.573 149.872 225.604 149.877 225.661 149.886C226.658 147.868 228.521 145.379 231.039 145.8C231.598 145.893 232.36 146.145 232.462 146.35C232.621 146.678 232.667 148.013 233.185 148.998C234.114 150.767 235.18 151.728 236.434 151.992C237.978 152.318 240.318 152.094 241.884 152.459C242.788 152.67 243.183 153.111 243.038 153.722C242.671 155.255 239.949 156.497 237.571 155.943C234.159 155.148 232.022 152.282 230.746 149.11C230.218 149.315 229.954 149.42 229.425 149.627C229.416 149.681 229.411 149.708 229.402 149.762C231.184 153.648 233.428 157.554 237.947 158.546C240.43 159.091 243.79 158.165 244.547 155.607C244.801 154.741 244.773 153.817 244.589 152.961C244.223 151.25 243.376 150.191 241.484 149.755C239.466 149.293 237.381 149.57 235.986 149.279C234.925 149.058 234.387 148.477 234.575 147.785C235.154 145.66 238.942 146.309 240.565 146.721C241.945 147.071 243.235 147.328 244.399 147.647C244.504 147.575 244.558 147.54 244.663 147.468C245.106 145.581 245.327 144.639 245.77 142.751C247.412 143.144 248.23 143.349 249.868 143.768C249.958 143.701 250.003 143.668 250.091 143.601C249.872 142.756 249.761 142.333 249.535 141.488C248.445 141.219 247.352 140.957 246.26 140.702C244.644 139.168 242.938 137.016 243.438 134.694C243.733 133.32 245.232 132.202 247.65 132.775L247.647 132.785ZM209.661 144.087C209.112 146.983 205.842 147.868 203.336 147.716C200.901 147.568 199.757 146.109 199.876 144.636C200.109 141.75 203.833 140.921 206.187 141.219C207.355 141.366 208.655 141.566 209.883 141.992C209.795 142.83 209.752 143.249 209.666 144.089L209.661 144.087Z" fill="#722875"/>
<path d="M271.111 105.761C270.781 107.008 269.981 108.05 268.86 108.695L265.459 110.651C266.825 114.15 267.965 117.736 268.851 121.36C268.637 121.313 268.42 121.263 268.203 121.218C263.634 119.516 258.963 117.962 254.208 116.56C254.006 115.999 253.791 115.44 253.565 114.88C252.375 111.841 251.002 108.9 249.444 106.073C248.918 105.118 248.373 104.174 247.806 103.238C243.511 96.1562 238.104 89.8331 231.819 84.5024C231.224 83.9955 230.631 83.5005 230.027 83.0222C227.502 81.0065 224.844 79.1455 222.067 77.4488C221.141 76.8848 220.196 76.3398 219.242 75.8115C212.119 71.8777 204.297 69.0505 196.006 67.5608C191.563 66.7517 186.993 66.3328 182.327 66.3328C181.81 66.3328 181.303 66.3423 180.787 66.3519C172.291 66.5184 164.126 68.0677 156.528 70.7949C155.192 71.2637 153.879 71.7801 152.572 72.3251C149.288 73.7173 146.133 75.326 143.101 77.1465H143.091C142.965 77.2156 142.849 77.2846 142.732 77.3607C135.64 81.6586 129.296 87.075 123.967 93.36C123.461 93.943 122.973 94.538 122.487 95.1424C120.469 97.6745 118.599 100.335 116.914 103.112C116.347 104.038 115.802 104.983 115.276 105.937C113.306 109.497 111.616 113.229 110.238 117.113C105.427 118.576 100.705 120.197 96.0907 121.97C95.9289 122.005 95.767 122.043 95.6052 122.082C96.4143 118.671 97.4376 115.309 98.6656 112.017L113.844 107.836L114.046 107.486L114.877 106.054L114.793 106.078L100.791 109.921C100.37 110.04 99.9412 110.097 99.5128 110.097C98.6656 110.097 97.8279 109.873 97.0973 109.454L95.7813 108.695C94.6604 108.05 93.8632 107.008 93.5301 105.761C93.1993 104.514 93.3658 103.21 94.0084 102.099L102.864 86.7537C103.732 85.264 105.329 84.3382 107.054 84.3382C107.902 84.3382 108.739 84.5619 109.47 84.9903L112.871 86.9488C114.867 84.4644 117.002 82.087 119.282 79.8167C121.209 77.8867 123.218 76.0566 125.302 74.3122L140.504 78.2888L140.531 78.296L142.313 77.2631L142.323 77.2536H142.332L142.684 77.0394L142.549 77.0061L127.494 73.3484C126.89 73.2009 126.364 72.8415 126.014 72.3346C126.005 72.3346 126.005 72.3251 126.005 72.3251C125.693 72.0229 125.429 71.6826 125.214 71.3113L124.455 69.9953C123.13 67.6964 123.92 64.7265 126.228 63.4009L141.563 54.5434C142.294 54.115 143.132 53.8913 143.979 53.8913C145.704 53.8913 147.301 54.8266 148.158 56.3187L150.116 59.698C155.652 57.5538 161.361 55.976 167.187 54.9837L178.4 66.0401H180.475L180.413 65.9806L170.071 55.7809C169.155 54.8766 168.638 53.6296 168.638 52.3421V50.8333C168.638 48.1632 170.801 46 173.46 46H191.182C193.842 46 196.006 48.1632 196.006 50.8333V54.7481C201.86 55.6452 207.579 57.1255 213.152 59.1816L217.331 74.3717L218.721 75.1761L219.116 75.4045H219.125V75.3974L215.246 61.3258C214.906 60.0883 215.082 58.7342 215.725 57.6228L216.484 56.3068C217.34 54.8266 218.949 53.8913 220.663 53.8913C221.512 53.8913 222.35 54.115 223.08 54.5434L238.425 63.4009C240.724 64.736 241.524 67.6964 240.189 69.9953L238.221 73.4055C240.696 75.4045 243.082 77.5368 245.35 79.8167C247.28 81.7371 249.122 83.7528 250.848 85.828L246.89 101.056L247.913 102.839L251.597 88.7123C251.928 87.4653 252.747 86.3825 253.858 85.7399L255.172 84.9903C255.902 84.5619 256.74 84.3382 257.59 84.3382C259.303 84.3382 260.912 85.264 261.768 86.7537L270.624 102.099C271.278 103.21 271.442 104.514 271.111 105.761Z" fill="#722875"/>
<path d="M93.5926 150.72L93.5141 149.999C93.5212 150.066 93.526 150.13 93.5308 150.197C93.5308 150.192 93.5308 150.187 93.5308 150.182L93.5117 150.001C93.5427 150.304 93.5617 150.596 93.5998 150.887C93.5998 150.875 93.5998 150.861 93.5974 150.849V150.844C93.5974 150.844 93.5974 150.839 93.5974 150.834C93.5974 150.851 93.5998 150.87 93.6022 150.887C93.6022 150.827 93.5926 150.77 93.5926 150.72Z" fill="#722875"/>
<path d="M264.255 177.338V177.328C264.272 177.29 264.289 177.254 264.303 177.216C264.303 177.214 264.305 177.209 264.308 177.207C264.308 177.202 264.312 177.197 264.315 177.192C264.339 177.138 264.362 177.083 264.384 177.028C264.408 176.966 264.434 176.904 264.46 176.843C264.465 176.831 264.47 176.821 264.472 176.812C264.508 176.716 264.55 176.628 264.586 176.533L264.541 176.64L264.546 176.631L264.246 177.323C264.246 177.323 264.236 177.333 264.236 177.342H264.255V177.338Z" fill="#722875"/>
<path d="M270.676 182.812C270.659 182.843 270.64 182.871 270.623 182.902L261.768 198.237C260.911 199.727 259.303 200.653 257.589 200.653C256.74 200.653 255.902 200.429 255.171 200.01L251.761 198.042C249.755 200.517 247.63 202.895 245.35 205.175C243.423 207.102 241.426 208.944 239.351 210.669L224.123 206.705L222.331 207.738L236.466 211.419C237.713 211.74 238.784 212.569 239.427 213.68L240.188 214.996C241.523 217.304 240.724 220.255 238.425 221.59L223.08 230.448C222.35 230.876 221.512 231.1 220.662 231.1C218.949 231.1 217.34 230.174 216.483 228.682L214.515 225.284C208.982 227.435 203.273 229.015 197.448 230.008L186.234 218.951H184.168L194.573 229.21C195.489 230.115 196.005 231.362 196.005 232.649V234.167C196.005 236.828 193.842 239.001 191.182 239.001H173.459C170.801 239.001 168.638 236.828 168.638 234.167V230.243H168.628C162.781 229.346 157.053 227.856 151.48 225.8L147.301 210.619L145.518 209.596L149.395 223.675C149.738 224.912 149.562 226.257 148.919 227.368L148.158 228.682C147.301 230.174 145.692 231.1 143.979 231.1C143.132 231.1 142.294 230.876 141.563 230.448L126.228 221.59C123.92 220.255 123.12 217.304 124.455 214.996L126.423 211.586C123.939 209.596 121.561 207.454 119.281 205.175C117.351 203.245 115.521 201.238 113.796 199.163L117.761 183.945L116.718 182.162L113.037 196.288C112.716 197.526 111.887 198.606 110.776 199.251L109.47 200.01C108.729 200.429 107.901 200.653 107.054 200.653C105.329 200.653 103.732 199.727 102.863 198.237L94.1152 183.088C101.155 181.491 108.232 180.194 115.326 179.147C115.814 180.023 116.316 180.891 116.825 181.743C121.123 188.825 126.54 195.158 132.822 200.489C133.417 201.005 134.022 201.491 134.626 201.969C137.149 203.994 139.809 205.855 142.577 207.542C143.5 208.106 144.448 208.651 145.402 209.177C152.522 213.113 160.347 215.941 168.638 217.43C169.397 217.576 170.159 217.704 170.927 217.821V217.83C174.09 218.299 177.315 218.573 180.592 218.639L180.582 218.63C181.134 218.649 181.677 218.658 182.229 218.658H182.326C182.624 218.658 182.919 218.658 183.217 218.651C183.428 218.649 183.642 218.646 183.854 218.639C183.876 218.642 183.897 218.642 183.919 218.637C184.076 218.635 184.233 218.632 184.39 218.627C184.618 218.623 184.847 218.616 185.075 218.606C185.139 218.604 185.201 218.601 185.265 218.599C185.57 218.587 185.872 218.575 186.177 218.558C186.196 218.558 186.215 218.556 186.234 218.556C186.541 218.542 186.848 218.523 187.155 218.504C194.466 218.049 201.505 216.569 208.116 214.196C208.847 213.942 209.565 213.67 210.286 213.378L210.279 213.366C213.306 212.178 216.241 210.8 219.065 209.249L219.094 209.256C220.051 208.739 220.986 208.194 221.909 207.628C227.166 204.444 232.009 200.646 236.331 196.331C236.697 195.972 237.057 195.603 237.411 195.232C237.537 195.106 237.661 194.975 237.78 194.846C238.013 194.604 238.242 194.358 238.47 194.113C238.651 193.921 238.83 193.723 239.008 193.528C239.21 193.309 239.408 193.088 239.603 192.866C239.965 192.459 240.322 192.048 240.674 191.631C240.731 191.567 240.786 191.503 240.838 191.438C241.288 190.917 241.721 190.387 242.156 189.849L242.149 189.844C244.175 187.314 246.043 184.654 247.739 181.877H247.728C248.294 180.953 248.839 180.008 249.365 179.054C249.401 178.99 249.434 178.926 249.47 178.861C256.48 179.906 263.539 181.205 270.676 182.812Z" fill="#722875"/>
<path d="M271.153 134.626H271.162L271.124 134.267C271.134 134.383 271.143 134.509 271.153 134.626Z" fill="#722875"/>
<path d="M282.654 135.114C215.326 114.679 149.986 114.679 82.6602 135.114C93.9117 129.819 105.984 125.533 118.566 122.254C159.603 111.559 206.056 111.585 247.067 122.337C259.535 125.605 271.498 129.864 282.654 135.114Z" fill="#E55E25"/>
<path fill-rule="evenodd" clip-rule="evenodd" d="M277.402 180.287C221.401 158.39 143.913 158.393 87.9121 180.287C119.337 172.362 151.704 170.784 182.665 170.668C214.554 170.546 245.035 172.124 277.402 180.287Z" fill="#E55E25"/>
<path fill-rule="evenodd" clip-rule="evenodd" d="M254.898 117.819C254.81 117.791 254.996 117.829 254.898 117.819V117.819Z" fill="white"/>
<path fill-rule="evenodd" clip-rule="evenodd" d="M262.579 180.166L263.017 180.05C262.988 180.109 262.957 180.166 262.929 180.226C262.812 180.197 262.696 180.188 262.579 180.166Z" fill="white"/>
<path fill-rule="evenodd" clip-rule="evenodd" d="M264.244 177.323L264.584 176.533C264.546 176.64 264.496 176.738 264.458 176.845C264.389 177.012 264.332 177.166 264.253 177.333V177.342H264.234C264.234 177.342 264.244 177.333 264.244 177.323Z" fill="white"/>
<path fill-rule="evenodd" clip-rule="evenodd" d="M271.162 134.629H271.153C271.143 134.512 271.134 134.386 271.124 134.27L271.162 134.629Z" fill="white"/>
<path d="M202.024 114.964C200.063 114.964 198.219 114.2 196.832 112.813C195.444 111.425 194.68 109.581 194.68 107.62C194.68 105.659 195.444 103.815 196.832 102.427C198.219 101.04 200.063 100.276 202.024 100.276C203.985 100.276 205.83 101.04 207.217 102.427C208.604 103.815 209.368 105.659 209.368 107.62C209.368 109.581 208.604 111.425 207.217 112.813C205.83 114.2 203.985 114.964 202.024 114.964ZM202.024 101.216C200.313 101.216 198.705 101.882 197.496 103.091C196.287 104.3 195.62 105.909 195.62 107.62C195.62 109.331 196.287 110.94 197.496 112.149C198.705 113.357 200.313 114.024 202.024 114.024C203.735 114.024 205.344 113.357 206.553 112.149C207.762 110.94 208.428 109.331 208.428 107.62C208.428 105.909 207.762 104.302 206.553 103.091C205.344 101.882 203.735 101.216 202.024 101.216ZM167.225 114.964C164.262 114.964 161.478 113.81 159.381 111.715C157.287 109.621 156.133 106.835 156.133 103.872C156.133 100.909 157.287 98.1245 159.381 96.0279C161.475 93.9337 164.262 92.7795 167.225 92.7795C170.188 92.7795 172.972 93.9337 175.069 96.0279C177.165 98.1221 178.317 100.909 178.317 103.872C178.317 106.835 177.163 109.619 175.069 111.715C172.974 113.81 170.188 114.964 167.225 114.964ZM160.047 96.6943C158.129 98.6124 157.075 101.161 157.075 103.872C157.075 106.582 158.132 109.133 160.047 111.049C161.966 112.967 164.514 114.021 167.225 114.021C169.935 114.021 172.487 112.965 174.402 111.049C176.32 109.131 177.375 106.582 177.375 103.872C177.375 101.161 176.318 98.61 174.402 96.6943C172.484 94.7762 169.935 93.7219 167.225 93.7219C164.514 93.7219 161.963 94.7786 160.047 96.6943ZM201.963 112.453C200.606 112.453 199.33 111.925 198.369 110.966C197.41 110.007 196.882 108.731 196.882 107.372C196.882 106.013 197.41 104.74 198.369 103.779C199.328 102.82 200.606 102.292 201.963 102.292C203.319 102.292 204.595 102.82 205.556 103.779C206.515 104.738 207.043 106.016 207.043 107.372C207.043 108.729 206.515 110.004 205.556 110.966C204.597 111.925 203.321 112.453 201.963 112.453ZM201.963 103.229C200.856 103.229 199.816 103.66 199.033 104.443C198.25 105.226 197.819 106.266 197.819 107.372C197.819 108.479 198.25 109.519 199.033 110.302C199.816 111.085 200.856 111.516 201.963 111.516C203.069 111.516 204.109 111.085 204.892 110.302C205.675 109.519 206.106 108.479 206.106 107.372C206.106 106.266 205.675 105.226 204.892 104.443C204.109 103.66 203.069 103.229 201.963 103.229ZM167.242 110.787C165.321 110.787 163.517 110.04 162.161 108.684C160.804 107.327 160.057 105.521 160.057 103.603C160.057 101.685 160.804 99.8784 162.161 98.5219C163.517 97.1655 165.323 96.4182 167.242 96.4182C169.16 96.4182 170.966 97.1655 172.322 98.5219C173.679 99.8784 174.426 101.685 174.426 103.603C174.426 105.521 173.679 107.327 172.322 108.684C170.966 110.04 169.16 110.787 167.242 110.787ZM162.825 99.1859C161.644 100.366 160.995 101.935 160.995 103.603C160.995 105.271 161.644 106.839 162.825 108.02C164.005 109.2 165.573 109.85 167.242 109.85C168.91 109.85 170.478 109.2 171.658 108.02C172.839 106.839 173.488 105.271 173.488 103.603C173.488 101.935 172.839 100.366 171.658 99.1859C170.478 98.0055 168.91 97.3559 167.242 97.3559C165.573 97.3559 164.005 98.0055 162.825 99.1859ZM178.855 109.69H177.625C177.458 109.69 177.306 109.602 177.22 109.462C177.134 109.319 177.132 109.143 177.21 108.998C177.251 108.922 177.291 108.845 177.332 108.769C177.379 108.676 177.417 108.6 177.453 108.524C177.498 108.429 177.534 108.353 177.57 108.277C177.615 108.179 177.648 108.101 177.682 108.022C177.722 107.927 177.755 107.846 177.786 107.763C177.82 107.675 177.851 107.598 177.879 107.52C178.096 106.93 178.267 106.316 178.381 105.692C178.381 105.687 178.381 105.685 178.381 105.68C178.434 105.392 178.476 105.102 178.507 104.814L178.515 104.752C178.515 104.743 178.515 104.731 178.515 104.728C178.515 104.724 178.517 104.702 178.517 104.697V104.688V104.662V104.631C178.517 104.631 178.522 104.607 178.522 104.602L178.545 104.283V104.25V104.224H179.017L178.548 104.195C178.548 104.195 178.548 104.162 178.548 104.157H179.019L178.55 104.133V104.105C178.55 104.105 178.55 104.098 178.55 104.093C178.55 104.083 178.55 104.076 178.55 104.069L178.555 103.903C178.555 103.903 178.555 103.895 178.555 103.888C178.555 103.881 178.555 103.874 178.555 103.869V103.815L179.026 103.796L178.557 103.772V103.743L179.026 103.734L178.557 103.717V103.691C178.557 103.691 178.557 103.669 178.557 103.662V103.61L179.026 103.584H178.557V103.472C178.557 103.472 178.557 103.448 178.557 103.439V103.384C178.557 103.384 178.557 103.374 178.557 103.367C178.557 103.358 178.557 103.348 178.557 103.341C178.557 103.336 178.557 103.312 178.557 103.308V103.215C178.557 103.215 178.553 103.189 178.553 103.184C178.553 103.182 178.553 103.177 178.553 103.17C178.553 103.16 178.553 103.146 178.553 103.143C178.553 103.143 178.553 103.139 178.553 103.136C178.553 103.129 178.553 103.124 178.553 103.117C178.553 103.117 178.553 103.103 178.553 103.098C178.553 103.096 178.553 103.091 178.553 103.089C178.553 103.079 178.553 103.07 178.553 103.063C178.529 102.539 178.465 102.006 178.367 101.487C178.367 101.48 178.365 101.47 178.362 101.463L178.336 101.328L178.331 101.304C178.315 101.223 178.296 101.137 178.277 101.052L178.269 101.025C178.25 100.945 178.231 100.864 178.21 100.783L178.203 100.752C178.181 100.673 178.16 100.592 178.139 100.514L178.129 100.483C178.108 100.404 178.084 100.323 178.058 100.245L178.046 100.209C178.022 100.135 177.998 100.059 177.972 99.9855L177.958 99.9451C177.934 99.8737 177.908 99.7999 177.882 99.7285L177.865 99.6809C177.839 99.6119 177.813 99.5405 177.784 99.4691L177.763 99.4167C177.736 99.3501 177.708 99.2835 177.682 99.2168L177.66 99.1669C177.632 99.1026 177.603 99.036 177.575 98.9717L177.546 98.9051C177.517 98.8432 177.489 98.7813 177.458 98.7171L177.427 98.6552C177.398 98.5981 177.37 98.5362 177.339 98.4767C176.646 97.1131 175.699 95.9208 174.526 94.9309C174.524 94.9309 174.521 94.9261 174.519 94.9237C174.459 94.8737 174.4 94.8238 174.338 94.7738C174.267 94.7167 174.205 94.6691 174.143 94.6191C173.988 94.5001 173.831 94.3859 173.669 94.274L173.648 94.2598C173.591 94.2193 173.531 94.1812 173.474 94.1432L173.429 94.1146C173.374 94.0789 173.317 94.0432 173.26 94.0051L173.212 93.9766C173.148 93.9385 173.084 93.898 173.02 93.8576L172.934 93.8076C172.886 93.7791 172.836 93.7505 172.786 93.7219L172.703 93.6767C172.653 93.6505 172.601 93.622 172.548 93.5934L172.089 93.3626C172.042 93.3388 171.994 93.3174 171.946 93.296L171.846 93.2507C171.796 93.2293 171.746 93.2079 171.696 93.1865L171.58 93.1365C171.532 93.1175 171.485 93.0961 171.435 93.077L171.33 93.0342C171.273 93.0128 171.218 92.9913 171.161 92.9699L171.099 92.9485C171.021 92.9199 170.961 92.8985 170.902 92.8795L170.83 92.8557C170.766 92.8343 170.702 92.8129 170.635 92.7914L170.559 92.7676C170.49 92.7462 170.419 92.7248 170.347 92.7058L170.297 92.6915C170.226 92.6725 170.154 92.6534 170.085 92.6344L170.031 92.6201C169.962 92.6011 169.89 92.5844 169.819 92.5677L169.764 92.5558C169.688 92.5392 169.609 92.5225 169.531 92.5059L169.495 92.4987C169.414 92.4821 169.331 92.4654 169.245 92.4511L169.207 92.444C169.131 92.4297 169.05 92.4178 168.972 92.4059L168.931 92.3988C168.85 92.3869 168.769 92.375 168.686 92.3655L168.653 92.3607C168.567 92.3488 168.479 92.3393 168.389 92.3298C168.289 92.3202 168.196 92.3107 168.105 92.3036H168.079C167.991 92.2964 167.905 92.2893 167.82 92.2845H167.787C167.703 92.2798 167.615 92.275 167.527 92.2726H167.499C167.325 92.2679 167.139 92.2679 166.958 92.2726H166.885C166.811 92.2774 166.742 92.2798 166.67 92.2822H166.623C166.535 92.2893 166.451 92.2941 166.368 92.3012L166.297 92.306C166.233 92.3107 166.166 92.3179 166.099 92.3226L166.033 92.3298C165.949 92.3393 165.864 92.3488 165.78 92.3583L165.745 92.3631C165.671 92.3726 165.597 92.3821 165.526 92.394L165.454 92.4059C165.378 92.4178 165.304 92.4297 165.228 92.444L165.2 92.4488C165.124 92.463 165.04 92.4797 164.957 92.4964L164.895 92.5106C164.826 92.5249 164.762 92.5392 164.695 92.5535L164.655 92.563C164.56 92.5844 164.479 92.6034 164.4 92.6249L164.345 92.6391C164.283 92.6558 164.217 92.6725 164.153 92.6915L164.086 92.7105C164.01 92.7319 163.931 92.7557 163.853 92.7795L163.829 92.7867C163.758 92.8105 163.686 92.8319 163.615 92.8557L163.548 92.8795C163.484 92.9009 163.417 92.9247 163.351 92.9485C163.351 92.9485 163.327 92.9556 163.324 92.958C163.236 92.9913 163.16 93.0199 163.084 93.0485L163.044 93.0651L163.02 93.0746C162.96 93.0984 162.901 93.1222 162.841 93.146L162.784 93.1698C162.71 93.2008 162.637 93.2317 162.563 93.265L162.534 93.2769C162.456 93.3126 162.396 93.3412 162.337 93.3697L162.268 93.403C162.199 93.4364 162.127 93.4721 162.056 93.5078C161.977 93.5482 161.908 93.5839 161.839 93.622L161.773 93.6577C161.716 93.6886 161.659 93.7219 161.601 93.7529L161.559 93.7767C161.492 93.8147 161.423 93.8552 161.356 93.898L161.302 93.9314C161.244 93.9671 161.192 94.0004 161.14 94.0337L161.083 94.0694C161.016 94.1122 160.952 94.1551 160.885 94.1979L160.842 94.2264C160.79 94.2621 160.738 94.2978 160.683 94.3359L160.619 94.3811C160.564 94.4192 160.509 94.4597 160.454 94.5001L160.435 94.5144C160.364 94.5691 160.302 94.6167 160.24 94.6643L160.181 94.7095C160.133 94.7476 160.086 94.7857 160.038 94.8238L159.986 94.8666C159.926 94.9166 159.867 94.9666 159.807 95.0165L159.76 95.057C159.712 95.0974 159.667 95.1379 159.621 95.1784L159.567 95.2283C159.507 95.2831 159.45 95.3354 159.393 95.3902L159.367 95.4163C159.319 95.4639 159.269 95.5115 159.222 95.5591L159.165 95.6162C159.122 95.6591 159.077 95.7067 159.031 95.7519L159.015 95.7709C159.015 95.7709 158.998 95.7876 158.998 95.79C158.943 95.8471 158.891 95.9042 158.839 95.9613L158.793 96.0137C158.75 96.0613 158.71 96.1065 158.672 96.1493L158.624 96.2017C158.572 96.2612 158.524 96.3207 158.474 96.3801L158.441 96.423C158.396 96.4777 158.36 96.5229 158.322 96.5705L158.272 96.6348C158.229 96.6895 158.186 96.7466 158.144 96.8014L158.11 96.8466C158.07 96.9013 158.029 96.956 157.989 97.0132L157.939 97.0822C157.908 97.1274 157.872 97.1774 157.839 97.2274L157.801 97.2845C157.76 97.3463 157.718 97.4106 157.675 97.4748L157.634 97.5367C157.603 97.5867 157.572 97.6343 157.542 97.6843L157.501 97.7509C157.461 97.8175 157.42 97.8842 157.382 97.9508L157.354 98.0032C157.325 98.0531 157.294 98.1079 157.266 98.1626L157.225 98.2364C157.194 98.2935 157.166 98.3482 157.135 98.4053L157.12 98.4339C157.075 98.5338 156.992 98.6171 156.889 98.6647C156.761 98.7242 156.611 98.7218 156.485 98.66L155.502 98.1745C155.39 98.1198 155.305 98.0198 155.264 97.9008C155.224 97.7818 155.236 97.6509 155.293 97.5391C155.93 96.2873 156.759 95.1474 157.756 94.1503C160.281 91.6253 163.636 90.2356 167.208 90.2356C168.21 90.2356 169.205 90.3474 170.176 90.5663L169.367 86.228C169.34 86.09 169.379 85.9496 169.467 85.8425C169.557 85.7354 169.688 85.6735 169.828 85.6735H171.154C172.115 85.6735 173.005 86.4041 173.181 87.3394L174.076 92.1346C174.638 92.4725 175.178 92.8533 175.685 93.2674H179.274C180.326 93.2674 181.182 94.1241 181.182 95.176V96.6157C181.182 96.8751 180.973 97.0846 180.713 97.0846H178.883C179.559 98.2887 180.038 99.5809 180.311 100.933H186.825L184.378 94.3669C184.324 94.2193 184.345 94.0551 184.438 93.9266L185.252 92.8057L183.191 91.3184L182.148 92.7605C181.861 93.1579 181.304 93.2484 180.906 92.9604C180.509 92.6724 180.418 92.1156 180.706 91.7182L181.749 90.276C181.651 90.2022 181.584 90.0952 181.565 89.9738C181.546 89.85 181.575 89.7239 181.649 89.624L182.068 89.0433C182.141 88.9433 182.251 88.8743 182.375 88.8553C182.496 88.8362 182.617 88.8648 182.717 88.9338L183.562 87.763C183.85 87.3655 184.407 87.2751 184.804 87.5631C185.202 87.851 185.292 88.4079 185.004 88.8053L184.159 89.9762L186.22 91.4659L186.251 91.4231C186.592 90.9519 187.132 90.9519 187.31 90.9519H194.842V90.8995C194.433 90.6925 194.159 90.2665 194.159 89.7858V86.6683C194.159 86.1876 194.435 85.7616 194.842 85.5545V83.6388C194.842 83.6388 194.842 83.6245 194.842 83.6174C194.785 83.5865 194.657 83.5341 194.395 83.4913C194.14 83.4508 193.964 83.2105 194.005 82.9534L194.243 81.4566C194.262 81.3328 194.331 81.2233 194.43 81.1496C194.53 81.0758 194.657 81.0472 194.78 81.0663C195.547 81.19 196.153 81.4589 196.582 81.8706C197.055 82.3228 197.296 82.9011 197.298 83.5865C197.298 83.6031 197.301 83.6198 197.301 83.6364V85.5165C197.748 85.7068 198.062 86.1542 198.062 86.6659V89.7834C198.062 90.2951 197.746 90.7401 197.301 90.9328V90.9495H200.408C201.658 90.9495 202.869 91.4707 203.733 92.3797C204.545 93.2341 204.959 94.3312 204.902 95.4663L204.773 97.946C206.358 98.403 207.805 99.2573 208.98 100.433C209.035 100.488 209.09 100.542 209.142 100.599C209.228 100.69 209.276 100.811 209.273 100.935C209.271 101.059 209.218 101.178 209.128 101.263L208.474 101.887C208.286 102.065 207.988 102.058 207.81 101.87C206.294 100.281 204.249 99.4072 202.055 99.4072C197.669 99.4072 194.102 102.975 194.102 107.36C194.102 107.901 194.157 108.441 194.264 108.964C194.292 109.102 194.257 109.245 194.169 109.355C194.078 109.464 193.945 109.528 193.805 109.528H192.884C192.658 109.528 192.462 109.367 192.422 109.143C192.362 108.814 192.317 108.484 192.291 108.151H179.783C179.626 108.584 179.445 109.01 179.245 109.424C179.167 109.586 179.002 109.688 178.822 109.688L178.855 109.69ZM178.384 108.753H178.555C178.736 108.355 178.895 107.948 179.033 107.537C179.098 107.344 179.276 107.215 179.478 107.215H192.765C192.957 107.215 193.122 107.33 193.195 107.496C193.195 107.453 193.195 107.408 193.195 107.365C193.195 102.463 197.184 98.472 202.089 98.472C202.755 98.472 203.409 98.5434 204.042 98.6838C203.919 98.5933 203.843 98.4434 203.852 98.2816L204 95.4235C204.045 94.5477 203.721 93.6981 203.088 93.0318C202.4 92.3083 201.439 91.8943 200.447 91.8943H196.87C196.61 91.8943 196.401 91.6848 196.401 91.4254V90.5687C196.401 90.3141 196.606 90.1047 196.86 90.0999C197.027 90.0952 197.162 89.9571 197.162 89.7905V86.673C197.162 86.5064 197.027 86.366 196.86 86.3637C196.606 86.3589 196.401 86.1495 196.401 85.8948V83.6959C196.401 83.6769 196.399 83.6579 196.399 83.6388C196.406 83.1914 196.265 82.8392 195.973 82.5584C195.768 82.3609 195.485 82.2109 195.133 82.1062L195.042 82.6774C195.268 82.7512 195.442 82.8463 195.57 82.9725C195.689 83.0867 195.83 83.2961 195.823 83.6436C195.823 83.6579 195.823 83.6721 195.82 83.6864V85.902C195.82 86.14 195.644 86.3399 195.409 86.3684C195.256 86.3875 195.137 86.5231 195.137 86.6754V89.7929C195.137 89.9452 195.256 90.0809 195.409 90.0999C195.644 90.1285 195.82 90.3284 195.82 90.5663V91.4278C195.82 91.6872 195.611 91.8966 195.351 91.8966H187.351C187.113 91.8966 187.075 91.949 187.053 91.9799L186.746 92.4035C186.663 92.5201 186.534 92.5868 186.404 92.5963C186.406 92.6082 186.408 92.6201 186.411 92.632C186.43 92.7557 186.401 92.8819 186.327 92.9818L185.385 94.2788L187.979 101.242C188.034 101.387 188.012 101.547 187.924 101.673C187.836 101.799 187.693 101.875 187.539 101.875H179.959C179.731 101.875 179.535 101.711 179.497 101.485C179.228 99.926 178.672 98.4506 177.841 97.0988C177.765 96.9751 177.751 96.8252 177.801 96.6895L177.889 96.4539C177.958 96.2683 178.131 96.1469 178.329 96.1469H180.285V95.176C180.285 94.6405 179.85 94.205 179.314 94.205H175.556C175.445 94.205 175.338 94.167 175.254 94.0956C174.695 93.6244 174.093 93.2008 173.46 92.8367C173.341 92.7676 173.258 92.651 173.234 92.5154L172.301 87.5107C172.211 87.0252 171.704 86.6135 171.197 86.6135H170.435L171.275 91.1185C171.306 91.2779 171.249 91.4421 171.13 91.5516C171.009 91.661 170.84 91.6991 170.685 91.6563C169.574 91.3374 168.417 91.1756 167.251 91.1756C163.931 91.1756 160.811 92.4678 158.463 94.8166C157.649 95.6305 156.954 96.5491 156.395 97.5486L156.535 97.6176C156.549 97.5915 156.563 97.5653 156.58 97.5391L156.611 97.4844C156.654 97.4106 156.697 97.3392 156.74 97.2678L156.785 97.194C156.816 97.1441 156.849 97.0917 156.882 97.0393L156.925 96.9727C156.973 96.8989 157.018 96.8299 157.063 96.7609L157.101 96.7062C157.139 96.6514 157.175 96.5991 157.211 96.5467L157.263 96.473C157.308 96.4111 157.351 96.3492 157.396 96.2897L157.432 96.2421C157.477 96.1802 157.525 96.1207 157.57 96.0613L157.611 96.0089C157.663 95.9423 157.703 95.8923 157.744 95.8423L157.789 95.7876C157.841 95.7233 157.896 95.6591 157.951 95.5972L158.001 95.5401C158.044 95.4901 158.087 95.4425 158.129 95.3949L158.184 95.3354C158.239 95.2735 158.298 95.2117 158.355 95.1522L158.379 95.1284C158.441 95.0641 158.489 95.0142 158.539 94.9666L158.598 94.9071C158.651 94.8547 158.703 94.8047 158.755 94.7548L158.784 94.7262C158.848 94.6643 158.91 94.6072 158.974 94.5501L159.034 94.4977C159.084 94.4525 159.131 94.4097 159.181 94.3669L159.234 94.3193C159.298 94.2645 159.362 94.2098 159.426 94.1551L159.481 94.1098C159.531 94.067 159.583 94.0265 159.636 93.9861L159.698 93.9361C159.767 93.8838 159.833 93.8314 159.9 93.7814L159.931 93.7576C159.99 93.7124 160.05 93.6696 160.112 93.6267L160.178 93.5791C160.235 93.5387 160.295 93.4982 160.352 93.4578L160.395 93.4268C160.466 93.3769 160.538 93.3317 160.611 93.2841L160.671 93.246C160.73 93.2079 160.788 93.1746 160.845 93.1389L160.909 93.1008C160.98 93.058 161.056 93.0128 161.13 92.9699L161.175 92.9437C161.237 92.9081 161.299 92.8747 161.361 92.839L161.432 92.801C161.509 92.7605 161.582 92.72 161.659 92.682C161.747 92.6368 161.823 92.5987 161.899 92.563L161.968 92.5297C162.032 92.4987 162.096 92.4678 162.161 92.4392L162.213 92.4154C162.289 92.3797 162.37 92.3464 162.451 92.3107L162.511 92.2845C162.575 92.2584 162.639 92.2322 162.703 92.206L162.772 92.1775C162.853 92.1465 162.934 92.1156 163.017 92.0846C163.02 92.0846 163.041 92.0751 163.044 92.0751C163.129 92.0442 163.201 92.018 163.274 91.9942L163.343 91.9704C163.422 91.9442 163.498 91.9204 163.574 91.8943L163.6 91.8871C163.689 91.8609 163.774 91.8348 163.86 91.811L163.929 91.7919C164 91.7729 164.069 91.7539 164.141 91.7348L164.286 92.1822L164.164 91.7277L164.198 91.7182C164.283 91.6967 164.372 91.6753 164.46 91.6539L164.524 91.6396C164.593 91.623 164.664 91.6087 164.738 91.5944L164.802 91.5801C164.895 91.5611 164.983 91.5444 165.074 91.5278L165.104 91.523C165.181 91.5087 165.264 91.4968 165.347 91.4826L165.421 91.4707C165.502 91.4588 165.58 91.4469 165.659 91.4373L165.697 91.4326C165.792 91.4207 165.883 91.4112 165.975 91.4017L166.045 91.3945C166.118 91.3874 166.19 91.3802 166.261 91.3755L166.335 91.3707C166.425 91.3636 166.518 91.3588 166.609 91.3541H166.642C166.739 91.3469 166.816 91.3445 166.892 91.3422H166.97C167.165 91.335 167.363 91.335 167.558 91.3422H167.587C167.679 91.3445 167.772 91.3493 167.865 91.3541H167.901C167.991 91.3612 168.084 91.366 168.177 91.3731H168.205C168.308 91.3826 168.408 91.3921 168.505 91.4017C168.61 91.4112 168.707 91.4231 168.803 91.435L168.836 91.4397C168.924 91.4516 169.012 91.4635 169.103 91.4778L169.143 91.4849C169.229 91.4992 169.314 91.5135 169.4 91.5278L169.44 91.5349C169.531 91.5516 169.621 91.5682 169.712 91.5873L169.747 91.5944C169.831 91.6111 169.916 91.6301 170 91.6491L170.057 91.6634C170.133 91.6801 170.211 91.6991 170.29 91.7205L170.347 91.7348C170.426 91.7562 170.502 91.7753 170.578 91.7967L170.63 91.811C170.711 91.8348 170.787 91.8562 170.864 91.88L170.944 91.9038C171.016 91.9276 171.087 91.949 171.156 91.9728L171.216 91.9918C171.301 92.0204 171.366 92.0442 171.43 92.068L171.516 92.0989C171.575 92.1203 171.637 92.1441 171.699 92.1679L171.811 92.2132C171.863 92.2346 171.915 92.256 171.968 92.2774L172.092 92.3298C172.146 92.3536 172.201 92.3774 172.256 92.4012L172.365 92.4511C172.418 92.4749 172.47 92.4987 172.52 92.5225L172.772 92.6463C172.824 92.6725 172.877 92.701 172.929 92.7272L173.012 92.77C173.072 92.8033 173.129 92.8319 173.184 92.8628L173.27 92.9104C173.324 92.9414 173.377 92.9723 173.431 93.0032L173.524 93.058C173.593 93.0984 173.665 93.1413 173.734 93.1841L173.784 93.215C173.848 93.2555 173.907 93.2936 173.969 93.334L174.014 93.365C174.079 93.4078 174.141 93.4506 174.205 93.4935L174.226 93.5101C174.402 93.6315 174.574 93.7576 174.738 93.8838C174.804 93.9361 174.871 93.9885 174.938 94.0408C175.012 94.1003 175.073 94.1527 175.138 94.205C175.14 94.205 175.142 94.2098 175.145 94.2122C176.418 95.2831 177.446 96.5777 178.198 98.0579C178.231 98.1221 178.262 98.1864 178.296 98.253L178.327 98.3197C178.36 98.3887 178.391 98.4577 178.422 98.5267L178.453 98.5957C178.484 98.6671 178.515 98.7385 178.545 98.8099L178.567 98.8623C178.598 98.936 178.629 99.0098 178.657 99.0812L178.679 99.1335C178.71 99.2121 178.738 99.2906 178.767 99.3668L178.786 99.4167C178.814 99.4953 178.843 99.5738 178.869 99.6523L178.883 99.6952C178.912 99.7761 178.938 99.857 178.962 99.9403L178.974 99.976C179 100.062 179.026 100.15 179.052 100.24L179.062 100.271C179.086 100.354 179.109 100.442 179.131 100.528L179.138 100.559C179.159 100.645 179.181 100.733 179.202 100.821L179.209 100.849C179.231 100.945 179.25 101.035 179.271 101.128C179.271 101.128 179.276 101.152 179.276 101.154C179.288 101.209 179.3 101.266 179.309 101.325C179.309 101.335 179.312 101.344 179.314 101.352C179.416 101.906 179.483 102.47 179.509 103.034C179.509 103.036 179.509 103.041 179.509 103.046C179.509 103.053 179.509 103.058 179.509 103.063C179.509 103.067 179.509 103.072 179.509 103.079C179.509 103.084 179.509 103.089 179.509 103.091C179.509 103.091 179.509 103.098 179.509 103.101C179.509 103.103 179.509 103.108 179.509 103.113C179.509 103.12 179.509 103.124 179.509 103.127C179.509 103.132 179.509 103.153 179.509 103.158C179.509 103.163 179.509 103.182 179.509 103.186C179.509 103.191 179.509 103.208 179.509 103.212V103.284C179.509 103.284 179.512 103.31 179.512 103.315C179.512 103.32 179.512 103.343 179.512 103.348C179.512 103.355 179.512 103.372 179.512 103.381V103.441C179.512 103.441 179.512 103.46 179.512 103.47V103.605V103.667L179.043 103.693H179.512C179.512 103.693 179.512 103.715 179.512 103.722C179.512 103.727 179.512 103.748 179.512 103.753C179.512 103.757 179.512 103.774 179.512 103.779C179.512 103.786 179.512 103.817 179.512 103.824V103.857V103.915C179.512 103.915 179.512 103.943 179.512 103.945L179.507 104.126C179.507 104.126 179.507 104.126 179.507 104.131C179.507 104.136 179.507 104.143 179.507 104.148C179.507 104.153 179.507 104.157 179.507 104.162V104.188L179.505 104.214C179.505 104.219 179.505 104.262 179.502 104.267C179.502 104.271 179.502 104.288 179.502 104.293V104.319C179.502 104.319 179.5 104.348 179.5 104.35L179.478 104.64C179.478 104.64 179.478 104.667 179.476 104.669V104.695C179.476 104.695 179.471 104.731 179.471 104.733C179.471 104.738 179.469 104.769 179.466 104.774C179.466 104.776 179.466 104.778 179.466 104.781C179.466 104.781 179.466 104.807 179.464 104.809C179.464 104.814 179.462 104.835 179.462 104.84C179.462 104.847 179.462 104.855 179.462 104.862L179.455 104.921C179.421 105.235 179.376 105.545 179.319 105.854C179.319 105.859 179.319 105.864 179.319 105.866C179.193 106.544 179.01 107.215 178.772 107.858C178.741 107.941 178.71 108.024 178.676 108.108C178.636 108.208 178.6 108.296 178.565 108.381C178.522 108.484 178.484 108.569 178.446 108.653C178.429 108.691 178.412 108.726 178.396 108.762L178.384 108.753ZM182.891 90.0595C182.893 90.0714 182.896 90.0833 182.898 90.0952C182.905 90.1451 182.905 90.1975 182.898 90.2475C182.955 90.2189 183.017 90.1999 183.079 90.1951C183.077 90.1832 183.074 90.1713 183.072 90.1594C183.065 90.1094 183.065 90.0571 183.072 90.0071C183.027 90.0309 182.979 90.0476 182.929 90.0547C182.917 90.0547 182.905 90.0571 182.891 90.0595Z" fill="#722875"/>
<path d="M182.23 218.658C181.682 218.658 181.137 218.654 180.593 218.639L180.583 218.63C181.135 218.649 181.678 218.658 182.23 218.658Z" fill="#722875"/>
<path fill-rule="evenodd" clip-rule="evenodd" d="M220.878 186.761H226.047C227.22 186.761 228.179 187.687 228.179 188.815V193.522H220.452C219.738 193.522 219.153 192.958 219.153 192.27V190.635C219.153 189.995 219.695 189.472 220.361 189.472H224.647L224.193 190.424H221.04C220.899 190.424 220.749 190.526 220.749 190.673V191.959C220.749 192.106 220.899 192.208 221.04 192.208H226.511V189.122C226.511 188.525 225.978 188.068 225.385 188.068H220.254L220.88 186.756L220.878 186.761ZM189.936 185.288V184.286H188.265V186.238L189.936 185.288ZM188.268 187.189L189.938 186.24V193.524H188.268V187.189ZM198.351 186.761C199.524 186.761 200.483 187.687 200.483 188.815V193.522H198.813V189.127C198.813 188.529 198.279 188.072 197.687 188.072H193.677V193.522H192.006V186.763C194.115 186.763 196.233 186.761 198.348 186.761H198.351ZM219.714 186.761H215.526C214.353 186.761 213.393 187.687 213.393 188.815V193.522H215.064V189.127C215.064 188.529 215.597 188.072 216.19 188.072H219.083L219.717 186.761H219.714ZM163.663 193.524H165.334V188.817C165.334 187.687 164.375 186.763 163.202 186.763H152.262V193.524H153.932V188.325C153.932 188.177 154.085 188.072 154.225 188.072H157.673C157.814 188.072 157.964 188.177 157.964 188.325V193.524H159.634V188.325C159.634 188.177 159.784 188.072 159.925 188.072H162.54C163.133 188.072 163.666 188.529 163.666 189.127V193.522L163.663 193.524ZM177.58 184.303V193.524H179.251V184.303H177.58ZM184.524 193.522H186.195V188.817C186.195 187.687 185.236 186.763 184.063 186.763H180.517L179.886 188.075H183.401C183.994 188.075 184.527 188.532 184.527 189.129V193.524L184.524 193.522ZM211.004 184.303V193.524H203.467C202.753 193.524 202.168 192.96 202.168 192.273V188.817C202.168 187.687 203.127 186.763 204.3 186.763H208.593L207.96 188.075H204.962C204.369 188.075 203.836 188.532 203.836 189.129V191.963C203.836 192.111 203.986 192.213 204.127 192.213H209.331V184.303H211.002H211.004ZM168.532 186.761H173.701C174.874 186.761 175.833 187.687 175.833 188.815V193.522H168.106C167.392 193.522 166.807 192.958 166.807 192.27V190.635C166.807 189.995 167.35 189.472 168.013 189.472H172.299L171.845 190.424H168.692C168.551 190.424 168.401 190.526 168.401 190.673V191.959C168.401 192.106 168.551 192.208 168.692 192.208H174.163V189.122C174.163 188.525 173.63 188.068 173.037 188.068H167.906L168.532 186.756V186.761Z" fill="#D80F20"/>
<path d="M139.545 186.899C139.921 186.82 140.514 186.761 141.114 186.761C141.973 186.761 142.525 186.908 142.939 187.244C143.284 187.501 143.491 187.894 143.491 188.417C143.491 189.06 143.067 189.621 142.365 189.878V189.897C142.996 190.057 143.736 190.578 143.736 191.566C143.736 192.137 143.508 192.572 143.175 192.898C142.71 193.322 141.961 193.519 140.876 193.519C140.283 193.519 139.831 193.479 139.543 193.441V186.899H139.545ZM140.404 189.624H141.185C142.094 189.624 142.625 189.15 142.625 188.508C142.625 187.727 142.032 187.422 141.164 187.422C140.769 187.422 140.542 187.451 140.404 187.482V189.624ZM140.404 192.81C140.573 192.839 140.819 192.851 141.126 192.851C142.013 192.851 142.832 192.525 142.832 191.558C142.832 190.649 142.051 190.276 141.114 190.276H140.404V192.813V192.81Z" fill="#414241"/>
<path d="M146.23 193.463V190.641L144.129 186.812H145.105L146.042 188.649C146.299 189.151 146.497 189.558 146.704 190.019H146.723C146.911 189.584 147.137 189.151 147.394 188.649L148.351 186.812H149.329L147.099 190.631V193.463H146.23Z" fill="#414241"/>
<defs>
<filter id="filter0_d_2258_12848" x="20" y="16" width="711" height="349.04" filterUnits="userSpaceOnUse" color-interpolation-filters="sRGB">
<feFlood flood-opacity="0" result="BackgroundImageFix"/>
<feColorMatrix in="SourceAlpha" type="matrix" values="0 0 0 0 0 0 0 0 0 0 0 0 0 0 0 0 0 0 127 0" result="hardAlpha"/>
<feOffset dy="43.0402"/>
<feComposite in2="hardAlpha" operator="out"/>
<feColorMatrix type="matrix" values="0 0 0 0 0.890196 0 0 0 0 0.372549 0 0 0 0 0.14902 0 0 0 1 0"/>
<feBlend mode="normal" in2="BackgroundImageFix" result="effect1_dropShadow_2258_12848"/>
<feBlend mode="normal" in="SourceGraphic" in2="effect1_dropShadow_2258_12848" result="shape"/>
</filter>
</defs>
</svg>
